<svg width="72" height="32" viewBox="0 0 72 32" fill="none" xmlns="http://www.w3.org/2000/svg">
<rect x="0.5" y="0.5" width="71" height="31" fill="white"/>
<rect x="0.5" y="0.5" width="71" height="31" stroke="#ECD9D9" stroke-linejoin="round"/>
<g style="mix-blend-mode:darken">
<mask id="path-2-outside-1_5_22" maskUnits="userSpaceOnUse" x="14" y="11" width="45" height="12" fill="black">
<rect fill="white" x="14" y="11" width="45" height="12"/>
<path d="M15.1609 21V12.2727H16.9762V15.554H17.0316C17.1112 15.3778 17.2262 15.1989 17.3768 15.017C17.5302 14.8324 17.729 14.679 17.9734 14.5568C18.2205 14.4318 18.5273 14.3693 18.8938 14.3693C19.3711 14.3693 19.8114 14.4943 20.2148 14.7443C20.6183 14.9915 20.9407 15.3651 21.1822 15.8651C21.4237 16.3622 21.5444 16.9858 21.5444 17.7358C21.5444 18.4659 21.4265 19.0824 21.1907 19.5852C20.9577 20.0852 20.6396 20.4645 20.2362 20.723C19.8356 20.9787 19.3867 21.1065 18.8896 21.1065C18.5373 21.1065 18.2376 21.0483 17.9904 20.9318C17.7461 20.8153 17.5458 20.669 17.3896 20.4929C17.2333 20.3139 17.114 20.1335 17.0316 19.9517H16.9506V21H15.1609ZM16.9379 17.7273C16.9379 18.1165 16.9918 18.456 17.0998 18.7457C17.2077 19.0355 17.364 19.2614 17.5685 19.4233C17.7731 19.5824 18.0217 19.6619 18.3143 19.6619C18.6097 19.6619 18.8597 19.581 19.0643 19.419C19.2688 19.2543 19.4237 19.027 19.5288 18.7372C19.6367 18.4446 19.6907 18.108 19.6907 17.7273C19.6907 17.3494 19.6381 17.017 19.533 16.7301C19.4279 16.4432 19.2731 16.2187 19.0685 16.0568C18.864 15.8949 18.6126 15.8139 18.3143 15.8139C18.0188 15.8139 17.7688 15.892 17.5643 16.0483C17.3626 16.2045 17.2077 16.4261 17.0998 16.7131C16.9918 17 16.9379 17.3381 16.9379 17.7273ZM26.8338 16.696V18.1364H22.8537V16.696H26.8338ZM31.3381 21.1278C30.6676 21.1278 30.0909 20.9858 29.608 20.7017C29.1278 20.4148 28.7585 20.017 28.5 19.5085C28.2443 19 28.1165 18.4148 28.1165 17.7528C28.1165 17.0824 28.2457 16.4943 28.5043 15.9886C28.7656 15.4801 29.1364 15.0838 29.6165 14.7997C30.0966 14.5128 30.6676 14.3693 31.3295 14.3693C31.9006 14.3693 32.4006 14.473 32.8295 14.6804C33.2585 14.8878 33.598 15.179 33.848 15.554C34.098 15.929 34.2358 16.3693 34.2614 16.875H32.5483C32.5 16.5483 32.3722 16.2855 32.1648 16.0866C31.9602 15.8849 31.6918 15.7841 31.3594 15.7841C31.0781 15.7841 30.8324 15.8608 30.6222 16.0142C30.4148 16.1648 30.2528 16.3849 30.1364 16.6747C30.0199 16.9645 29.9616 17.3153 29.9616 17.7273C29.9616 18.1449 30.0185 18.5 30.1321 18.7926C30.2486 19.0852 30.4119 19.3082 30.6222 19.4616C30.8324 19.6151 31.0781 19.6918 31.3594 19.6918C31.5668 19.6918 31.7528 19.6491 31.9176 19.5639C32.0852 19.4787 32.223 19.3551 32.331 19.1932C32.4418 19.0284 32.5142 18.831 32.5483 18.6009H34.2614C34.233 19.1009 34.0966 19.5412 33.8523 19.9219C33.6108 20.2997 33.277 20.5952 32.8509 20.8082C32.4247 21.0213 31.9205 21.1278 31.3381 21.1278ZM38.381 21.1278C37.7191 21.1278 37.1467 20.9872 36.6637 20.706C36.1836 20.4219 35.8129 20.027 35.5515 19.5213C35.2901 19.0128 35.1594 18.4233 35.1594 17.7528C35.1594 17.0767 35.2901 16.4858 35.5515 15.9801C35.8129 15.4716 36.1836 15.0767 36.6637 14.7955C37.1467 14.5114 37.7191 14.3693 38.381 14.3693C39.043 14.3693 39.614 14.5114 40.0941 14.7955C40.5771 15.0767 40.9492 15.4716 41.2106 15.9801C41.4719 16.4858 41.6026 17.0767 41.6026 17.7528C41.6026 18.4233 41.4719 19.0128 41.2106 19.5213C40.9492 20.027 40.5771 20.4219 40.0941 20.706C39.614 20.9872 39.043 21.1278 38.381 21.1278ZM38.3896 19.7216C38.6907 19.7216 38.9421 19.6364 39.1438 19.4659C39.3455 19.2926 39.4975 19.0568 39.5998 18.7585C39.7049 18.4602 39.7575 18.1207 39.7575 17.7401C39.7575 17.3594 39.7049 17.0199 39.5998 16.7216C39.4975 16.4233 39.3455 16.1875 39.1438 16.0142C38.9421 15.8409 38.6907 15.7543 38.3896 15.7543C38.0856 15.7543 37.8299 15.8409 37.6225 16.0142C37.418 16.1875 37.2631 16.4233 37.158 16.7216C37.0558 17.0199 37.0046 17.3594 37.0046 17.7401C37.0046 18.1207 37.0558 18.4602 37.158 18.7585C37.2631 19.0568 37.418 19.2926 37.6225 19.4659C37.8299 19.6364 38.0856 19.7216 38.3896 19.7216ZM44.5984 12.2727V21H42.783V12.2727H44.5984ZM49.0099 21.1278C48.348 21.1278 47.7756 20.9872 47.2926 20.706C46.8125 20.4219 46.4418 20.027 46.1804 19.5213C45.919 19.0128 45.7884 18.4233 45.7884 17.7528C45.7884 17.0767 45.919 16.4858 46.1804 15.9801C46.4418 15.4716 46.8125 15.0767 47.2926 14.7955C47.7756 14.5114 48.348 14.3693 49.0099 14.3693C49.6719 14.3693 50.2429 14.5114 50.723 14.7955C51.206 15.0767 51.5781 15.4716 51.8395 15.9801C52.1009 16.4858 52.2315 17.0767 52.2315 17.7528C52.2315 18.4233 52.1009 19.0128 51.8395 19.5213C51.5781 20.027 51.206 20.4219 50.723 20.706C50.2429 20.9872 49.6719 21.1278 49.0099 21.1278ZM49.0185 19.7216C49.3196 19.7216 49.571 19.6364 49.7727 19.4659C49.9744 19.2926 50.1264 19.0568 50.2287 18.7585C50.3338 18.4602 50.3864 18.1207 50.3864 17.7401C50.3864 17.3594 50.3338 17.0199 50.2287 16.7216C50.1264 16.4233 49.9744 16.1875 49.7727 16.0142C49.571 15.8409 49.3196 15.7543 49.0185 15.7543C48.7145 15.7543 48.4588 15.8409 48.2514 16.0142C48.0469 16.1875 47.892 16.4233 47.7869 16.7216C47.6847 17.0199 47.6335 17.3594 47.6335 17.7401C47.6335 18.1207 47.6847 18.4602 47.7869 18.7585C47.892 19.0568 48.0469 19.2926 48.2514 19.4659C48.4588 19.6364 48.7145 19.7216 49.0185 19.7216ZM53.4119 21V14.4545H55.1719V15.5966H55.2401C55.3594 15.1903 55.5597 14.8835 55.8409 14.6761C56.1222 14.4659 56.446 14.3608 56.8125 14.3608C56.9034 14.3608 57.0014 14.3665 57.1065 14.3778C57.2116 14.3892 57.304 14.4048 57.3835 14.4247V16.0355C57.2983 16.0099 57.1804 15.9872 57.0298 15.9673C56.8793 15.9474 56.7415 15.9375 56.6165 15.9375C56.3494 15.9375 56.1108 15.9957 55.9006 16.1122C55.6932 16.2259 55.5284 16.3849 55.4062 16.5895C55.2869 16.794 55.2273 17.0298 55.2273 17.2969V21H53.4119Z"/>
</mask>
<path d="M15.1609 21H14.1609V22H15.1609V21ZM15.1609 12.2727V11.2727H14.1609V12.2727H15.1609ZM16.9762 12.2727H17.9762V11.2727H16.9762V12.2727ZM16.9762 15.554H15.9762V16.554H16.9762V15.554ZM17.0316 15.554V16.554H17.6772L17.943 15.9656L17.0316 15.554ZM17.3768 15.017L16.6076 14.378L16.6066 14.3792L17.3768 15.017ZM17.9734 14.5568L18.4206 15.4513L18.4247 15.4492L17.9734 14.5568ZM20.2148 14.7443L19.6881 15.5943L19.6924 15.597L20.2148 14.7443ZM21.1822 15.8651L20.2817 16.3L20.2827 16.302L21.1822 15.8651ZM21.1907 19.5852L20.2853 19.1607L20.2843 19.1629L21.1907 19.5852ZM20.2362 20.723L20.7742 21.5659L20.7757 21.565L20.2362 20.723ZM17.9904 20.9318L17.5601 21.8345L17.5641 21.8364L17.9904 20.9318ZM17.3896 20.4929L16.6362 21.1506L16.6415 21.1565L17.3896 20.4929ZM17.0316 19.9517L17.9425 19.539L17.6764 18.9517H17.0316V19.9517ZM16.9506 19.9517V18.9517H15.9506V19.9517H16.9506ZM16.9506 21V22H17.9506V21H16.9506ZM17.5685 19.4233L16.9478 20.2074L16.9546 20.2126L17.5685 19.4233ZM19.0643 19.419L19.685 20.2031L19.6916 20.1978L19.0643 19.419ZM19.5288 18.7372L18.5906 18.3911L18.5887 18.3962L19.5288 18.7372ZM19.533 16.7301L20.472 16.3861V16.3861L19.533 16.7301ZM19.0685 16.0568L19.6892 15.2728V15.2728L19.0685 16.0568ZM17.5643 16.0483L16.9572 15.2536L16.9519 15.2577L17.5643 16.0483ZM17.0998 16.7131L16.1638 16.3609V16.3609L17.0998 16.7131ZM16.1609 21V12.2727H14.1609V21H16.1609ZM15.1609 13.2727H16.9762V11.2727H15.1609V13.2727ZM15.9762 12.2727V15.554H17.9762V12.2727H15.9762ZM16.9762 16.554H17.0316V14.554H16.9762V16.554ZM17.943 15.9656C17.9787 15.8864 18.0413 15.7825 18.147 15.6549L16.6066 14.3792C16.4111 14.6152 16.2436 14.8693 16.1202 15.1424L17.943 15.9656ZM18.146 15.6561C18.1995 15.5916 18.2831 15.52 18.4206 15.4512L17.5262 13.6624C17.175 13.838 16.8609 14.0731 16.6076 14.378L18.146 15.6561ZM18.4247 15.4492C18.4942 15.414 18.6355 15.3693 18.8938 15.3693V13.3693C18.4192 13.3693 17.9469 13.4496 17.5221 13.6645L18.4247 15.4492ZM18.8938 15.3693C19.1861 15.3693 19.4438 15.443 19.6881 15.5943L20.7416 13.8943C20.1791 13.5457 19.5561 13.3693 18.8938 13.3693V15.3693ZM19.6924 15.597C19.9057 15.7277 20.1088 15.9421 20.2817 16.2999L22.0827 15.4302C21.7725 14.7881 21.3308 14.2553 20.7373 13.8916L19.6924 15.597ZM20.2827 16.302C20.4388 16.6234 20.5444 17.0859 20.5444 17.7358H22.5444C22.5444 16.8857 22.4085 16.1011 22.0817 15.4282L20.2827 16.302ZM20.5444 17.7358C20.5444 18.3633 20.4424 18.8256 20.2853 19.1607L22.0961 20.0098C22.4106 19.3392 22.5444 18.5685 22.5444 17.7358H20.5444ZM20.2843 19.1629C20.119 19.5177 19.9174 19.7396 19.6966 19.8811L20.7757 21.565C21.3617 21.1894 21.7965 20.6528 22.0971 20.0075L20.2843 19.1629ZM19.6981 19.8801C19.4659 20.0283 19.2053 20.1065 18.8896 20.1065V22.1065C19.5681 22.1065 20.2053 21.9291 20.7742 21.5659L19.6981 19.8801ZM18.8896 20.1065C18.6436 20.1065 18.4978 20.0655 18.4167 20.0272L17.5641 21.8364C17.9773 22.0311 18.431 22.1065 18.8896 22.1065V20.1065ZM18.4208 20.0292C18.2793 19.9617 18.1927 19.8914 18.1376 19.8293L16.6415 21.1565C16.8989 21.4467 17.2128 21.6689 17.5601 21.8345L18.4208 20.0292ZM18.1429 19.8352C18.039 19.7162 17.9778 19.6169 17.9425 19.539L16.1208 20.3644C16.2502 20.6502 16.4276 20.9116 16.6362 21.1506L18.1429 19.8352ZM17.0316 18.9517H16.9506V20.9517H17.0316V18.9517ZM15.9506 19.9517V21H17.9506V19.9517H15.9506ZM16.9506 20H15.1609V22H16.9506V20ZM15.9379 17.7273C15.9379 18.2061 16.0039 18.6687 16.1627 19.0948L18.0369 18.3966C17.9797 18.2432 17.9379 18.0268 17.9379 17.7273H15.9379ZM16.1627 19.0948C16.3225 19.5238 16.5755 19.9126 16.9478 20.2073L18.1892 18.6392C18.1525 18.6102 18.093 18.5473 18.0369 18.3966L16.1627 19.0948ZM16.9546 20.2126C17.3571 20.5257 17.8295 20.6619 18.3143 20.6619V18.6619C18.2138 18.6619 18.189 18.639 18.1825 18.6339L16.9546 20.2126ZM18.3143 20.6619C18.8036 20.6619 19.2806 20.5232 19.685 20.2031L18.4436 18.635C18.4389 18.6387 18.4159 18.6619 18.3143 18.6619V20.6619ZM19.6916 20.1978C20.0615 19.8998 20.3124 19.5096 20.4688 19.0782L18.5887 18.3962C18.5349 18.5444 18.4761 18.6087 18.4369 18.6403L19.6916 20.1978ZM20.467 19.0833C20.6237 18.6585 20.6907 18.2009 20.6907 17.7273H18.6907C18.6907 18.015 18.6497 18.2307 18.5906 18.3911L20.467 19.0833ZM20.6907 17.7273C20.6907 17.2588 20.6258 16.8058 20.472 16.3861L18.594 17.0741C18.6505 17.2282 18.6907 17.44 18.6907 17.7273H20.6907ZM20.472 16.3861C20.3144 15.9561 20.0617 15.5676 19.6892 15.2728L18.4478 16.8409C18.4845 16.8699 18.5414 16.9303 18.594 17.0741L20.472 16.3861ZM19.6892 15.2728C19.2831 14.9513 18.8039 14.8139 18.3143 14.8139V16.8139C18.4212 16.8139 18.4448 16.8385 18.4478 16.8409L19.6892 15.2728ZM18.3143 14.8139C17.8333 14.8139 17.3613 14.945 16.9572 15.2536L18.1713 16.843C18.1764 16.8391 18.2043 16.8139 18.3143 16.8139V14.8139ZM16.9519 15.2577C16.5767 15.5484 16.3238 15.9359 16.1638 16.3609L18.0357 17.0652C18.0917 16.9164 18.1484 16.8607 18.1767 16.8388L16.9519 15.2577ZM16.1638 16.3609C16.0038 16.7862 15.9379 17.2488 15.9379 17.7273H17.9379C17.9379 17.4273 17.9798 17.2138 18.0357 17.0652L16.1638 16.3609ZM26.8338 16.696H27.8338V15.696H26.8338V16.696ZM26.8338 18.1364V19.1364H27.8338V18.1364H26.8338ZM22.8537 18.1364H21.8537V19.1364H22.8537V18.1364ZM22.8537 16.696V15.696H21.8537V16.696H22.8537ZM25.8338 16.696V18.1364H27.8338V16.696H25.8338ZM26.8338 17.1364H22.8537V19.1364H26.8338V17.1364ZM23.8537 18.1364V16.696H21.8537V18.1364H23.8537ZM22.8537 17.696H26.8338V15.696H22.8537V17.696ZM29.608 20.7017L29.0949 21.5601L29.1009 21.5636L29.608 20.7017ZM28.5 19.5085L27.6066 19.9577L27.6086 19.9617L28.5 19.5085ZM28.5043 15.9886L27.6149 15.5315L27.6139 15.5334L28.5043 15.9886ZM29.6165 14.7997L30.1257 15.6603L30.1295 15.6581L29.6165 14.7997ZM32.8295 14.6804L33.2648 13.7801V13.7801L32.8295 14.6804ZM34.2614 16.875V17.875H35.3132L35.2601 16.8245L34.2614 16.875ZM32.5483 16.875L31.559 17.0212L31.6853 17.875H32.5483V16.875ZM32.1648 16.0866L31.4626 16.7988L31.4727 16.8084L32.1648 16.0866ZM30.6222 16.0142L31.2097 16.8234L31.2116 16.822L30.6222 16.0142ZM30.1321 18.7926L29.1999 19.1546L29.203 19.1624L30.1321 18.7926ZM30.6222 19.4616L31.2116 18.6539V18.6539L30.6222 19.4616ZM31.9176 19.5639L31.4644 18.6725L31.4582 18.6757L31.9176 19.5639ZM32.331 19.1932L31.5011 18.6352L31.4989 18.6385L32.331 19.1932ZM32.5483 18.6009V17.6009H31.6855L31.5591 18.4543L32.5483 18.6009ZM34.2614 18.6009L35.2598 18.6576L35.3198 17.6009H34.2614V18.6009ZM33.8523 19.9219L33.0107 19.3818L33.0097 19.3834L33.8523 19.9219ZM32.8509 20.8082L32.4036 19.9138L32.8509 20.8082ZM31.3381 20.1278C30.8107 20.1278 30.4165 20.0172 30.115 19.8398L29.1009 21.5636C29.7653 21.9544 30.5245 22.1278 31.3381 22.1278V20.1278ZM30.121 19.8433C29.806 19.6551 29.5663 19.3994 29.3914 19.0553L27.6086 19.9617C27.9507 20.6347 28.4497 21.1744 29.095 21.5601L30.121 19.8433ZM29.3934 19.0593C29.2184 18.7112 29.1165 18.2842 29.1165 17.7528H27.1165C27.1165 18.5454 27.2702 19.2888 27.6066 19.9577L29.3934 19.0593ZM29.1165 17.7528C29.1165 17.2122 29.2201 16.7853 29.3947 16.4438L27.6139 15.5334C27.2714 16.2034 27.1165 16.9526 27.1165 17.7528H29.1165ZM29.3937 16.4458C29.5711 16.1005 29.812 15.846 30.1257 15.6603L29.1072 13.9391C28.4607 14.3217 27.9601 14.8598 27.6149 15.5315L29.3937 16.4458ZM30.1295 15.6581C30.4281 15.4796 30.8148 15.3693 31.3295 15.3693V13.3693C30.5204 13.3693 29.765 13.546 29.1035 13.9413L30.1295 15.6581ZM31.3295 15.3693C31.7794 15.3693 32.1253 15.4507 32.3943 15.5807L33.2648 13.7801C32.6758 13.4953 32.0218 13.3693 31.3295 13.3693V15.3693ZM32.3943 15.5807C32.6721 15.715 32.8707 15.8908 33.016 16.1087L34.6801 14.9993C34.3253 14.4671 33.845 14.0606 33.2648 13.7801L32.3943 15.5807ZM33.016 16.1087C33.1541 16.3158 33.245 16.5771 33.2626 16.9255L35.2601 16.8245C35.2266 16.1616 35.042 15.5421 34.6801 14.9993L33.016 16.1087ZM34.2614 15.875H32.5483V17.875H34.2614V15.875ZM33.5375 16.7288C33.4619 16.2169 33.2478 15.7397 32.8569 15.3649L31.4727 16.8084C31.4965 16.8313 31.5381 16.8797 31.559 17.0212L33.5375 16.7288ZM32.8669 15.3746C32.4457 14.9593 31.91 14.7841 31.3594 14.7841V16.7841C31.4243 16.7841 31.4529 16.7938 31.4583 16.7959C31.4614 16.797 31.4616 16.7974 31.4605 16.7967C31.4595 16.796 31.4601 16.7962 31.4626 16.7987L32.8669 15.3746ZM31.3594 14.7841C30.8843 14.7841 30.4281 14.9179 30.0327 15.2064L31.2116 16.822C31.2366 16.8037 31.2719 16.7841 31.3594 16.7841V14.7841ZM30.0346 15.205C29.6448 15.488 29.3798 15.8758 29.2085 16.3018L31.0642 17.0477C31.1259 16.8941 31.1848 16.8415 31.2097 16.8234L30.0346 15.205ZM29.2085 16.3018C29.0318 16.7413 28.9616 17.2262 28.9616 17.7273H30.9616C30.9616 17.4045 31.0079 17.1877 31.0642 17.0477L29.2085 16.3018ZM28.9616 17.7273C28.9616 18.2301 29.0293 18.7154 29.1999 19.1546L31.0643 18.4306C31.0076 18.2846 30.9616 18.0596 30.9616 17.7273H28.9616ZM29.203 19.1624C29.3744 19.5931 29.641 19.9836 30.0327 20.2694L31.2116 18.6539C31.1829 18.6329 31.1227 18.5773 31.0612 18.4228L29.203 19.1624ZM30.0327 20.2694C30.4281 20.558 30.8843 20.6918 31.3594 20.6918V18.6918C31.2719 18.6918 31.2366 18.6721 31.2116 18.6539L30.0327 20.2694ZM31.3594 20.6918C31.7075 20.6918 32.0542 20.6191 32.377 20.4521L31.4582 18.6757C31.4515 18.6792 31.426 18.6918 31.3594 18.6918V20.6918ZM32.3709 20.4553C32.697 20.2894 32.9633 20.0475 33.163 19.7479L31.4989 18.6385C31.4827 18.6627 31.4734 18.6679 31.4644 18.6725L32.3709 20.4553ZM33.1608 19.7512C33.3678 19.4434 33.4853 19.0997 33.5375 18.7474L31.5591 18.4543C31.5431 18.5622 31.5157 18.6135 31.5011 18.6352L33.1608 19.7512ZM32.5483 19.6009H34.2614V17.6009H32.5483V19.6009ZM33.263 18.5441C33.2433 18.891 33.1523 19.1611 33.0107 19.3818L34.6939 20.462C35.0409 19.9213 35.2226 19.3107 35.2598 18.6576L33.263 18.5441ZM33.0097 19.3834C32.8716 19.5994 32.6788 19.7763 32.4036 19.9138L33.2981 21.7027C33.8752 21.4141 34.35 21 34.6949 20.4604L33.0097 19.3834ZM32.4036 19.9138C32.1438 20.0437 31.7992 20.1278 31.3381 20.1278V22.1278C32.0417 22.1278 32.7056 21.9989 33.2981 21.7027L32.4036 19.9138ZM36.6637 20.706L36.1544 21.5666L36.1605 21.5701L36.6637 20.706ZM35.5515 19.5213L34.6621 19.9784L34.6631 19.9805L35.5515 19.5213ZM35.5515 15.9801L36.4399 16.4393L36.4409 16.4372L35.5515 15.9801ZM36.6637 14.7955L37.1692 15.6583L37.1707 15.6574L36.6637 14.7955ZM40.0941 14.7955L39.5849 15.6561L39.5909 15.6596L40.0941 14.7955ZM41.2106 15.9801L40.3212 16.4372L40.3222 16.4393L41.2106 15.9801ZM41.2106 19.5213L42.0989 19.9805L42.1 19.9784L41.2106 19.5213ZM40.0941 20.706L40.5996 21.5688L40.6011 21.5679L40.0941 20.706ZM39.1438 19.4659L39.7893 20.2297L39.7955 20.2244L39.1438 19.4659ZM39.5998 18.7585L38.6566 18.4262L38.6538 18.4342L39.5998 18.7585ZM39.5998 16.7216L38.6538 17.0459L38.6566 17.0539L39.5998 16.7216ZM37.6225 16.0142L36.9813 15.2468L36.9761 15.2512L37.6225 16.0142ZM37.158 16.7216L36.2148 16.3892L36.2121 16.3973L37.158 16.7216ZM37.158 18.7585L36.212 19.0829L36.2149 19.0909L37.158 18.7585ZM37.6225 19.4659L36.9761 20.2289L36.9818 20.2337L36.9875 20.2385L37.6225 19.4659ZM38.381 20.1278C37.8631 20.1278 37.4711 20.0189 37.1669 19.8418L36.1605 21.5701C36.8223 21.9555 37.5751 22.1278 38.381 22.1278V20.1278ZM37.173 19.8453C36.8578 19.6589 36.6169 19.4047 36.4398 19.0622L34.6631 19.9805C35.0088 20.6493 35.5094 21.1849 36.1545 21.5666L37.173 19.8453ZM36.4409 19.0642C36.2638 18.7196 36.1594 18.2917 36.1594 17.7528H34.1594C34.1594 18.5549 34.3165 19.306 34.6621 19.9784L36.4409 19.0642ZM36.1594 17.7528C36.1594 17.2066 36.2644 16.7787 36.4398 16.4393L34.6631 15.521C34.3158 16.1929 34.1594 16.9468 34.1594 17.7528H36.1594ZM36.4409 16.4372C36.6179 16.0928 36.8577 15.8408 37.1692 15.6583L36.1582 13.9326C35.5095 14.3126 35.0078 14.8504 34.6621 15.523L36.4409 16.4372ZM37.1707 15.6574C37.4742 15.4789 37.8648 15.3693 38.381 15.3693V13.3693C37.5734 13.3693 36.8192 13.5438 36.1567 13.9335L37.1707 15.6574ZM38.381 15.3693C38.8974 15.3693 39.2855 15.479 39.5849 15.6561L40.6033 13.9348C39.9425 13.5438 39.1885 13.3693 38.381 13.3693V15.3693ZM39.5909 15.6596C39.9049 15.8425 40.1449 16.0943 40.3212 16.4372L42.1 15.523C41.7535 14.8489 41.2492 14.3109 40.5973 13.9313L39.5909 15.6596ZM40.3222 16.4393C40.4976 16.7787 40.6026 17.2066 40.6026 17.7528H42.6026C42.6026 16.9468 42.4462 16.1929 42.0989 15.521L40.3222 16.4393ZM40.6026 17.7528C40.6026 18.2917 40.4983 18.7196 40.3212 19.0642L42.1 19.9784C42.4456 19.306 42.6026 18.5549 42.6026 17.7528H40.6026ZM40.3222 19.0622C40.146 19.4031 39.9048 19.6572 39.5871 19.844L40.6011 21.5679C41.2493 21.1866 41.7524 20.6509 42.0989 19.9805L40.3222 19.0622ZM39.5886 19.8431C39.2886 20.0189 38.8991 20.1278 38.381 20.1278V22.1278C39.1868 22.1278 39.9394 21.9556 40.5996 21.5688L39.5886 19.8431ZM38.3896 20.7216C38.8918 20.7216 39.3819 20.5739 39.7893 20.2297L38.4984 18.7021C38.4937 18.706 38.4906 18.708 38.4829 18.7106C38.4735 18.7138 38.4454 18.7216 38.3896 18.7216V20.7216ZM39.7955 20.2244C40.1553 19.9152 40.3965 19.518 40.5457 19.0828L38.6538 18.4342C38.5985 18.5956 38.5357 18.67 38.4921 18.7074L39.7955 20.2244ZM40.5429 19.0909C40.6925 18.6666 40.7575 18.2116 40.7575 17.7401H38.7575C38.7575 18.0299 38.7173 18.2539 38.6566 18.4262L40.5429 19.0909ZM40.7575 17.7401C40.7575 17.2685 40.6925 16.8135 40.5429 16.3892L38.6566 17.0539C38.7173 17.2262 38.7575 17.4502 38.7575 17.7401H40.7575ZM40.5457 16.3973C40.3965 15.9621 40.1553 15.5649 39.7955 15.2557L38.4921 16.7727C38.5357 16.8101 38.5985 16.8845 38.6538 17.0459L40.5457 16.3973ZM39.7955 15.2557C39.3884 14.9059 38.8961 14.7543 38.3896 14.7543V16.7543C38.4437 16.7543 38.4701 16.7619 38.4781 16.7647C38.4844 16.7668 38.4871 16.7684 38.4921 16.7727L39.7955 15.2557ZM38.3896 14.7543C37.8823 14.7543 37.3911 14.9044 36.9813 15.2468L38.2637 16.7816C38.2687 16.7774 38.2889 16.7543 38.3896 16.7543V14.7543ZM36.9761 15.2512C36.6136 15.5583 36.3683 15.9539 36.2149 16.3892L38.1012 17.0539C38.158 16.8927 38.2223 16.8167 38.2689 16.7772L36.9761 15.2512ZM36.2121 16.3973C36.0675 16.819 36.0046 17.2712 36.0046 17.7401H38.0046C38.0046 17.4476 38.044 17.2208 38.104 17.0459L36.2121 16.3973ZM36.0046 17.7401C36.0046 18.2089 36.0675 18.6611 36.2121 19.0828L38.104 18.4342C38.044 18.2594 38.0046 18.0325 38.0046 17.7401H36.0046ZM36.2149 19.0909C36.3683 19.5262 36.6136 19.9218 36.9761 20.2289L38.2689 18.7029C38.2223 18.6634 38.158 18.5874 38.1012 18.4262L36.2149 19.0909ZM36.9875 20.2385C37.3974 20.5753 37.8864 20.7216 38.3896 20.7216V18.7216C38.2847 18.7216 38.2624 18.6974 38.2575 18.6934L36.9875 20.2385ZM44.5984 12.2727H45.5984V11.2727H44.5984V12.2727ZM44.5984 21V22H45.5984V21H44.5984ZM42.783 21H41.783V22H42.783V21ZM42.783 12.2727V11.2727H41.783V12.2727H42.783ZM43.5984 12.2727V21H45.5984V12.2727H43.5984ZM44.5984 20H42.783V22H44.5984V20ZM43.783 21V12.2727H41.783V21H43.783ZM42.783 13.2727H44.5984V11.2727H42.783V13.2727ZM47.2926 20.706L46.7834 21.5666L46.7894 21.5701L47.2926 20.706ZM46.1804 19.5213L45.291 19.9784L45.292 19.9805L46.1804 19.5213ZM46.1804 15.9801L47.0688 16.4393L47.0698 16.4372L46.1804 15.9801ZM47.2926 14.7955L47.7981 15.6583L47.7996 15.6574L47.2926 14.7955ZM50.723 14.7955L50.2138 15.6561L50.2198 15.6596L50.723 14.7955ZM51.8395 15.9801L50.9501 16.4372L50.9511 16.4393L51.8395 15.9801ZM51.8395 19.5213L52.7278 19.9805L52.7289 19.9784L51.8395 19.5213ZM50.723 20.706L51.2285 21.5688L51.23 21.5679L50.723 20.706ZM49.7727 19.4659L50.4182 20.2297L50.4244 20.2244L49.7727 19.4659ZM50.2287 18.7585L49.2855 18.4262L49.2827 18.4342L50.2287 18.7585ZM50.2287 16.7216L49.2827 17.0459L49.2855 17.0539L50.2287 16.7216ZM48.2514 16.0142L47.6102 15.2468L47.605 15.2512L48.2514 16.0142ZM47.7869 16.7216L46.8437 16.3892L46.841 16.3973L47.7869 16.7216ZM47.7869 18.7585L46.841 19.0829L46.8438 19.0909L47.7869 18.7585ZM48.2514 19.4659L47.605 20.2289L47.6107 20.2337L47.6165 20.2385L48.2514 19.4659ZM49.0099 20.1278C48.492 20.1278 48.1 20.0189 47.7959 19.8418L46.7894 21.5701C47.4512 21.9555 48.204 22.1278 49.0099 22.1278V20.1278ZM47.8019 19.8453C47.4867 19.6589 47.2458 19.4047 47.0688 19.0622L45.292 19.9805C45.6377 20.6493 46.1383 21.1849 46.7834 21.5666L47.8019 19.8453ZM47.0698 19.0642C46.8927 18.7196 46.7884 18.2917 46.7884 17.7528H44.7884C44.7884 18.5549 44.9454 19.306 45.291 19.9784L47.0698 19.0642ZM46.7884 17.7528C46.7884 17.2066 46.8933 16.7787 47.0688 16.4393L45.292 15.521C44.9447 16.1929 44.7884 16.9468 44.7884 17.7528H46.7884ZM47.0698 16.4372C47.2468 16.0928 47.4866 15.8408 47.7981 15.6583L46.7872 13.9326C46.1384 14.3126 45.6367 14.8504 45.291 15.523L47.0698 16.4372ZM47.7996 15.6574C48.1031 15.4789 48.4937 15.3693 49.0099 15.3693V13.3693C48.2023 13.3693 47.4481 13.5438 46.7856 13.9335L47.7996 15.6574ZM49.0099 15.3693C49.5264 15.3693 49.9144 15.479 50.2138 15.6561L51.2323 13.9348C50.5714 13.5438 49.8174 13.3693 49.0099 13.3693V15.3693ZM50.2198 15.6596C50.5338 15.8425 50.7738 16.0943 50.9501 16.4372L52.7289 15.523C52.3824 14.8489 51.8781 14.3109 51.2262 13.9313L50.2198 15.6596ZM50.9511 16.4393C51.1266 16.7787 51.2315 17.2066 51.2315 17.7528H53.2315C53.2315 16.9468 53.0752 16.1929 52.7278 15.521L50.9511 16.4393ZM51.2315 17.7528C51.2315 18.2917 51.1272 18.7196 50.9501 19.0642L52.7289 19.9784C53.0745 19.306 53.2315 18.5549 53.2315 17.7528H51.2315ZM50.9511 19.0622C50.7749 19.4031 50.5337 19.6572 50.216 19.844L51.23 21.5679C51.8783 21.1866 52.3814 20.6509 52.7278 19.9805L50.9511 19.0622ZM50.2176 19.8431C49.9175 20.0189 49.5281 20.1278 49.0099 20.1278V22.1278C49.8157 22.1278 50.5683 21.9556 51.2285 21.5688L50.2176 19.8431ZM49.0185 20.7216C49.5207 20.7216 50.0108 20.5739 50.4182 20.2297L49.1273 18.7021C49.1226 18.706 49.1195 18.708 49.1118 18.7106C49.1024 18.7138 49.0743 18.7216 49.0185 18.7216V20.7216ZM50.4244 20.2244C50.7843 19.9152 51.0254 19.518 51.1746 19.0828L49.2827 18.4342C49.2274 18.5956 49.1646 18.67 49.1211 18.7074L50.4244 20.2244ZM51.1718 19.0909C51.3214 18.6666 51.3864 18.2116 51.3864 17.7401H49.3864C49.3864 18.0299 49.3463 18.2539 49.2855 18.4262L51.1718 19.0909ZM51.3864 17.7401C51.3864 17.2685 51.3214 16.8135 51.1718 16.3892L49.2855 17.0539C49.3463 17.2262 49.3864 17.4502 49.3864 17.7401H51.3864ZM51.1746 16.3973C51.0254 15.9621 50.7843 15.5649 50.4244 15.2557L49.1211 16.7727C49.1646 16.8101 49.2274 16.8845 49.2827 17.0459L51.1746 16.3973ZM50.4244 15.2557C50.0173 14.9059 49.525 14.7543 49.0185 14.7543V16.7543C49.0726 16.7543 49.0991 16.7619 49.1071 16.7647C49.1133 16.7668 49.116 16.7684 49.1211 16.7727L50.4244 15.2557ZM49.0185 14.7543C48.5112 14.7543 48.02 14.9044 47.6102 15.2468L48.8926 16.7816C48.8977 16.7774 48.9178 16.7543 49.0185 16.7543V14.7543ZM47.605 15.2512C47.2425 15.5583 46.9972 15.9539 46.8438 16.3892L48.7301 17.0539C48.7869 16.8927 48.8512 16.8167 48.8978 16.7772L47.605 15.2512ZM46.841 16.3973C46.6964 16.819 46.6335 17.2712 46.6335 17.7401H48.6335C48.6335 17.4476 48.6729 17.2208 48.7329 17.0459L46.841 16.3973ZM46.6335 17.7401C46.6335 18.2089 46.6964 18.6611 46.841 19.0828L48.7329 18.4342C48.6729 18.2594 48.6335 18.0325 48.6335 17.7401H46.6335ZM46.8438 19.0909C46.9972 19.5262 47.2425 19.9218 47.605 20.2289L48.8978 18.7029C48.8512 18.6634 48.7869 18.5874 48.7301 18.4262L46.8438 19.0909ZM47.6165 20.2385C48.0263 20.5753 48.5153 20.7216 49.0185 20.7216V18.7216C48.9136 18.7216 48.8913 18.6974 48.8864 18.6934L47.6165 20.2385ZM53.4119 21H52.4119V22H53.4119V21ZM53.4119 14.4545V13.4545H52.4119V14.4545H53.4119ZM55.1719 14.4545H56.1719V13.4545H55.1719V14.4545ZM55.1719 15.5966H54.1719V16.5966H55.1719V15.5966ZM55.2401 15.5966V16.5966H55.9886L56.1995 15.8784L55.2401 15.5966ZM55.8409 14.6761L56.4344 15.481L56.4396 15.4771L55.8409 14.6761ZM57.1065 14.3778L57.214 13.3836L57.214 13.3836L57.1065 14.3778ZM57.3835 14.4247H58.3835V13.6439L57.6261 13.4546L57.3835 14.4247ZM57.3835 16.0355L57.0962 16.9933L58.3835 17.3795V16.0355H57.3835ZM55.9006 16.1122L56.3811 16.9892L56.3852 16.9869L55.9006 16.1122ZM55.4062 16.5895L54.5477 16.0767L54.5425 16.0856L55.4062 16.5895ZM55.2273 21V22H56.2273V21H55.2273ZM54.4119 21V14.4545H52.4119V21H54.4119ZM53.4119 15.4545H55.1719V13.4545H53.4119V15.4545ZM54.1719 14.4545V15.5966H56.1719V14.4545H54.1719ZM55.1719 16.5966H55.2401V14.5966H55.1719V16.5966ZM56.1995 15.8784C56.2707 15.6362 56.3637 15.5331 56.4344 15.481L55.2474 13.8713C54.7556 14.234 54.4481 14.7445 54.2806 15.3148L56.1995 15.8784ZM56.4396 15.4771C56.5401 15.402 56.6517 15.3608 56.8125 15.3608V13.3608C56.2403 13.3608 55.7042 13.5298 55.2422 13.8752L56.4396 15.4771ZM56.8125 15.3608C56.8623 15.3608 56.924 15.3639 56.9991 15.372L57.214 13.3836C57.0788 13.369 56.9445 13.3608 56.8125 13.3608V15.3608ZM56.9991 15.372C57.0709 15.3798 57.1164 15.3887 57.141 15.3949L57.6261 13.4546C57.4915 13.4209 57.3524 13.3986 57.214 13.3836L56.9991 15.372ZM56.3835 14.4247V16.0355H58.3835V14.4247H56.3835ZM57.6709 15.0777C57.5112 15.0298 57.3329 14.9987 57.1608 14.9759L56.8989 16.9587C56.9595 16.9667 57.0066 16.9744 57.0419 16.9812C57.0593 16.9846 57.0726 16.9875 57.0822 16.9897C57.0919 16.9921 57.0962 16.9934 57.0962 16.9933L57.6709 15.0777ZM57.1608 14.9759C56.9757 14.9515 56.7934 14.9375 56.6165 14.9375V16.9375C56.6896 16.9375 56.7829 16.9434 56.8989 16.9587L57.1608 14.9759ZM56.6165 14.9375C56.1991 14.9375 55.7904 15.03 55.4159 15.2375L56.3852 16.9869C56.4312 16.9615 56.4998 16.9375 56.6165 16.9375V14.9375ZM55.42 15.2352C55.0552 15.4351 54.7605 15.7205 54.5477 16.0767L56.2648 17.1022C56.2964 17.0494 56.3311 17.0166 56.3811 16.9892L55.42 15.2352ZM54.5425 16.0856C54.323 16.4619 54.2273 16.8759 54.2273 17.2969H56.2273C56.2273 17.1838 56.2509 17.1262 56.27 17.0934L54.5425 16.0856ZM54.2273 17.2969V21H56.2273V17.2969H54.2273ZM55.2273 20H53.4119V22H55.2273V20Z" fill="black" mask="url(#path-2-outside-1_5_22)"/>
</g>
</svg>
