<svg width="32" height="32" viewBox="0 0 32 32" fill="none" xmlns="http://www.w3.org/2000/svg">
<rect x="0.5" y="0.5" width="31" height="31" fill="white"/>
<rect x="0.5" y="0.5" width="31" height="31" stroke="#ECD9D9" stroke-linejoin="round"/>
<path d="M17.7784 13C17.7405 12.5265 17.563 12.1572 17.2457 11.892C16.9332 11.6269 16.4574 11.4943 15.8182 11.4943C15.411 11.4943 15.0772 11.544 14.8168 11.6435C14.5611 11.7382 14.3717 11.8684 14.2486 12.0341C14.1255 12.1998 14.0616 12.3892 14.0568 12.6023C14.0473 12.7775 14.0781 12.9361 14.1491 13.0781C14.2249 13.2154 14.3433 13.3409 14.5043 13.4545C14.6652 13.5634 14.8712 13.6629 15.1222 13.7528C15.3731 13.8428 15.6714 13.9233 16.017 13.9943L17.2102 14.25C18.0152 14.4205 18.7041 14.6454 19.277 14.9247C19.8499 15.2041 20.3187 15.5331 20.6832 15.9119C21.0478 16.286 21.3153 16.7074 21.4858 17.1761C21.661 17.6449 21.7509 18.1562 21.7557 18.7102C21.7509 19.6667 21.5118 20.4763 21.0384 21.1392C20.5649 21.8021 19.8878 22.3063 19.0071 22.652C18.1312 22.9976 17.0777 23.1705 15.8466 23.1705C14.5824 23.1705 13.4792 22.9834 12.5369 22.6094C11.5994 22.2353 10.8703 21.66 10.3494 20.8835C9.83333 20.1023 9.57292 19.1032 9.56818 17.8864H13.3182C13.3419 18.3314 13.4531 18.7055 13.652 19.0085C13.8509 19.3116 14.1302 19.5412 14.4901 19.6974C14.8546 19.8537 15.2879 19.9318 15.7898 19.9318C16.2112 19.9318 16.5639 19.8797 16.848 19.7756C17.1321 19.6714 17.3475 19.527 17.4943 19.3423C17.6411 19.1577 17.7169 18.947 17.7216 18.7102C17.7169 18.4877 17.6435 18.2936 17.5014 18.1278C17.3641 17.9574 17.1368 17.8059 16.8196 17.6733C16.5024 17.536 16.0739 17.4081 15.5341 17.2898L14.0852 16.9773C12.7973 16.6979 11.7817 16.2315 11.0384 15.5781C10.2997 14.92 9.93277 14.0227 9.9375 12.8864C9.93277 11.9631 10.179 11.1558 10.6761 10.4645C11.178 9.76847 11.8717 9.22633 12.7571 8.83807C13.6473 8.44981 14.6676 8.25568 15.8182 8.25568C16.9924 8.25568 18.008 8.45218 18.8651 8.84517C19.7221 9.23816 20.3826 9.79214 20.8466 10.5071C21.3153 11.2173 21.5521 12.0483 21.5568 13H17.7784Z" fill="black"/>
<path d="M17 16H25" stroke="black"/>
<path d="M7 16L15 16" stroke="black"/>
</svg>
