<svg width="32" height="32" viewBox="0 0 32 32" fill="none" xmlns="http://www.w3.org/2000/svg">
<rect x="0.5" y="0.5" width="31" height="31" fill="white"/>
<rect x="0.5" y="0.5" width="31" height="31" stroke="#ECD9D9" stroke-linejoin="round"/>
<path d="M11.75 22V10.3636H16.7955C17.6818 10.3636 18.4261 10.483 19.0284 10.7216C19.6345 10.9602 20.0909 11.2973 20.3977 11.733C20.7083 12.1686 20.8636 12.6818 20.8636 13.2727C20.8636 13.7008 20.7689 14.0909 20.5795 14.4432C20.3939 14.7955 20.1326 15.0909 19.7955 15.3295C19.4583 15.5644 19.0644 15.7273 18.6136 15.8182V15.9318C19.1136 15.9508 19.5682 16.0777 19.9773 16.3125C20.3864 16.5436 20.7121 16.8636 20.9545 17.2727C21.197 17.678 21.3182 18.1553 21.3182 18.7045C21.3182 19.3409 21.1515 19.9072 20.8182 20.4034C20.4886 20.8996 20.0189 21.2898 19.4091 21.5739C18.7992 21.858 18.072 22 17.2273 22H11.75ZM14.9091 19.4773H16.3864C16.9167 19.4773 17.3144 19.3788 17.5795 19.1818C17.8447 18.9811 17.9773 18.6856 17.9773 18.2955C17.9773 18.0227 17.9148 17.7917 17.7898 17.6023C17.6648 17.4129 17.4867 17.2689 17.2557 17.1705C17.0284 17.072 16.7538 17.0227 16.4318 17.0227H14.9091V19.4773ZM14.9091 15.0682H16.2045C16.4811 15.0682 16.7254 15.0246 16.9375 14.9375C17.1496 14.8504 17.3144 14.7254 17.4318 14.5625C17.553 14.3958 17.6136 14.1932 17.6136 13.9545C17.6136 13.5947 17.4848 13.3201 17.2273 13.1307C16.9697 12.9375 16.6439 12.8409 16.25 12.8409H14.9091V15.0682Z" fill="black"/>
</svg>
