<svg width="32" height="32" viewBox="0 0 32 32" fill="none" xmlns="http://www.w3.org/2000/svg">
<rect x="0.5" y="0.5" width="31" height="31" fill="white"/>
<rect x="0.5" y="0.5" width="31" height="31" stroke="#ECD9D9" stroke-linejoin="round"/>
<path d="M17.6364 10.3636H20.7955V17.8182C20.7955 18.7045 20.5833 19.4716 20.1591 20.1193C19.7386 20.7633 19.1515 21.2614 18.3977 21.6136C17.6439 21.9621 16.7689 22.1364 15.7727 22.1364C14.7689 22.1364 13.8902 21.9621 13.1364 21.6136C12.3826 21.2614 11.7955 20.7633 11.375 20.1193C10.9583 19.4716 10.75 18.7045 10.75 17.8182V10.3636H13.9091V17.5455C13.9091 17.9053 13.9886 18.2273 14.1477 18.5114C14.3068 18.7917 14.5265 19.0114 14.8068 19.1705C15.0909 19.3295 15.4129 19.4091 15.7727 19.4091C16.1364 19.4091 16.4583 19.3295 16.7386 19.1705C17.0189 19.0114 17.2386 18.7917 17.3977 18.5114C17.5568 18.2273 17.6364 17.9053 17.6364 17.5455V10.3636Z" fill="black"/>
<path d="M8 24H16" stroke="black"/>
<path d="M16 24H24" stroke="black"/>
</svg>
