<svg width="32" height="32" viewBox="0 0 32 32" fill="none" xmlns="http://www.w3.org/2000/svg">
<rect x="0.5" y="-0.5" width="31" height="31" transform="matrix(-1 0 0 1 32 1)" fill="white"/>
<rect x="0.5" y="-0.5" width="31" height="31" transform="matrix(-1 0 0 1 32 1)" stroke="#ECD9D9" stroke-linejoin="round"/>
<path d="M22.7086 15.3252C23.0983 15.7165 23.097 16.3497 22.7057 16.7394L16.3286 23.0903C15.9373 23.48 15.3041 23.4787 14.9144 23.0874C14.5247 22.696 14.526 22.0629 14.9173 21.6732L20.5858 16.028L14.9406 10.3595C14.5509 9.96814 14.5522 9.33498 14.9435 8.94526C15.3348 8.55554 15.968 8.55684 16.3577 8.94817L22.7086 15.3252ZM7.00206 15L22.0021 15.0309L21.998 17.0309L6.99794 17L7.00206 15Z" fill="black"/>
</svg>
