<svg width="32" height="32" viewBox="0 0 32 32" fill="none" xmlns="http://www.w3.org/2000/svg">
<g clip-path="url(#clip0_1_85)">
<rect x="1" y="1" width="30" height="30" fill="white"/>
<path d="M0 20.5294L8.0678 11L34 29" stroke="black" stroke-linejoin="round"/>
<circle cx="23.5" cy="10.5" r="3" fill="#FBF339" stroke="black"/>
<path d="M2.49716 28V22.5455H4.45739V28H2.49716ZM3.47727 21.9773C3.21212 21.9773 2.98485 21.8897 2.79545 21.7145C2.60606 21.5393 2.51136 21.3286 2.51136 21.0824C2.51136 20.8362 2.60606 20.6255 2.79545 20.4503C2.98485 20.2751 3.21212 20.1875 3.47727 20.1875C3.74479 20.1875 3.97206 20.2751 4.15909 20.4503C4.34848 20.6255 4.44318 20.8362 4.44318 21.0824C4.44318 21.3286 4.34848 21.5393 4.15909 21.7145C3.97206 21.8897 3.74479 21.9773 3.47727 21.9773ZM5.45614 28V22.5455H7.31694V23.5824H7.37376C7.48739 23.2415 7.68152 22.9716 7.95614 22.7727C8.23076 22.5739 8.55747 22.4744 8.93626 22.4744C9.31978 22.4744 9.65004 22.5762 9.92702 22.7798C10.204 22.9811 10.3709 23.2486 10.4277 23.5824H10.4846C10.5769 23.2486 10.7734 22.9811 11.074 22.7798C11.3747 22.5762 11.7275 22.4744 12.1323 22.4744C12.6555 22.4744 13.0792 22.6425 13.4036 22.9787C13.7303 23.3149 13.8936 23.7623 13.8936 24.321V28H11.9334V24.8182C11.9334 24.5791 11.873 24.392 11.7523 24.2571C11.6316 24.1198 11.4694 24.0511 11.2658 24.0511C11.0646 24.0511 10.9048 24.1198 10.7864 24.2571C10.6704 24.392 10.6124 24.5791 10.6124 24.8182V28H8.73739V24.8182C8.73739 24.5791 8.67702 24.392 8.55629 24.2571C8.43555 24.1198 8.27338 24.0511 8.06978 24.0511C7.93484 24.0511 7.81883 24.0819 7.72177 24.1435C7.6247 24.205 7.54895 24.2938 7.4945 24.4098C7.44241 24.5234 7.41637 24.6596 7.41637 24.8182V28H5.45614ZM17.4883 30.1591C16.9414 30.1591 16.4727 30.081 16.082 29.9247C15.6938 29.7708 15.3919 29.5578 15.1765 29.2855C14.9634 29.0156 14.8439 28.7055 14.8178 28.3551H16.707C16.726 28.4711 16.7733 28.5646 16.8491 28.6357C16.9248 28.7067 17.0219 28.7576 17.1403 28.7884C17.261 28.8215 17.396 28.8381 17.5451 28.8381C17.7984 28.8381 18.0079 28.7765 18.1737 28.6534C18.3417 28.5303 18.4258 28.3078 18.4258 27.9858V27.0625H18.369C18.2979 27.2472 18.189 27.4046 18.0423 27.5348C17.8955 27.6626 17.7191 27.7609 17.5131 27.8295C17.3072 27.8958 17.0811 27.929 16.8349 27.929C16.4466 27.929 16.0891 27.839 15.7624 27.6591C15.4381 27.4792 15.1777 27.1939 14.9812 26.8033C14.7871 26.4126 14.69 25.9025 14.69 25.2727C14.69 24.6146 14.7918 24.0795 14.9954 23.6676C15.2013 23.2557 15.4665 22.9538 15.7908 22.7621C16.1175 22.5703 16.4608 22.4744 16.8207 22.4744C17.0906 22.4744 17.3273 22.5218 17.5309 22.6165C17.7345 22.7088 17.9049 22.8331 18.0423 22.9893C18.1796 23.1432 18.2837 23.3125 18.3548 23.4972H18.3974V22.5455H20.3576V27.9858C20.3576 28.4474 20.238 28.8393 19.9989 29.1612C19.7622 29.4856 19.4284 29.733 18.9975 29.9034C18.5666 30.0739 18.0636 30.1591 17.4883 30.1591ZM17.5593 26.5369C17.7392 26.5369 17.8931 26.4872 18.021 26.3878C18.1512 26.286 18.2506 26.1416 18.3192 25.9545C18.3903 25.7652 18.4258 25.5379 18.4258 25.2727C18.4258 25.0028 18.3903 24.772 18.3192 24.5803C18.2506 24.3861 18.1512 24.2382 18.021 24.1364C17.8931 24.0322 17.7392 23.9801 17.5593 23.9801C17.3794 23.9801 17.2255 24.0322 17.0977 24.1364C16.9722 24.2382 16.8751 24.3861 16.8065 24.5803C16.7402 24.772 16.707 25.0028 16.707 25.2727C16.707 25.5426 16.7402 25.7723 16.8065 25.9616C16.8751 26.1487 16.9722 26.2919 17.0977 26.3913C17.2255 26.4884 17.3794 26.5369 17.5593 26.5369Z" fill="black"/>
</g>
<rect x="0.5" y="0.5" width="31" height="31" stroke="#ECD9D9" stroke-linejoin="round"/>
<defs>
<clipPath id="clip0_1_85">
<rect x="1" y="1" width="30" height="30" fill="white"/>
</clipPath>
</defs>
</svg>
