<svg width="72" height="32" viewBox="0 0 72 32" fill="none" xmlns="http://www.w3.org/2000/svg">
<rect x="0.5" y="0.5" width="71" height="31" fill="white"/>
<rect x="0.5" y="0.5" width="71" height="31" stroke="#ECD9D9" stroke-linejoin="round"/>
<g style="mix-blend-mode:darken">
<mask id="path-2-outside-1_5_18" maskUnits="userSpaceOnUse" x="23" y="10" width="26" height="13" fill="black">
<rect fill="white" x="23" y="10" width="26" height="13"/>
<path d="M30.2466 16.321L28.5847 16.4233C28.5563 16.2812 28.4952 16.1534 28.4015 16.0398C28.3077 15.9233 28.1841 15.831 28.0307 15.7628C27.8801 15.6918 27.6998 15.6562 27.4895 15.6562C27.2083 15.6562 26.9711 15.7159 26.7779 15.8352C26.5847 15.9517 26.4881 16.108 26.4881 16.304C26.4881 16.4602 26.5506 16.5923 26.6756 16.7003C26.8006 16.8082 27.0151 16.8949 27.3191 16.9602L28.5037 17.1989C29.1401 17.3295 29.6145 17.5398 29.927 17.8295C30.2395 18.1193 30.3958 18.5 30.3958 18.9716C30.3958 19.4006 30.2694 19.777 30.0165 20.1009C29.7665 20.4247 29.4228 20.6776 28.9853 20.8594C28.5506 21.0384 28.0492 21.1278 27.481 21.1278C26.6145 21.1278 25.9242 20.9474 25.41 20.5866C24.8986 20.223 24.5989 19.7287 24.5108 19.1037L26.2963 19.0099C26.3503 19.2741 26.481 19.4759 26.6884 19.6151C26.8958 19.7514 27.1614 19.8196 27.4853 19.8196C27.8034 19.8196 28.0591 19.7585 28.2523 19.6364C28.4483 19.5114 28.5478 19.3509 28.5506 19.1548C28.5478 18.9901 28.4782 18.8551 28.3418 18.75C28.2054 18.642 27.9952 18.5597 27.7111 18.5028L26.5776 18.277C25.9384 18.1491 25.4625 17.9276 25.15 17.6122C24.8404 17.2969 24.6855 16.8949 24.6855 16.4062C24.6855 15.9858 24.7992 15.6236 25.0265 15.3196C25.2566 15.0156 25.579 14.7812 25.9938 14.6165C26.4114 14.4517 26.9 14.3693 27.4597 14.3693C28.2864 14.3693 28.937 14.544 29.4114 14.8935C29.8887 15.2429 30.1671 15.7187 30.2466 16.321ZM31.5389 21V14.4545H33.3542V21H31.5389ZM32.4508 13.6108C32.1809 13.6108 31.9494 13.5213 31.7562 13.3423C31.5659 13.1605 31.4707 12.9432 31.4707 12.6903C31.4707 12.4403 31.5659 12.2259 31.7562 12.0469C31.9494 11.8651 32.1809 11.7741 32.4508 11.7741C32.7207 11.7741 32.9508 11.8651 33.1412 12.0469C33.3343 12.2259 33.4309 12.4403 33.4309 12.6903C33.4309 12.9432 33.3343 13.1605 33.1412 13.3423C32.9508 13.5213 32.7207 13.6108 32.4508 13.6108ZM34.7743 21V19.9176L37.9789 15.9503V15.9034H34.8851V14.4545H40.165V15.6349L37.1564 19.5043V19.5511H40.2757V21H34.7743ZM44.4593 21.1278C43.786 21.1278 43.2065 20.9915 42.7207 20.7188C42.2377 20.4432 41.8656 20.054 41.6042 19.5511C41.3429 19.0455 41.2122 18.4474 41.2122 17.7571C41.2122 17.0838 41.3429 16.4929 41.6042 15.9844C41.8656 15.4759 42.2335 15.0795 42.7079 14.7955C43.1852 14.5114 43.7449 14.3693 44.3869 14.3693C44.8187 14.3693 45.2207 14.4389 45.5929 14.5781C45.9679 14.7145 46.2946 14.9205 46.573 15.196C46.8542 15.4716 47.073 15.8182 47.2292 16.2358C47.3855 16.6506 47.4636 17.1364 47.4636 17.6932V18.1918H41.9366V17.0668H45.7548C45.7548 16.8054 45.698 16.5739 45.5843 16.3722C45.4707 16.1705 45.313 16.0128 45.1113 15.8991C44.9125 15.7827 44.6809 15.7244 44.4167 15.7244C44.1412 15.7244 43.8968 15.7884 43.6838 15.9162C43.4735 16.0412 43.3088 16.2102 43.1895 16.4233C43.0701 16.6335 43.0091 16.8679 43.0062 17.1264V18.196C43.0062 18.5199 43.0659 18.7997 43.1852 19.0355C43.3074 19.2713 43.4792 19.4531 43.7008 19.581C43.9224 19.7088 44.1852 19.7727 44.4892 19.7727C44.6909 19.7727 44.8755 19.7443 45.0431 19.6875C45.2108 19.6307 45.3542 19.5455 45.4735 19.4318C45.5929 19.3182 45.6838 19.179 45.7463 19.0142L47.4252 19.125C47.34 19.5284 47.1653 19.8807 46.9011 20.1818C46.6397 20.4801 46.3017 20.7131 45.8869 20.8807C45.475 21.0455 44.9991 21.1278 44.4593 21.1278Z"/>
</mask>
<path d="M30.2466 16.321L30.308 17.3191L31.3784 17.2533L31.238 16.1901L30.2466 16.321ZM28.5847 16.4233L27.6041 16.6194L27.7752 17.475L28.6461 17.4214L28.5847 16.4233ZM28.4015 16.0398L27.6224 16.6668L27.6301 16.6762L28.4015 16.0398ZM28.0307 15.7628L27.6041 16.6672L27.6143 16.672L27.6246 16.6766L28.0307 15.7628ZM26.7779 15.8352L27.2943 16.6917L27.3034 16.686L26.7779 15.8352ZM26.6756 16.7003L26.022 17.4571V17.4571L26.6756 16.7003ZM27.3191 16.9602L27.1089 17.938L27.1216 17.9405L27.3191 16.9602ZM28.5037 17.1989L28.7049 16.2193L28.7012 16.2186L28.5037 17.1989ZM29.927 17.8295L29.2471 18.5628L29.927 17.8295ZM30.0165 20.1009L29.2283 19.4855L29.2249 19.4898L30.0165 20.1009ZM28.9853 20.8594L29.366 21.7841L29.369 21.7828L28.9853 20.8594ZM25.41 20.5866L24.8304 21.4016L24.8356 21.4052L25.41 20.5866ZM24.5108 19.1037L24.4584 18.1051L23.3683 18.1623L23.5206 19.2432L24.5108 19.1037ZM26.2963 19.0099L27.2761 18.8098L27.1038 17.9662L26.2439 18.0113L26.2963 19.0099ZM26.6884 19.6151L26.131 20.4454L26.139 20.4506L26.6884 19.6151ZM28.2523 19.6364L28.7868 20.4816L28.79 20.4795L28.2523 19.6364ZM28.5506 19.1548L29.5505 19.1693L29.5507 19.1535L29.5505 19.1376L28.5506 19.1548ZM28.3418 18.75L27.721 19.5341L27.7313 19.542L28.3418 18.75ZM27.7111 18.5028L27.9072 17.5223L27.9065 17.5221L27.7111 18.5028ZM26.5776 18.277L26.3815 19.2576L26.3822 19.2577L26.5776 18.277ZM25.15 17.6122L24.4365 18.3129L24.4397 18.3161L25.15 17.6122ZM25.0265 15.3196L24.2291 14.716L24.2256 14.7208L25.0265 15.3196ZM25.9938 14.6165L25.6268 13.6863L25.6246 13.6871L25.9938 14.6165ZM29.4114 14.8935L28.8184 15.6986L28.8207 15.7003L29.4114 14.8935ZM30.1852 15.3229L28.5233 15.4252L28.6461 17.4214L30.308 17.3191L30.1852 15.3229ZM29.5653 16.2272C29.5039 15.9205 29.3697 15.642 29.1728 15.4034L27.6301 16.6762C27.6272 16.6726 27.6212 16.6644 27.6153 16.652C27.6093 16.6395 27.6058 16.6278 27.6041 16.6194L29.5653 16.2272ZM29.1805 15.4128C28.9753 15.1579 28.7175 14.9737 28.4369 14.849L27.6246 16.6766C27.6391 16.683 27.6429 16.6865 27.6399 16.6843C27.6386 16.6832 27.636 16.6812 27.6327 16.678C27.6294 16.6749 27.6259 16.6711 27.6224 16.6668L29.1805 15.4128ZM28.4573 14.8584C28.1431 14.7101 27.8097 14.6562 27.4895 14.6562V16.6562C27.5898 16.6562 27.6172 16.6734 27.6041 16.6672L28.4573 14.8584ZM27.4895 14.6562C27.0668 14.6562 26.6373 14.7467 26.2524 14.9844L27.3034 16.686C27.3049 16.6851 27.3497 16.6562 27.4895 16.6562V14.6562ZM26.2615 14.9788C25.8219 15.2439 25.4881 15.699 25.4881 16.304H27.4881C27.4881 16.3787 27.4671 16.475 27.4111 16.5656C27.3589 16.65 27.3032 16.6862 27.2942 16.6916L26.2615 14.9788ZM25.4881 16.304C25.4881 16.7692 25.6913 17.1715 26.022 17.4571L27.3292 15.9435C27.3585 15.9687 27.4033 16.0172 27.4389 16.0926C27.4752 16.1693 27.4881 16.2446 27.4881 16.304H25.4881ZM26.022 17.4571C26.3428 17.7342 26.762 17.8633 27.1089 17.9379L27.5292 15.9826C27.4156 15.9581 27.3442 15.935 27.3048 15.919C27.2617 15.9016 27.2828 15.9033 27.3292 15.9435L26.022 17.4571ZM27.1216 17.9405L28.3063 18.1792L28.7012 16.2186L27.5165 15.9799L27.1216 17.9405ZM28.3026 18.1784C28.8466 18.2901 29.1214 18.4463 29.2471 18.5628L30.607 17.0963C30.1077 16.6333 29.4336 16.3689 28.7049 16.2193L28.3026 18.1784ZM29.2471 18.5628C29.3326 18.6421 29.3958 18.7454 29.3958 18.9716H31.3958C31.3958 18.2546 31.1465 17.5966 30.607 17.0963L29.2471 18.5628ZM29.3958 18.9716C29.3958 19.1881 29.3375 19.3455 29.2283 19.4855L30.8047 20.7162C31.2012 20.2084 31.3958 19.613 31.3958 18.9716H29.3958ZM29.2249 19.4898C29.0971 19.6553 28.9039 19.8103 28.6015 19.9359L29.369 21.7828C29.9417 21.5448 30.4359 21.1941 30.8081 20.7119L29.2249 19.4898ZM28.6045 19.9347C28.313 20.0547 27.9452 20.1278 27.481 20.1278V22.1278C28.1532 22.1278 28.7882 22.022 29.366 21.7841L28.6045 19.9347ZM27.481 20.1278C26.7441 20.1278 26.2773 19.9736 25.9844 19.7681L24.8356 21.4052C25.5711 21.9213 26.4849 22.1278 27.481 22.1278V20.1278ZM25.9895 19.7717C25.7035 19.5683 25.551 19.319 25.501 18.9642L23.5206 19.2432C23.6468 20.1384 24.0937 20.8777 24.8305 21.4016L25.9895 19.7717ZM24.5633 20.1023L26.3488 20.0086L26.2439 18.0113L24.4584 18.1051L24.5633 20.1023ZM25.3166 19.2101C25.4185 19.7091 25.6871 20.1474 26.1311 20.4454L27.2457 18.7848C27.2466 18.7854 27.2511 18.7885 27.2573 18.7948C27.2636 18.8011 27.2694 18.8084 27.2741 18.8156C27.2787 18.8228 27.2807 18.8275 27.2809 18.8279C27.2809 18.8281 27.2787 18.8227 27.2761 18.8098L25.3166 19.2101ZM26.139 20.4506C26.5525 20.7225 27.0248 20.8196 27.4853 20.8196V18.8196C27.298 18.8196 27.2391 18.7803 27.2378 18.7795L26.139 20.4506ZM27.4853 20.8196C27.9214 20.8196 28.3826 20.7371 28.7868 20.4816L27.7178 18.7912C27.7357 18.7799 27.6855 18.8196 27.4853 18.8196V20.8196ZM28.79 20.4795C29.2087 20.2125 29.5418 19.7681 29.5505 19.1693L27.5507 19.1403C27.5518 19.0645 27.5744 18.9754 27.6238 18.8956C27.6461 18.8595 27.6689 18.8337 27.6863 18.8169C27.7033 18.8004 27.7145 18.7933 27.7146 18.7932L28.79 20.4795ZM29.5505 19.1376C29.5421 18.6534 29.317 18.2391 28.9523 17.958L27.7313 19.542C27.699 19.5171 27.6484 19.4676 27.6075 19.3884C27.566 19.308 27.5518 19.23 27.5508 19.1721L29.5505 19.1376ZM28.9625 17.966C28.6457 17.7151 28.2557 17.5919 27.9072 17.5223L27.515 19.4834C27.6147 19.5034 27.6793 19.5236 27.717 19.5383C27.7559 19.5535 27.7496 19.5566 27.7211 19.534L28.9625 17.966ZM27.9065 17.5221L26.773 17.2963L26.3822 19.2577L27.5157 19.4836L27.9065 17.5221ZM26.7737 17.2964C26.2431 17.1903 25.9814 17.0305 25.8603 16.9083L24.4397 18.3161C24.9436 18.8246 25.6337 19.108 26.3815 19.2576L26.7737 17.2964ZM25.8635 16.9116C25.7577 16.8038 25.6855 16.6631 25.6855 16.4062H23.6855C23.6855 17.1267 23.9231 17.79 24.4365 18.3129L25.8635 16.9116ZM25.6855 16.4062C25.6855 16.1772 25.7433 16.0309 25.8274 15.9184L24.2256 14.7208C23.8551 15.2163 23.6855 15.7944 23.6855 16.4062H25.6855ZM25.8238 15.9232C25.926 15.7881 26.0886 15.6548 26.363 15.5458L25.6246 13.6871C25.0694 13.9077 24.5871 14.2431 24.2291 14.716L25.8238 15.9232ZM26.3608 15.5467C26.6367 15.4379 26.9958 15.3693 27.4597 15.3693V13.3693C26.8043 13.3693 26.1861 13.4656 25.6268 13.6863L26.3608 15.5467ZM27.4597 15.3693C28.1567 15.3693 28.5727 15.5177 28.8184 15.6986L30.0044 14.0883C29.3012 13.5704 28.4161 13.3693 27.4597 13.3693V15.3693ZM28.8207 15.7003C29.0711 15.8837 29.2103 16.112 29.2552 16.452L31.238 16.1901C31.1238 15.3255 30.7062 14.6021 30.0021 14.0866L28.8207 15.7003ZM31.5389 21H30.5389V22H31.5389V21ZM31.5389 14.4545V13.4545H30.5389V14.4545H31.5389ZM33.3542 14.4545H34.3542V13.4545H33.3542V14.4545ZM33.3542 21V22H34.3542V21H33.3542ZM31.7562 13.3423L31.0655 14.0654L31.071 14.0707L31.0766 14.0759L31.7562 13.3423ZM31.7562 12.0469L32.4412 12.7754L32.4416 12.7751L31.7562 12.0469ZM33.1412 12.0469L32.4504 12.77L32.4559 12.7753L32.4615 12.7804L33.1412 12.0469ZM33.1412 13.3423L33.8262 14.0708L33.8265 14.0705L33.1412 13.3423ZM32.5389 21V14.4545H30.5389V21H32.5389ZM31.5389 15.4545H33.3542V13.4545H31.5389V15.4545ZM32.3542 14.4545V21H34.3542V14.4545H32.3542ZM33.3542 20H31.5389V22H33.3542V20ZM32.4508 12.6108C32.4388 12.6108 32.4326 12.6098 32.4313 12.6096C32.4301 12.6094 32.4318 12.6096 32.4353 12.6109C32.4388 12.6123 32.4414 12.6137 32.4426 12.6145C32.4437 12.6152 32.4414 12.6139 32.4358 12.6088L31.0766 14.0759C31.4597 14.4308 31.9358 14.6108 32.4508 14.6108V12.6108ZM32.4469 12.6192C32.4369 12.6097 32.4471 12.6167 32.4581 12.6418C32.4631 12.6533 32.4666 12.6648 32.4687 12.6749C32.4707 12.6849 32.4707 12.6905 32.4707 12.6903H30.4707C30.4707 13.2287 30.6867 13.7036 31.0655 14.0654L32.4469 12.6192ZM32.4707 12.6903C32.4707 12.6916 32.4705 12.6987 32.4682 12.7102C32.4658 12.7219 32.4618 12.7348 32.4561 12.7476C32.4438 12.7753 32.4321 12.7839 32.4412 12.7754L31.0712 11.3184C30.6901 11.6767 30.4707 12.1508 30.4707 12.6903H32.4707ZM32.4416 12.7751C32.4474 12.7696 32.4498 12.7682 32.4486 12.769C32.4473 12.7699 32.4443 12.7715 32.4402 12.7731C32.4362 12.7747 32.4337 12.7752 32.434 12.7752C32.4344 12.7751 32.4397 12.7741 32.4508 12.7741V10.7741C31.9311 10.7741 31.4531 10.9589 31.0708 11.3187L32.4416 12.7751ZM32.4508 12.7741C32.4565 12.7741 32.4605 12.7744 32.4631 12.7746C32.4656 12.7748 32.4668 12.7751 32.4669 12.7751C32.4669 12.7751 32.4661 12.7749 32.4644 12.7745C32.4628 12.774 32.4607 12.7733 32.4584 12.7724C32.4533 12.7704 32.4492 12.7681 32.4468 12.7665C32.4444 12.765 32.4457 12.7655 32.4504 12.77L33.8319 11.3238C33.4503 10.9593 32.9708 10.7741 32.4508 10.7741V12.7741ZM32.4615 12.7804C32.4716 12.7898 32.4596 12.7812 32.4467 12.7526C32.4407 12.7393 32.4364 12.7257 32.4338 12.7131C32.4312 12.7007 32.4309 12.6926 32.4309 12.6903H34.4309C34.4309 12.1456 34.206 11.6702 33.8208 11.3133L32.4615 12.7804ZM32.4309 12.6903C32.4309 12.6896 32.431 12.683 32.4333 12.6721C32.4355 12.661 32.4393 12.6488 32.4447 12.6368C32.4563 12.6107 32.4668 12.6038 32.4558 12.6141L33.8265 14.0705C34.2094 13.7102 34.4309 13.2338 34.4309 12.6903H32.4309ZM32.4561 12.6138C32.4517 12.618 32.4505 12.6184 32.4528 12.6169C32.4551 12.6154 32.4589 12.6134 32.4634 12.6117C32.4678 12.61 32.4703 12.6095 32.4696 12.6097C32.4687 12.6098 32.4629 12.6108 32.4508 12.6108V14.6108C32.966 14.6108 33.4437 14.4305 33.8262 14.0708L32.4561 12.6138ZM34.7743 21H33.7743V22H34.7743V21ZM34.7743 19.9176L33.9964 19.2893L33.7743 19.5642V19.9176H34.7743ZM37.9789 15.9503L38.7568 16.5786L38.9789 16.3037V15.9503H37.9789ZM37.9789 15.9034H38.9789V14.9034H37.9789V15.9034ZM34.8851 15.9034H33.8851V16.9034H34.8851V15.9034ZM34.8851 14.4545V13.4545H33.8851V14.4545H34.8851ZM40.165 14.4545H41.165V13.4545H40.165V14.4545ZM40.165 15.6349L40.9544 16.2488L41.165 15.978V15.6349H40.165ZM37.1564 19.5043L36.367 18.8904L36.1564 19.1612V19.5043H37.1564ZM37.1564 19.5511H36.1564V20.5511H37.1564V19.5511ZM40.2757 19.5511H41.2757V18.5511H40.2757V19.5511ZM40.2757 21V22H41.2757V21H40.2757ZM35.7743 21V19.9176H33.7743V21H35.7743ZM35.5522 20.546L38.7568 16.5786L37.2009 15.3219L33.9964 19.2893L35.5522 20.546ZM38.9789 15.9503V15.9034H36.9789V15.9503H38.9789ZM37.9789 14.9034H34.8851V16.9034H37.9789V14.9034ZM35.8851 15.9034V14.4545H33.8851V15.9034H35.8851ZM34.8851 15.4545H40.165V13.4545H34.8851V15.4545ZM39.165 14.4545V15.6349H41.165V14.4545H39.165ZM39.3755 15.0211L36.367 18.8904L37.9459 20.1181L40.9544 16.2488L39.3755 15.0211ZM36.1564 19.5043V19.5511H38.1564V19.5043H36.1564ZM37.1564 20.5511H40.2757V18.5511H37.1564V20.5511ZM39.2757 19.5511V21H41.2757V19.5511H39.2757ZM40.2757 20H34.7743V22H40.2757V20ZM42.7207 20.7188L42.2251 21.5873L42.2312 21.5907L42.7207 20.7188ZM41.6042 19.5511L40.7159 20.0103L40.7169 20.0123L41.6042 19.5511ZM41.6042 15.9844L40.7148 15.5273L41.6042 15.9844ZM42.7079 14.7955L42.1964 13.9362L42.1942 13.9375L42.7079 14.7955ZM45.5929 14.5781L45.2425 15.5148L45.2511 15.5179L45.5929 14.5781ZM46.573 15.196L45.8695 15.9068L45.8731 15.9103L46.573 15.196ZM47.2292 16.2358L46.2926 16.5862L46.2934 16.5883L47.2292 16.2358ZM47.4636 18.1918V19.1918H48.4636V18.1918H47.4636ZM41.9366 18.1918H40.9366V19.1918H41.9366V18.1918ZM41.9366 17.0668V16.0668H40.9366V17.0668H41.9366ZM45.7548 17.0668V18.0668H46.7548V17.0668H45.7548ZM45.5843 16.3722L44.7131 16.863V16.863L45.5843 16.3722ZM45.1113 15.8991L44.6059 16.762L44.6132 16.7663L44.6205 16.7704L45.1113 15.8991ZM43.6838 15.9162L44.1949 16.7757L44.1983 16.7737L43.6838 15.9162ZM43.1895 16.4233L44.0592 16.9169L44.062 16.9119L43.1895 16.4233ZM43.0062 17.1264L42.0062 17.1154V17.1264H43.0062ZM43.1852 19.0355L42.2929 19.487L42.2973 19.4955L43.1852 19.0355ZM45.0431 19.6875L44.7221 18.7404L45.0431 19.6875ZM45.4735 19.4318L44.7839 18.7077V18.7077L45.4735 19.4318ZM45.7463 19.0142L45.8121 18.0164L45.0737 17.9676L44.8113 18.6595L45.7463 19.0142ZM47.4252 19.125L48.4037 19.3317L48.6421 18.2031L47.4911 18.1272L47.4252 19.125ZM46.9011 20.1818L46.1494 19.5223L46.149 19.5228L46.9011 20.1818ZM45.8869 20.8807L46.2583 21.8092L46.2616 21.8078L45.8869 20.8807ZM44.4593 20.1278C43.9219 20.1278 43.5183 20.0197 43.2102 19.8468L42.2312 21.5907C42.8947 21.9633 43.6502 22.1278 44.4593 22.1278V20.1278ZM43.2163 19.8502C42.9037 19.6718 42.666 19.4256 42.4915 19.0899L40.7169 20.0123C41.0652 20.6823 41.5718 21.2145 42.2251 21.5873L43.2163 19.8502ZM42.4926 19.092C42.3186 18.7554 42.2122 18.3213 42.2122 17.7571H40.2122C40.2122 18.5736 40.3671 19.3356 40.7159 20.0103L42.4926 19.092ZM42.2122 17.7571C42.2122 17.2146 42.3168 16.7855 42.4936 16.4415L40.7148 15.5273C40.3689 16.2003 40.2122 16.953 40.2122 17.7571H42.2122ZM42.4936 16.4415C42.6727 16.0931 42.913 15.8382 43.2217 15.6534L42.1942 13.9375C41.5539 14.3209 41.0585 14.8586 40.7148 15.5273L42.4936 16.4415ZM43.2194 15.6547C43.5192 15.4763 43.8964 15.3693 44.3869 15.3693V13.3693C43.5933 13.3693 42.8512 13.5464 42.1964 13.9362L43.2194 15.6547ZM44.3869 15.3693C44.7095 15.3693 44.9918 15.421 45.2425 15.5147L45.9432 13.6415C45.4496 13.4569 44.9279 13.3693 44.3869 13.3693V15.3693ZM45.2511 15.5179C45.493 15.6059 45.6957 15.7347 45.8695 15.9067L47.2764 14.4853C46.8935 14.1062 46.4427 13.8231 45.9346 13.6383L45.2511 15.5179ZM45.8731 15.9103C46.0367 16.0706 46.1809 16.2876 46.2926 16.5862L48.1658 15.8854C47.9651 15.3488 47.6717 14.8726 47.2728 14.4817L45.8731 15.9103ZM46.2934 16.5883C46.3979 16.8657 46.4636 17.2272 46.4636 17.6932H48.4636C48.4636 17.0456 48.373 16.4355 48.165 15.8833L46.2934 16.5883ZM46.4636 17.6932V18.1918H48.4636V17.6932H46.4636ZM47.4636 17.1918H41.9366V19.1918H47.4636V17.1918ZM42.9366 18.1918V17.0668H40.9366V18.1918H42.9366ZM41.9366 18.0668H45.7548V16.0668H41.9366V18.0668ZM46.7548 17.0668C46.7548 16.656 46.6641 16.2513 46.4556 15.8813L44.7131 16.863C44.7319 16.8964 44.7548 16.9548 44.7548 17.0668H46.7548ZM46.4556 15.8813C46.2523 15.5204 45.963 15.2312 45.6022 15.0279L44.6205 16.7704C44.663 16.7944 44.6891 16.8205 44.7131 16.863L46.4556 15.8813ZM45.6167 15.0363C45.2433 14.8175 44.8322 14.7244 44.4167 14.7244V16.7244C44.5297 16.7244 44.5817 16.7478 44.6059 16.762L45.6167 15.0363ZM44.4167 14.7244C43.9802 14.7244 43.5543 14.8277 43.1693 15.0587L44.1983 16.7737C44.2394 16.749 44.3021 16.7244 44.4167 16.7244V14.7244ZM43.1727 15.0567C42.8118 15.2713 42.5222 15.5681 42.3169 15.9347L44.062 16.9119C44.0953 16.8523 44.1353 16.8111 44.1948 16.7757L43.1727 15.0567ZM42.3198 15.9297C42.1111 16.2974 42.0108 16.6997 42.0063 17.1154L44.0062 17.1374C44.0073 17.036 44.0292 16.9697 44.0591 16.9169L42.3198 15.9297ZM42.0062 17.1264V18.196H44.0062V17.1264H42.0062ZM42.0062 18.196C42.0062 18.6419 42.0886 19.0832 42.2929 19.487L44.0775 18.584C44.0432 18.5162 44.0062 18.3978 44.0062 18.196H42.0062ZM42.2973 19.4955C42.5038 19.8942 42.8074 20.22 43.2011 20.4472L44.2005 18.7148C44.151 18.6862 44.1109 18.6484 44.0731 18.5755L42.2973 19.4955ZM43.2011 20.4472C43.601 20.6779 44.0429 20.7727 44.4892 20.7727V18.7727C44.3275 18.7727 44.2438 18.7398 44.2005 18.7148L43.2011 20.4472ZM44.4892 20.7727C44.785 20.7727 45.0798 20.731 45.3642 20.6346L44.7221 18.7404C44.6712 18.7577 44.5967 18.7727 44.4892 18.7727V20.7727ZM45.3642 20.6346C45.659 20.5346 45.931 20.3771 46.1632 20.156L44.7839 18.7077C44.7774 18.7138 44.7625 18.7267 44.7221 18.7404L45.3642 20.6346ZM46.1632 20.156C46.3984 19.932 46.5694 19.6637 46.6813 19.3689L44.8113 18.6595C44.7981 18.6943 44.7874 18.7044 44.7839 18.7077L46.1632 20.156ZM45.6804 20.012L47.3594 20.1228L47.4911 18.1272L45.8121 18.0164L45.6804 20.012ZM46.4468 18.9183C46.396 19.1589 46.297 19.354 46.1494 19.5223L47.6528 20.8413C48.0336 20.4073 48.284 19.8979 48.4037 19.3317L46.4468 18.9183ZM46.149 19.5228C46.0033 19.6891 45.8007 19.837 45.5122 19.9535L46.2616 21.8078C46.8027 21.5892 47.2762 21.2711 47.6532 20.8408L46.149 19.5228ZM45.5155 19.9522C45.2443 20.0607 44.8987 20.1278 44.4593 20.1278V22.1278C45.0995 22.1278 45.7057 22.0302 46.2583 21.8092L45.5155 19.9522Z" fill="black" mask="url(#path-2-outside-1_5_18)"/>
</g>
</svg>
