<svg width="72" height="32" viewBox="0 0 72 32" fill="none" xmlns="http://www.w3.org/2000/svg">
<rect x="0.5" y="0.5" width="71" height="31" fill="white"/>
<rect x="0.5" y="0.5" width="71" height="31" stroke="#ECD9D9" stroke-linejoin="round"/>
<g style="mix-blend-mode:darken">
<mask id="path-2-outside-1_5_8" maskUnits="userSpaceOnUse" x="16" y="10" width="40" height="15" fill="black">
<rect fill="white" x="16" y="10" width="40" height="15"/>
<path d="M19.7019 17.2159V21H17.8865V12.2727H19.6507V15.6094H19.7275C19.8752 15.223 20.1138 14.9205 20.4434 14.7017C20.7729 14.4801 21.1863 14.3693 21.6834 14.3693C22.138 14.3693 22.5343 14.4688 22.8723 14.6676C23.2132 14.8636 23.4775 15.1463 23.665 15.5156C23.8553 15.8821 23.949 16.321 23.9462 16.8324V21H22.1309V17.1562C22.1337 16.7528 22.0314 16.4389 21.824 16.2145C21.6195 15.9901 21.3326 15.8778 20.9632 15.8778C20.7161 15.8778 20.4973 15.9304 20.307 16.0355C20.1195 16.1406 19.9718 16.294 19.8638 16.4957C19.7587 16.6946 19.7047 16.9347 19.7019 17.2159ZM28.3578 21.1278C27.6845 21.1278 27.1049 20.9915 26.6191 20.7188C26.1362 20.4432 25.764 20.054 25.5027 19.5511C25.2413 19.0455 25.1106 18.4474 25.1106 17.7571C25.1106 17.0838 25.2413 16.4929 25.5027 15.9844C25.764 15.4759 26.1319 15.0795 26.6064 14.7955C27.0836 14.5114 27.6433 14.3693 28.2853 14.3693C28.7172 14.3693 29.1191 14.4389 29.4913 14.5781C29.8663 14.7145 30.193 14.9205 30.4714 15.196C30.7527 15.4716 30.9714 15.8182 31.1277 16.2358C31.2839 16.6506 31.362 17.1364 31.362 17.6932V18.1918H25.835V17.0668H29.6532C29.6532 16.8054 29.5964 16.5739 29.4828 16.3722C29.3691 16.1705 29.2115 16.0128 29.0098 15.8991C28.8109 15.7827 28.5794 15.7244 28.3152 15.7244C28.0396 15.7244 27.7953 15.7884 27.5822 15.9162C27.372 16.0412 27.2072 16.2102 27.0879 16.4233C26.9686 16.6335 26.9075 16.8679 26.9047 17.1264V18.196C26.9047 18.5199 26.9643 18.7997 27.0836 19.0355C27.2058 19.2713 27.3777 19.4531 27.5993 19.581C27.8208 19.7088 28.0836 19.7727 28.3876 19.7727C28.5893 19.7727 28.774 19.7443 28.9416 19.6875C29.1092 19.6307 29.2527 19.5455 29.372 19.4318C29.4913 19.3182 29.5822 19.179 29.6447 19.0142L31.3237 19.125C31.2385 19.5284 31.0637 19.8807 30.7995 20.1818C30.5382 20.4801 30.2001 20.7131 29.7853 20.8807C29.3734 21.0455 28.8975 21.1278 28.3578 21.1278ZM32.5467 21V14.4545H34.362V21H32.5467ZM33.4586 13.6108C33.1887 13.6108 32.9572 13.5213 32.764 13.3423C32.5737 13.1605 32.4785 12.9432 32.4785 12.6903C32.4785 12.4403 32.5737 12.2259 32.764 12.0469C32.9572 11.8651 33.1887 11.7741 33.4586 11.7741C33.7285 11.7741 33.9586 11.8651 34.149 12.0469C34.3422 12.2259 34.4387 12.4403 34.4387 12.6903C34.4387 12.9432 34.3422 13.1605 34.149 13.3423C33.9586 13.5213 33.7285 13.6108 33.4586 13.6108ZM38.7651 23.5909C38.177 23.5909 37.6728 23.5099 37.2523 23.348C36.8347 23.1889 36.5023 22.9716 36.2551 22.696C36.008 22.4205 35.8475 22.1108 35.7736 21.767L37.4526 21.5412C37.5037 21.6719 37.5847 21.794 37.6955 21.9077C37.8063 22.0213 37.9526 22.1122 38.1344 22.1804C38.3191 22.2514 38.5435 22.2869 38.8077 22.2869C39.2026 22.2869 39.5279 22.1903 39.7836 21.9972C40.0421 21.8068 40.1713 21.4872 40.1713 21.0384V19.8409H40.0946C40.0151 20.0227 39.8958 20.1946 39.7367 20.3565C39.5776 20.5185 39.373 20.6506 39.123 20.7528C38.873 20.8551 38.5748 20.9062 38.2282 20.9062C37.7367 20.9062 37.2892 20.7926 36.8858 20.5653C36.4853 20.3352 36.1657 19.9844 35.927 19.5128C35.6912 19.0384 35.5733 18.4389 35.5733 17.7145C35.5733 16.973 35.6941 16.3537 35.9355 15.8565C36.177 15.3594 36.498 14.9872 36.8986 14.7401C37.302 14.4929 37.7438 14.3693 38.2239 14.3693C38.5904 14.3693 38.8972 14.4318 39.1444 14.5568C39.3915 14.679 39.5904 14.8324 39.7409 15.017C39.8944 15.1989 40.0123 15.3778 40.0946 15.554H40.1628V14.4545H41.9654V21.0639C41.9654 21.6207 41.829 22.0866 41.5563 22.4616C41.2836 22.8366 40.9057 23.1179 40.4228 23.3054C39.9426 23.4957 39.3901 23.5909 38.7651 23.5909ZM38.8034 19.5426C39.0961 19.5426 39.3432 19.4702 39.5449 19.3253C39.7495 19.1776 39.9057 18.9673 40.0137 18.6946C40.1245 18.419 40.1799 18.0895 40.1799 17.706C40.1799 17.3224 40.1259 16.9901 40.0179 16.7088C39.91 16.4247 39.7537 16.2045 39.5492 16.0483C39.3446 15.892 39.0961 15.8139 38.8034 15.8139C38.5051 15.8139 38.2537 15.8949 38.0492 16.0568C37.8446 16.2159 37.6898 16.4375 37.5847 16.7216C37.4796 17.0057 37.427 17.3338 37.427 17.706C37.427 18.0838 37.4796 18.4105 37.5847 18.6861C37.6926 18.9588 37.8475 19.1705 38.0492 19.321C38.2537 19.4687 38.5051 19.5426 38.8034 19.5426ZM45.2253 17.2159V21H43.41V12.2727H45.1742V15.6094H45.2509C45.3986 15.223 45.6373 14.9205 45.9668 14.7017C46.2963 14.4801 46.7097 14.3693 47.2069 14.3693C47.6614 14.3693 48.0577 14.4688 48.3958 14.6676C48.7367 14.8636 49.0009 15.1463 49.1884 15.5156C49.3787 15.8821 49.4725 16.321 49.4696 16.8324V21H47.6543V17.1562C47.6571 16.7528 47.5549 16.4389 47.3475 16.2145C47.1429 15.9901 46.856 15.8778 46.4867 15.8778C46.2395 15.8778 46.0208 15.9304 45.8304 16.0355C45.6429 16.1406 45.4952 16.294 45.3873 16.4957C45.2821 16.6946 45.2282 16.9347 45.2253 17.2159ZM54.3798 14.4545V15.8182H50.438V14.4545H54.3798ZM51.3329 12.8864H53.1483V18.9886C53.1483 19.1562 53.1738 19.2869 53.225 19.3807C53.2761 19.4716 53.3471 19.5355 53.438 19.5724C53.5318 19.6094 53.6397 19.6278 53.7619 19.6278C53.8471 19.6278 53.9324 19.6207 54.0176 19.6065C54.1028 19.5895 54.1681 19.5767 54.2136 19.5682L54.4991 20.919C54.4082 20.9474 54.2804 20.9801 54.1156 21.017C53.9508 21.0568 53.7505 21.081 53.5147 21.0895C53.0772 21.1065 52.6937 21.0483 52.3642 20.9148C52.0375 20.7812 51.7832 20.5739 51.6014 20.2926C51.4196 20.0114 51.3301 19.6562 51.3329 19.2273V12.8864Z"/>
</mask>
<path d="M19.7019 17.2159L18.7019 17.2058V17.2159H19.7019ZM19.7019 21V22H20.7019V21H19.7019ZM17.8865 21H16.8865V22H17.8865V21ZM17.8865 12.2727V11.2727H16.8865V12.2727H17.8865ZM19.6507 12.2727H20.6507V11.2727H19.6507V12.2727ZM19.6507 15.6094H18.6507V16.6094H19.6507V15.6094ZM19.7275 15.6094V16.6094H20.4157L20.6615 15.9665L19.7275 15.6094ZM20.4434 14.7017L20.9964 15.5349L21.0014 15.5315L20.4434 14.7017ZM22.8723 14.6676L22.3653 15.5296L22.3739 15.5345L22.8723 14.6676ZM23.665 15.5156L22.7732 15.9683L22.7775 15.9765L23.665 15.5156ZM23.9462 16.8324L22.9462 16.8268V16.8324H23.9462ZM23.9462 21V22H24.9462V21H23.9462ZM22.1309 21H21.1309V22H22.1309V21ZM22.1309 17.1562L21.1309 17.1492V17.1562H22.1309ZM21.824 16.2145L21.0849 16.8881L21.0896 16.8932L21.824 16.2145ZM20.307 16.0355L19.8236 15.1601L19.818 15.1632L20.307 16.0355ZM19.8638 16.4957L18.9821 16.0239L18.9797 16.0284L19.8638 16.4957ZM18.7019 17.2159V21H20.7019V17.2159H18.7019ZM19.7019 20H17.8865V22H19.7019V20ZM18.8865 21V12.2727H16.8865V21H18.8865ZM17.8865 13.2727H19.6507V11.2727H17.8865V13.2727ZM18.6507 12.2727V15.6094H20.6507V12.2727H18.6507ZM19.6507 16.6094H19.7275V14.6094H19.6507V16.6094ZM20.6615 15.9665C20.7385 15.7651 20.8486 15.633 20.9964 15.5349L19.8903 13.8686C19.3791 14.2079 19.0119 14.6809 18.7934 15.2522L20.6615 15.9665ZM21.0014 15.5315C21.1287 15.4459 21.3349 15.3693 21.6834 15.3693V13.3693C21.0377 13.3693 20.4171 13.5143 19.8854 13.8719L21.0014 15.5315ZM21.6834 15.3693C21.9884 15.3693 22.2039 15.4346 22.3653 15.5295L23.3794 13.8057C22.8646 13.5029 22.2875 13.3693 21.6834 13.3693V15.3693ZM22.3739 15.5345C22.537 15.6283 22.6689 15.7626 22.7733 15.9683L24.5566 15.0629C24.286 14.53 23.8895 14.0989 23.3708 13.8007L22.3739 15.5345ZM22.7775 15.9765C22.8773 16.1686 22.9484 16.4397 22.9462 16.8268L24.9462 16.8379C24.9497 16.2023 24.8333 15.5956 24.5524 15.0547L22.7775 15.9765ZM22.9462 16.8324V21H24.9462V16.8324H22.9462ZM23.9462 20H22.1309V22H23.9462V20ZM23.1309 21V17.1562H21.1309V21H23.1309ZM23.1308 17.1633C23.1349 16.5894 22.9876 16.0002 22.5585 15.5358L21.0896 16.8932C21.0899 16.8935 21.091 16.8946 21.093 16.8982C21.0952 16.902 21.1 16.9111 21.1055 16.928C21.1168 16.9629 21.1317 17.0321 21.1309 17.1492L23.1308 17.1633ZM22.5631 15.5409C22.1289 15.0644 21.5481 14.8778 20.9632 14.8778V16.8778C21.0474 16.8778 21.0844 16.8906 21.0912 16.8933C21.0946 16.8946 21.0935 16.8945 21.0901 16.8922C21.0866 16.8899 21.0848 16.8879 21.0849 16.8881L22.5631 15.5409ZM20.9632 14.8778C20.5704 14.8778 20.1812 14.9626 19.8236 15.1601L20.7904 16.9109C20.8135 16.8981 20.8617 16.8778 20.9632 16.8778V14.8778ZM19.818 15.1632C19.4532 15.3677 19.1741 15.6653 18.9821 16.0239L20.7455 16.9676C20.7695 16.9228 20.7858 16.9135 20.796 16.9078L19.818 15.1632ZM18.9797 16.0284C18.7837 16.3992 18.706 16.8042 18.7019 17.2058L20.7018 17.226C20.7035 17.0651 20.7337 16.99 20.7479 16.963L18.9797 16.0284ZM26.6191 20.7188L26.1235 21.5873L26.1296 21.5907L26.6191 20.7188ZM25.5027 19.5511L24.6143 20.0103L24.6154 20.0123L25.5027 19.5511ZM25.5027 15.9844L24.6133 15.5273L25.5027 15.9844ZM26.6064 14.7955L26.0949 13.9362L26.0926 13.9375L26.6064 14.7955ZM29.4913 14.5781L29.1409 15.5148L29.1496 15.5179L29.4913 14.5781ZM30.4714 15.196L29.7679 15.9068L29.7716 15.9103L30.4714 15.196ZM31.1277 16.2358L30.1911 16.5862L30.1919 16.5883L31.1277 16.2358ZM31.362 18.1918V19.1918H32.362V18.1918H31.362ZM25.8351 18.1918H24.8351V19.1918H25.8351V18.1918ZM25.8351 17.0668V16.0668H24.8351V17.0668H25.8351ZM29.6532 17.0668V18.0668H30.6532V17.0668H29.6532ZM29.4828 16.3722L28.6115 16.863L28.6115 16.863L29.4828 16.3722ZM29.0098 15.8991L28.5044 16.762L28.5116 16.7663L28.5189 16.7704L29.0098 15.8991ZM27.5822 15.9162L28.0933 16.7757L28.0967 16.7737L27.5822 15.9162ZM27.0879 16.4233L27.9576 16.9169L27.9604 16.9119L27.0879 16.4233ZM26.9047 17.1264L25.9047 17.1154V17.1264H26.9047ZM27.0836 19.0355L26.1913 19.487L26.1957 19.4955L27.0836 19.0355ZM28.9416 19.6875L28.6205 18.7404L28.9416 19.6875ZM29.372 19.4318L28.6823 18.7077L28.6823 18.7077L29.372 19.4318ZM29.6447 19.0142L29.7106 18.0164L28.9722 17.9676L28.7097 18.6595L29.6447 19.0142ZM31.3237 19.125L32.3021 19.3317L32.5405 18.2031L31.3895 18.1272L31.3237 19.125ZM30.7995 20.1818L30.0478 19.5223L30.0474 19.5228L30.7995 20.1818ZM29.7853 20.8807L30.1567 21.8092L30.16 21.8078L29.7853 20.8807ZM28.3578 20.1278C27.8203 20.1278 27.4167 20.0197 27.1087 19.8468L26.1296 21.5907C26.7932 21.9633 27.5487 22.1278 28.3578 22.1278V20.1278ZM27.1147 19.8502C26.8022 19.6718 26.5644 19.4256 26.39 19.0899L24.6154 20.0123C24.9636 20.6823 25.4702 21.2145 26.1236 21.5873L27.1147 19.8502ZM26.391 19.092C26.217 18.7554 26.1106 18.3213 26.1106 17.7571H24.1106C24.1106 18.5736 24.2656 19.3356 24.6143 20.0103L26.391 19.092ZM26.1106 17.7571C26.1106 17.2146 26.2153 16.7855 26.3921 16.4415L24.6133 15.5273C24.2673 16.2003 24.1106 16.953 24.1106 17.7571H26.1106ZM26.3921 16.4415C26.5711 16.0931 26.8115 15.8382 27.1201 15.6534L26.0926 13.9375C25.4524 14.3209 24.9569 14.8586 24.6133 15.5273L26.3921 16.4415ZM27.1178 15.6547C27.4176 15.4763 27.7948 15.3693 28.2853 15.3693V13.3693C27.4917 13.3693 26.7497 13.5464 26.0949 13.9362L27.1178 15.6547ZM28.2853 15.3693C28.6079 15.3693 28.8902 15.421 29.141 15.5147L29.8416 13.6415C29.3481 13.4569 28.8264 13.3693 28.2853 13.3693V15.3693ZM29.1496 15.5179C29.3915 15.6059 29.5941 15.7347 29.7679 15.9067L31.1749 14.4853C30.7919 14.1062 30.3411 13.8231 29.833 13.6383L29.1496 15.5179ZM29.7716 15.9103C29.9352 16.0706 30.0793 16.2876 30.1911 16.5862L32.0643 15.8854C31.8635 15.3488 31.5702 14.8726 31.1713 14.4817L29.7716 15.9103ZM30.1919 16.5883C30.2963 16.8657 30.362 17.2272 30.362 17.6932H32.362C32.362 17.0456 32.2715 16.4355 32.0635 15.8833L30.1919 16.5883ZM30.362 17.6932V18.1918H32.362V17.6932H30.362ZM31.362 17.1918H25.8351V19.1918H31.362V17.1918ZM26.8351 18.1918V17.0668H24.8351V18.1918H26.8351ZM25.8351 18.0668H29.6532V16.0668H25.8351V18.0668ZM30.6532 17.0668C30.6532 16.656 30.5625 16.2513 30.354 15.8813L28.6115 16.863C28.6303 16.8964 28.6532 16.9548 28.6532 17.0668H30.6532ZM30.354 15.8813C30.1507 15.5204 29.8615 15.2312 29.5006 15.0279L28.5189 16.7704C28.5615 16.7944 28.5876 16.8205 28.6115 16.863L30.354 15.8813ZM29.5152 15.0363C29.1417 14.8175 28.7306 14.7244 28.3152 14.7244V16.7244C28.4281 16.7244 28.4801 16.7478 28.5044 16.762L29.5152 15.0363ZM28.3152 14.7244C27.8787 14.7244 27.4527 14.8277 27.0677 15.0587L28.0967 16.7737C28.1378 16.749 28.2005 16.7244 28.3152 16.7244V14.7244ZM27.0711 15.0567C26.7102 15.2713 26.4207 15.5681 26.2154 15.9347L27.9604 16.9119C27.9938 16.8523 28.0338 16.8111 28.0933 16.7757L27.0711 15.0567ZM26.2182 15.9297C26.0095 16.2974 25.9093 16.6997 25.9047 17.1154L27.9046 17.1374C27.9057 17.036 27.9276 16.9697 27.9576 16.9169L26.2182 15.9297ZM25.9047 17.1264V18.196H27.9047V17.1264H25.9047ZM25.9047 18.196C25.9047 18.6419 25.987 19.0832 26.1914 19.487L27.9759 18.584C27.9416 18.5162 27.9047 18.3978 27.9047 18.196H25.9047ZM26.1957 19.4955C26.4023 19.8942 26.7059 20.22 27.0995 20.4472L28.099 18.7148C28.0495 18.6862 28.0093 18.6484 27.9715 18.5755L26.1957 19.4955ZM27.0995 20.4472C27.4994 20.6779 27.9414 20.7727 28.3876 20.7727V18.7727C28.2259 18.7727 28.1423 18.7398 28.099 18.7148L27.0995 20.4472ZM28.3876 20.7727C28.6835 20.7727 28.9783 20.731 29.2626 20.6346L28.6205 18.7404C28.5697 18.7577 28.4951 18.7727 28.3876 18.7727V20.7727ZM29.2626 20.6346C29.5575 20.5346 29.8295 20.3771 30.0616 20.156L28.6823 18.7077C28.6759 18.7138 28.6609 18.7267 28.6205 18.7404L29.2626 20.6346ZM30.0616 20.156C30.2968 19.932 30.4679 19.6637 30.5797 19.3689L28.7097 18.6595C28.6965 18.6943 28.6858 18.7044 28.6823 18.7077L30.0616 20.156ZM29.5789 20.012L31.2578 20.1228L31.3895 18.1272L29.7106 18.0164L29.5789 20.012ZM30.3453 18.9183C30.2944 19.1589 30.1955 19.354 30.0478 19.5223L31.5512 20.8413C31.932 20.4073 32.1825 19.8979 32.3021 19.3317L30.3453 18.9183ZM30.0474 19.5228C29.9017 19.6891 29.6991 19.837 29.4107 19.9535L30.16 21.8078C30.7011 21.5892 31.1747 21.2711 31.5517 20.8408L30.0474 19.5228ZM29.4139 19.9522C29.1427 20.0607 28.7971 20.1278 28.3578 20.1278V22.1278C28.998 22.1278 29.6041 22.0302 30.1567 21.8092L29.4139 19.9522ZM32.5467 21H31.5467V22H32.5467V21ZM32.5467 14.4545V13.4545H31.5467V14.4545H32.5467ZM34.362 14.4545H35.362V13.4545H34.362V14.4545ZM34.362 21V22H35.362V21H34.362ZM32.764 13.3423L32.0733 14.0654L32.0788 14.0707L32.0844 14.0759L32.764 13.3423ZM32.764 12.0469L33.4491 12.7754L33.4494 12.7751L32.764 12.0469ZM34.149 12.0469L33.4582 12.77L33.4638 12.7753L33.4693 12.7804L34.149 12.0469ZM34.149 13.3423L34.834 14.0708L34.8343 14.0705L34.149 13.3423ZM33.5467 21V14.4545H31.5467V21H33.5467ZM32.5467 15.4545H34.362V13.4545H32.5467V15.4545ZM33.362 14.4545V21H35.362V14.4545H33.362ZM34.362 20H32.5467V22H34.362V20ZM33.4586 12.6108C33.4466 12.6108 33.4404 12.6098 33.4391 12.6096C33.4379 12.6094 33.4396 12.6096 33.4431 12.6109C33.4466 12.6123 33.4492 12.6137 33.4504 12.6145C33.4515 12.6152 33.4492 12.6139 33.4436 12.6088L32.0844 14.0759C32.4675 14.4308 32.9436 14.6108 33.4586 14.6108V12.6108ZM33.4548 12.6192C33.4448 12.6097 33.4549 12.6167 33.4659 12.6418C33.4709 12.6533 33.4744 12.6648 33.4765 12.6749C33.4785 12.6849 33.4785 12.6905 33.4785 12.6903H31.4785C31.4785 13.2287 31.6945 13.7036 32.0733 14.0654L33.4548 12.6192ZM33.4785 12.6903C33.4785 12.6916 33.4784 12.6987 33.476 12.7102C33.4736 12.7219 33.4696 12.7348 33.464 12.7476C33.4517 12.7753 33.44 12.7839 33.4491 12.7754L32.079 11.3184C31.6979 11.6767 31.4785 12.1508 31.4785 12.6903H33.4785ZM33.4494 12.7751C33.4552 12.7696 33.4576 12.7682 33.4564 12.769C33.4551 12.7699 33.4521 12.7715 33.448 12.7731C33.444 12.7747 33.4415 12.7752 33.4418 12.7752C33.4423 12.7751 33.4475 12.7741 33.4586 12.7741V10.7741C32.9389 10.7741 32.4609 10.9589 32.0787 11.3187L33.4494 12.7751ZM33.4586 12.7741C33.4643 12.7741 33.4683 12.7744 33.4709 12.7746C33.4734 12.7748 33.4746 12.7751 33.4747 12.7751C33.4748 12.7751 33.4739 12.7749 33.4723 12.7745C33.4706 12.774 33.4686 12.7733 33.4662 12.7724C33.4611 12.7704 33.457 12.7681 33.4546 12.7665C33.4522 12.765 33.4535 12.7655 33.4582 12.77L34.8397 11.3238C34.4581 10.9593 33.9786 10.7741 33.4586 10.7741V12.7741ZM33.4693 12.7804C33.4794 12.7898 33.4674 12.7812 33.4545 12.7526C33.4485 12.7393 33.4442 12.7257 33.4416 12.7131C33.439 12.7007 33.4387 12.6926 33.4387 12.6903H35.4387C35.4387 12.1456 35.2138 11.6702 34.8286 11.3133L33.4693 12.7804ZM33.4387 12.6903C33.4387 12.6896 33.4389 12.683 33.4411 12.6721C33.4434 12.661 33.4472 12.6488 33.4525 12.6368C33.4641 12.6107 33.4746 12.6038 33.4636 12.6141L34.8343 14.0705C35.2172 13.7102 35.4387 13.2338 35.4387 12.6903H33.4387ZM33.4639 12.6138C33.4595 12.618 33.4583 12.6184 33.4606 12.6169C33.463 12.6154 33.4667 12.6134 33.4712 12.6117C33.4756 12.61 33.4781 12.6095 33.4774 12.6097C33.4766 12.6098 33.4707 12.6108 33.4586 12.6108V14.6108C33.9738 14.6108 34.4515 14.4305 34.834 14.0708L33.4639 12.6138ZM37.2523 23.348L37.6117 22.4148L37.6083 22.4135L37.2523 23.348ZM36.2551 22.696L35.5107 23.3637L36.2551 22.696ZM35.7736 21.767L35.6403 20.776L34.5688 20.9201L34.7959 21.9771L35.7736 21.767ZM37.4526 21.5412L38.3838 21.1768L38.0976 20.4454L37.3193 20.5501L37.4526 21.5412ZM37.6955 21.9077L38.4115 21.2096L37.6955 21.9077ZM38.1344 22.1804L38.4934 21.247L38.4855 21.2441L38.1344 22.1804ZM39.7836 21.9972L39.1906 21.1918L39.1807 21.1993L39.7836 21.9972ZM40.1713 19.8409H41.1713V18.8409H40.1713V19.8409ZM40.0946 19.8409V18.8409H39.4406L39.1785 19.4401L40.0946 19.8409ZM39.7367 20.3565L40.45 21.0574L39.7367 20.3565ZM36.8858 20.5653L36.3877 21.4325L36.395 21.4366L36.8858 20.5653ZM35.927 19.5128L35.0315 19.9579L35.0348 19.9643L35.927 19.5128ZM35.9355 15.8565L35.036 15.4196V15.4196L35.9355 15.8565ZM36.8986 14.7401L36.3762 13.8874L36.3735 13.889L36.8986 14.7401ZM39.1444 14.5568L38.693 15.4492L38.7013 15.4533L39.1444 14.5568ZM39.7409 15.017L38.9659 15.649L38.9712 15.6555L38.9767 15.6619L39.7409 15.017ZM40.0946 15.554L39.1888 15.9777L39.4584 16.554H40.0946V15.554ZM40.1628 15.554V16.554H41.1628V15.554H40.1628ZM40.1628 14.4545V13.4545H39.1628V14.4545H40.1628ZM41.9654 14.4545H42.9654V13.4545H41.9654V14.4545ZM41.5563 22.4616L40.7476 21.8735H40.7475L41.5563 22.4616ZM40.4228 23.3054L40.0608 22.3732L40.0542 22.3758L40.4228 23.3054ZM39.5449 19.3253L40.1283 20.1375L40.1304 20.136L39.5449 19.3253ZM40.0137 18.6946L39.0858 18.3216L39.0839 18.3266L40.0137 18.6946ZM40.0179 16.7088L39.0831 17.064L39.0843 17.0672L40.0179 16.7088ZM38.0492 16.0568L38.6631 16.8462L38.6699 16.8409L38.0492 16.0568ZM37.5847 16.7216L38.5226 17.0686L37.5847 16.7216ZM37.5847 18.6861L36.6503 19.0425L36.6549 19.0541L37.5847 18.6861ZM38.0492 19.321L37.451 20.1224L37.4573 20.1271L37.4637 20.1317L38.0492 19.321ZM38.7651 22.5909C38.2643 22.5909 37.8884 22.5214 37.6117 22.4148L36.8929 24.2812C37.4571 24.4985 38.0897 24.5909 38.7651 24.5909V22.5909ZM37.6083 22.4135C37.309 22.2995 37.1205 22.1631 36.9996 22.0283L35.5107 23.3637C35.8841 23.78 36.3604 24.0783 36.8963 24.2825L37.6083 22.4135ZM36.9996 22.0283C36.8623 21.8753 36.7866 21.7214 36.7513 21.557L34.7959 21.9771C34.9083 22.5002 35.1537 22.9656 35.5107 23.3637L36.9996 22.0283ZM35.9069 22.7581L37.5859 22.5323L37.3193 20.5501L35.6403 20.776L35.9069 22.7581ZM36.5214 21.9056C36.6272 22.1761 36.7875 22.4089 36.9795 22.6058L38.4115 21.2096C38.3962 21.1939 38.3884 21.1832 38.3852 21.1784C38.3821 21.1737 38.3825 21.1733 38.3838 21.1768L36.5214 21.9056ZM36.9795 22.6058C37.2132 22.8455 37.4939 23.0082 37.7833 23.1167L38.4855 21.2441C38.4112 21.2162 38.3993 21.1971 38.4115 21.2096L36.9795 22.6058ZM37.7754 23.1137C38.106 23.2409 38.4595 23.2869 38.8077 23.2869V21.2869C38.6275 21.2869 38.5322 21.262 38.4934 21.2471L37.7754 23.1137ZM38.8077 23.2869C39.3686 23.2869 39.92 23.1474 40.3864 22.795L39.1807 21.1993C39.1357 21.2333 39.0366 21.2869 38.8077 21.2869V23.2869ZM40.3765 22.8024C40.9832 22.3557 41.1713 21.6698 41.1713 21.0384H39.1713C39.1713 21.1712 39.1517 21.2291 39.1473 21.2398C39.1458 21.2436 39.1481 21.2369 39.1572 21.2249C39.1667 21.2124 39.1786 21.2008 39.1907 21.1919L40.3765 22.8024ZM41.1713 21.0384V19.8409H39.1713V21.0384H41.1713ZM40.1713 18.8409H40.0946V20.8409H40.1713V18.8409ZM39.1785 19.4401C39.1542 19.4956 39.1093 19.5683 39.0233 19.6557L40.45 21.0574C40.6823 20.8209 40.876 20.5499 41.0108 20.2417L39.1785 19.4401ZM39.0233 19.6557C38.9757 19.7042 38.8922 19.7668 38.7444 19.8273L39.5017 21.6784C39.8539 21.5343 40.1795 21.3327 40.45 21.0574L39.0233 19.6557ZM38.7444 19.8273C38.6434 19.8686 38.4801 19.9062 38.2282 19.9062V21.9062C38.6694 21.9062 39.1027 21.8416 39.5017 21.6784L38.7444 19.8273ZM38.2282 19.9062C37.8977 19.9062 37.621 19.8317 37.3767 19.6941L36.395 21.4366C36.9575 21.7535 37.5757 21.9062 38.2282 21.9062V19.9062ZM37.384 19.6982C37.1759 19.5787 36.9829 19.3846 36.8193 19.0613L35.0348 19.9643C35.3484 20.5841 35.7946 21.0917 36.3877 21.4324L37.384 19.6982ZM36.8225 19.0677C36.6759 18.7728 36.5733 18.3382 36.5733 17.7145H34.5733C34.5733 18.5396 34.7065 19.3039 35.0315 19.9579L36.8225 19.0677ZM36.5733 17.7145C36.5733 17.0752 36.6783 16.6162 36.8351 16.2934L35.036 15.4196C34.7098 16.0912 34.5733 16.8709 34.5733 17.7145H36.5733ZM36.8351 16.2934C37.0083 15.9368 37.2112 15.7222 37.4237 15.5911L36.3735 13.889C35.7849 14.2522 35.3458 14.7819 35.036 15.4196L36.8351 16.2934ZM37.421 15.5927C37.6648 15.4434 37.9253 15.3693 38.2239 15.3693V13.3693C37.5623 13.3693 36.9393 13.5424 36.3762 13.8874L37.421 15.5927ZM38.2239 15.3693C38.4822 15.3693 38.6235 15.414 38.693 15.4492L39.5957 13.6645C39.1708 13.4496 38.6986 13.3693 38.2239 13.3693V15.3693ZM38.7013 15.4533C38.8402 15.522 38.9189 15.5914 38.9659 15.649L40.516 14.3851C40.2618 14.0734 39.9428 13.836 39.5874 13.6603L38.7013 15.4533ZM38.9767 15.6619C39.0855 15.7909 39.1509 15.8966 39.1888 15.9777L41.0004 15.1303C40.8736 14.8591 40.7032 14.6068 40.5052 14.3722L38.9767 15.6619ZM40.0946 16.554H40.1628V14.554H40.0946V16.554ZM41.1628 15.554V14.4545H39.1628V15.554H41.1628ZM40.1628 15.4545H41.9654V13.4545H40.1628V15.4545ZM40.9654 14.4545V21.0639H42.9654V14.4545H40.9654ZM40.9654 21.0639C40.9654 21.4529 40.8726 21.7015 40.7476 21.8735L42.365 23.0498C42.7854 22.4718 42.9654 21.7886 42.9654 21.0639H40.9654ZM40.7475 21.8735C40.6006 22.0755 40.3866 22.2467 40.0608 22.3732L40.7847 24.2376C41.4248 23.9891 41.9665 23.5978 42.365 23.0498L40.7475 21.8735ZM40.0542 22.3758C39.7132 22.511 39.2897 22.5909 38.7651 22.5909V24.5909C39.4905 24.5909 40.1721 24.4805 40.7913 24.235L40.0542 22.3758ZM38.8034 20.5426C39.267 20.5426 39.7279 20.4251 40.1283 20.1375L38.9615 18.5131C38.9586 18.5152 38.9251 18.5426 38.8034 18.5426V20.5426ZM40.1304 20.136C40.5134 19.8594 40.777 19.4833 40.9435 19.0627L39.0839 18.3266C39.0345 18.4513 38.9856 18.4957 38.9594 18.5146L40.1304 20.136ZM40.9415 19.0676C41.1116 18.6445 41.1799 18.1818 41.1799 17.706H39.1799C39.1799 17.9972 39.1373 18.1936 39.0859 18.3216L40.9415 19.0676ZM41.1799 17.706C41.1799 17.2319 41.1135 16.7726 40.9515 16.3505L39.0843 17.0672C39.1382 17.2075 39.1799 17.413 39.1799 17.706H41.1799ZM40.9527 16.3536C40.7907 15.9272 40.5338 15.542 40.1562 15.2536L38.9421 16.843C38.9737 16.8671 39.0293 16.9222 39.0831 17.064L40.9527 16.3536ZM40.1562 15.2536C39.7539 14.9463 39.284 14.8139 38.8034 14.8139V16.8139C38.9081 16.8139 38.9354 16.8378 38.9421 16.843L40.1562 15.2536ZM38.8034 14.8139C38.3138 14.8139 37.8346 14.9513 37.4285 15.2728L38.6699 16.8409C38.6729 16.8385 38.6965 16.8139 38.8034 16.8139V14.8139ZM37.4352 15.2675C37.0603 15.5591 36.8055 15.9457 36.6468 16.3746L38.5226 17.0686C38.5741 16.9293 38.629 16.8727 38.6631 16.8462L37.4352 15.2675ZM36.6468 16.3746C36.4924 16.7919 36.427 17.2415 36.427 17.706H38.427C38.427 17.4261 38.4667 17.2195 38.5226 17.0686L36.6468 16.3746ZM36.427 17.706C36.427 18.1729 36.4915 18.6261 36.6504 19.0425L38.519 18.3297C38.4676 18.1949 38.427 17.9947 38.427 17.706H36.427ZM36.6549 19.0541C36.8196 19.4703 37.0776 19.8436 37.451 20.1224L38.6474 18.5197C38.6174 18.4973 38.5657 18.4473 38.5145 18.318L36.6549 19.0541ZM37.4637 20.1317C37.868 20.4237 38.3343 20.5426 38.8034 20.5426V18.5426C38.676 18.5426 38.6394 18.5138 38.6347 18.5103L37.4637 20.1317ZM45.2253 17.2159L44.2253 17.2058V17.2159H45.2253ZM45.2253 21V22H46.2253V21H45.2253ZM43.41 21H42.41V22H43.41V21ZM43.41 12.2727V11.2727H42.41V12.2727H43.41ZM45.1742 12.2727H46.1742V11.2727H45.1742V12.2727ZM45.1742 15.6094H44.1742V16.6094H45.1742V15.6094ZM45.2509 15.6094V16.6094H45.9391L46.1849 15.9665L45.2509 15.6094ZM45.9668 14.7017L46.5198 15.5349L46.5248 15.5315L45.9668 14.7017ZM48.3958 14.6676L47.8887 15.5296L47.8973 15.5345L48.3958 14.6676ZM49.1884 15.5156L48.2967 15.9683L48.3009 15.9765L49.1884 15.5156ZM49.4696 16.8324L48.4696 16.8268V16.8324H49.4696ZM49.4696 21V22H50.4696V21H49.4696ZM47.6543 21H46.6543V22H47.6543V21ZM47.6543 17.1562L46.6543 17.1492V17.1562H47.6543ZM47.3475 16.2145L46.6084 16.8881L46.613 16.8932L47.3475 16.2145ZM45.8304 16.0355L45.347 15.1601L45.3414 15.1632L45.8304 16.0355ZM45.3873 16.4957L44.5056 16.0239L44.5032 16.0284L45.3873 16.4957ZM44.2253 17.2159V21H46.2253V17.2159H44.2253ZM45.2253 20H43.41V22H45.2253V20ZM44.41 21V12.2727H42.41V21H44.41ZM43.41 13.2727H45.1742V11.2727H43.41V13.2727ZM44.1742 12.2727V15.6094H46.1742V12.2727H44.1742ZM45.1742 16.6094H45.2509V14.6094H45.1742V16.6094ZM46.1849 15.9665C46.2619 15.7651 46.372 15.633 46.5198 15.5349L45.4138 13.8686C44.9025 14.2079 44.5353 14.6809 44.3168 15.2522L46.1849 15.9665ZM46.5248 15.5315C46.6522 15.4459 46.8583 15.3693 47.2069 15.3693V13.3693C46.5611 13.3693 45.9405 13.5143 45.4088 13.8719L46.5248 15.5315ZM47.2069 15.3693C47.5118 15.3693 47.7274 15.4346 47.8888 15.5295L48.9028 13.8057C48.3881 13.5029 47.811 13.3693 47.2069 13.3693V15.3693ZM47.8973 15.5345C48.0605 15.6283 48.1923 15.7626 48.2967 15.9683L50.0801 15.0629C49.8095 14.53 49.4129 14.0989 48.8942 13.8007L47.8973 15.5345ZM48.3009 15.9765C48.4007 16.1686 48.4718 16.4397 48.4697 16.8268L50.4696 16.8379C50.4732 16.2023 50.3568 15.5956 50.0758 15.0547L48.3009 15.9765ZM48.4696 16.8324V21H50.4696V16.8324H48.4696ZM49.4696 20H47.6543V22H49.4696V20ZM48.6543 21V17.1562H46.6543V21H48.6543ZM48.6543 17.1633C48.6583 16.5894 48.511 16.0002 48.0819 15.5358L46.613 16.8932C46.6133 16.8935 46.6144 16.8946 46.6165 16.8982C46.6186 16.902 46.6234 16.9111 46.6289 16.928C46.6403 16.9629 46.6551 17.0321 46.6543 17.1492L48.6543 17.1633ZM48.0866 15.5409C47.6523 15.0644 47.0715 14.8778 46.4867 14.8778V16.8778C46.5709 16.8778 46.6078 16.8906 46.6146 16.8933C46.618 16.8946 46.6169 16.8945 46.6135 16.8922C46.6101 16.8899 46.6082 16.8879 46.6084 16.8881L48.0866 15.5409ZM46.4867 14.8778C46.0939 14.8778 45.7046 14.9626 45.347 15.1601L46.3139 16.9109C46.3369 16.8981 46.3852 16.8778 46.4867 16.8778V14.8778ZM45.3414 15.1632C44.9767 15.3677 44.6975 15.6653 44.5056 16.0239L46.2689 16.9676C46.2929 16.9228 46.3092 16.9135 46.3194 16.9078L45.3414 15.1632ZM44.5032 16.0284C44.3072 16.3992 44.2294 16.8042 44.2254 17.2058L46.2253 17.226C46.2269 17.0651 46.2571 16.99 46.2713 16.963L44.5032 16.0284ZM54.3798 14.4545H55.3798V13.4545H54.3798V14.4545ZM54.3798 15.8182V16.8182H55.3798V15.8182H54.3798ZM50.438 15.8182H49.438V16.8182H50.438V15.8182ZM50.438 14.4545V13.4545H49.438V14.4545H50.438ZM51.3329 12.8864V11.8864H50.3329V12.8864H51.3329ZM53.1483 12.8864H54.1483V11.8864H53.1483V12.8864ZM53.225 19.3807L52.347 19.8596L52.3534 19.8709L53.225 19.3807ZM53.438 19.5724L53.0616 20.499L53.0715 20.5029L53.438 19.5724ZM54.0176 19.6065L54.182 20.5929L54.1979 20.5903L54.2137 20.5871L54.0176 19.6065ZM54.2136 19.5682L55.192 19.3614L54.9899 18.4052L54.0293 18.5853L54.2136 19.5682ZM54.4991 20.919L54.7974 21.8735L55.6656 21.6022L55.4775 20.7122L54.4991 20.919ZM54.1156 21.017L53.8969 20.0413L53.8889 20.043L53.881 20.045L54.1156 21.017ZM53.5147 21.0895L53.4786 20.0901L53.4758 20.0902L53.5147 21.0895ZM52.3642 20.9148L51.9858 21.8405L51.9887 21.8416L52.3642 20.9148ZM51.6014 20.2926L52.4412 19.7497L51.6014 20.2926ZM51.3329 19.2273L52.3329 19.2339V19.2273H51.3329ZM53.3798 14.4545V15.8182H55.3798V14.4545H53.3798ZM54.3798 14.8182H50.438V16.8182H54.3798V14.8182ZM51.438 15.8182V14.4545H49.438V15.8182H51.438ZM50.438 15.4545H54.3798V13.4545H50.438V15.4545ZM51.3329 13.8864H53.1483V11.8864H51.3329V13.8864ZM52.1483 12.8864V18.9886H54.1483V12.8864H52.1483ZM52.1483 18.9886C52.1483 19.2373 52.1827 19.5583 52.3471 19.8595L54.1029 18.9018C54.1366 18.9637 54.1466 19.009 54.1488 19.0203C54.1511 19.032 54.1483 19.0237 54.1483 18.9886H52.1483ZM52.3534 19.8709C52.508 20.1458 52.7473 20.3712 53.0617 20.4989L53.8144 18.646C53.8734 18.67 53.9326 18.7058 53.9855 18.7535C54.038 18.8007 54.0737 18.8497 54.0965 18.8904L52.3534 19.8709ZM53.0715 20.5029C53.3039 20.5944 53.5402 20.6278 53.7619 20.6278V18.6278C53.7393 18.6278 53.7597 18.6244 53.8046 18.642L53.0715 20.5029ZM53.7619 20.6278C53.903 20.6278 54.0432 20.6161 54.182 20.5929L53.8532 18.6201C53.8215 18.6254 53.7913 18.6278 53.7619 18.6278V20.6278ZM54.2137 20.5871C54.2978 20.5703 54.3584 20.5585 54.3979 20.5511L54.0293 18.5853C53.9779 18.595 53.9079 18.6087 53.8215 18.626L54.2137 20.5871ZM53.2352 19.775L53.5207 21.1258L55.4775 20.7122L55.192 19.3614L53.2352 19.775ZM54.2008 19.9646C54.1487 19.9808 54.0519 20.0065 53.8969 20.0413L54.3343 21.9928C54.5088 21.9537 54.6677 21.9141 54.7974 21.8735L54.2008 19.9646ZM53.881 20.045C53.801 20.0643 53.6714 20.0832 53.4786 20.0901L53.5509 22.0888C53.8297 22.0788 54.1006 22.0494 54.3502 21.9891L53.881 20.045ZM53.4758 20.0902C53.1481 20.103 52.911 20.0574 52.7397 19.988L51.9887 21.8416C52.4764 22.0392 53.0064 22.1101 53.5537 22.0887L53.4758 20.0902ZM52.7425 19.9891C52.5943 19.9286 52.5058 19.8496 52.4412 19.7497L50.7616 20.8355C51.0606 21.2981 51.4806 21.6339 51.9859 21.8404L52.7425 19.9891ZM52.4412 19.7497C52.3912 19.6724 52.331 19.5223 52.3329 19.2339L50.3329 19.2206C50.3292 19.7902 50.4479 20.3503 50.7616 20.8355L52.4412 19.7497ZM52.3329 19.2273V12.8864H50.3329V19.2273H52.3329Z" fill="black" mask="url(#path-2-outside-1_5_8)"/>
</g>
</svg>
