<svg width="32" height="32" viewBox="0 0 32 32" fill="none" xmlns="http://www.w3.org/2000/svg">
<rect x="0.5" y="0.5" width="31" height="31" fill="white"/>
<rect x="0.5" y="0.5" width="31" height="31" stroke="#ECD9D9" stroke-linejoin="round"/>
<circle cx="12" cy="13" r="10" fill="#FCD2D2"/>
<path d="M11 16.5C11 13.7386 13.2386 11.5 16 11.5H19.5H23C25.7614 11.5 28 13.7386 28 16.5V23.5C28 26.2614 25.7614 28.5 23 28.5H16C13.2386 28.5 11 26.2614 11 23.5V16.5Z" fill="#D9D9D9"/>
<path d="M28.5 23.5V16.5C28.5 13.4624 26.0376 11 23 11H19.5H16C12.9624 11 10.5 13.4624 10.5 16.5V23.5C10.5 26.5376 12.9624 29 16 29H23C26.0376 29 28.5 26.5376 28.5 23.5Z" stroke="black" stroke-opacity="0.9" stroke-linejoin="round"/>
</svg>
