<svg width="32" height="32" viewBox="0 0 32 32" fill="none" xmlns="http://www.w3.org/2000/svg">
<rect x="0.5" y="0.5" width="31" height="31" fill="white"/>
<rect x="0.5" y="0.5" width="31" height="31" stroke="#ECD9D9" stroke-linejoin="round"/>
<g style="mix-blend-mode:darken">
<path d="M9 24H22" stroke="black" stroke-width="3" stroke-linejoin="round"/>
</g>
<g style="mix-blend-mode:darken">
<mask id="path-3-outside-1_10_60" maskUnits="userSpaceOnUse" x="10" y="10" width="11" height="10" fill="black">
<rect fill="white" x="10" y="10" width="11" height="10"/>
<path d="M14.0739 11.7273L15.5405 14.206H15.5973L17.071 11.7273H18.8075L16.5881 15.3636L18.8572 19H17.0888L15.5973 16.5178H15.5405L14.049 19H12.2876L14.5639 15.3636L12.3303 11.7273H14.0739Z"/>
</mask>
<path d="M14.0739 11.7273L14.9345 11.218L14.6441 10.7273H14.0739V11.7273ZM15.5405 14.206L14.6799 14.7152L14.9702 15.206H15.5405V14.206ZM15.5973 14.206V15.206H16.1661L16.4569 14.717L15.5973 14.206ZM17.071 11.7273V10.7273H16.5022L16.2115 11.2162L17.071 11.7273ZM18.8075 11.7273L19.6611 12.2483L20.5894 10.7273H18.8075V11.7273ZM16.5881 15.3636L15.7345 14.8427L15.413 15.3695L15.7397 15.893L16.5881 15.3636ZM18.8572 19V20H20.66L19.7056 18.4706L18.8572 19ZM17.0888 19L16.2316 19.515L16.523 20H17.0888V19ZM15.5973 16.5178L16.4545 16.0027L16.1631 15.5178H15.5973V16.5178ZM15.5405 16.5178V15.5178H14.9747L14.6833 16.0027L15.5405 16.5178ZM14.049 19V20H14.6148L14.9062 19.515L14.049 19ZM12.2876 19L11.44 18.4694L10.4819 20H12.2876V19ZM14.5639 15.3636L15.4115 15.8942L15.7406 15.3686L15.416 14.8402L14.5639 15.3636ZM12.3303 11.7273V10.7273H10.5424L11.4782 12.2507L12.3303 11.7273ZM13.2132 12.2365L14.6799 14.7152L16.4011 13.6967L14.9345 11.218L13.2132 12.2365ZM15.5405 15.206H15.5973V13.206H15.5405V15.206ZM16.4569 14.717L17.9306 12.2383L16.2115 11.2162L14.7378 13.6949L16.4569 14.717ZM17.071 12.7273H18.8075V10.7273H17.071V12.7273ZM17.954 11.2063L15.7345 14.8427L17.4416 15.8846L19.6611 12.2483L17.954 11.2063ZM15.7397 15.893L18.0089 19.5294L19.7056 18.4706L17.4364 14.8342L15.7397 15.893ZM18.8572 18H17.0888V20H18.8572V18ZM17.9459 18.485L16.4545 16.0027L14.7401 17.0328L16.2316 19.515L17.9459 18.485ZM15.5973 15.5178H15.5405V17.5178H15.5973V15.5178ZM14.6833 16.0027L13.1918 18.485L14.9062 19.515L16.3977 17.0328L14.6833 16.0027ZM14.049 18H12.2876V20H14.049V18ZM13.1353 19.5306L15.4115 15.8942L13.7163 14.833L11.44 18.4694L13.1353 19.5306ZM15.416 14.8402L13.1823 11.2039L11.4782 12.2507L13.7118 15.887L15.416 14.8402ZM12.3303 12.7273H14.0739V10.7273H12.3303V12.7273Z" fill="black" mask="url(#path-3-outside-1_10_60)"/>
</g>
</svg>
