<svg width="72" height="32" viewBox="0 0 72 32" fill="none" xmlns="http://www.w3.org/2000/svg">
<rect x="0.5" y="0.5" width="71" height="31" fill="white"/>
<rect x="0.5" y="0.5" width="71" height="31" stroke="#ECD9D9" stroke-linejoin="round"/>
<g style="mix-blend-mode:darken">
<mask id="path-2-outside-1_5_13" maskUnits="userSpaceOnUse" x="22" y="11" width="28" height="14" fill="black">
<rect fill="white" x="22" y="11" width="28" height="14"/>
<path d="M26.9755 14.4545V15.8182H23.0337V14.4545H26.9755ZM23.9286 12.8864H25.744V18.9886C25.744 19.1562 25.7695 19.2869 25.8207 19.3807C25.8718 19.4716 25.9428 19.5355 26.0337 19.5724C26.1275 19.6094 26.2354 19.6278 26.3576 19.6278C26.4428 19.6278 26.5281 19.6207 26.6133 19.6065C26.6985 19.5895 26.7638 19.5767 26.8093 19.5682L27.0948 20.919C27.0039 20.9474 26.8761 20.9801 26.7113 21.017C26.5465 21.0568 26.3462 21.081 26.1104 21.0895C25.6729 21.1065 25.2894 21.0483 24.9599 20.9148C24.6332 20.7812 24.3789 20.5739 24.1971 20.2926C24.0153 20.0114 23.9258 19.6562 23.9286 19.2273V12.8864ZM29.2788 23.4545C29.0487 23.4545 28.8327 23.4361 28.631 23.3991C28.4322 23.3651 28.2674 23.321 28.1367 23.267L28.5458 21.9119C28.7589 21.9773 28.9506 22.0128 29.1211 22.0185C29.2944 22.0241 29.4435 21.9844 29.5685 21.8991C29.6964 21.8139 29.8001 21.669 29.8796 21.4645L29.9862 21.1875L27.6381 14.4545H29.5472L30.9023 19.2614H30.9705L32.3384 14.4545H34.2603L31.7163 21.7074C31.5941 22.0597 31.4279 22.3665 31.2177 22.6278C31.0103 22.892 30.7475 23.0952 30.4293 23.2372C30.1112 23.3821 29.7276 23.4545 29.2788 23.4545ZM35.1893 23.4545V14.4545H36.979V15.554H37.06C37.1396 15.3778 37.2546 15.1989 37.4052 15.017C37.5586 14.8324 37.7575 14.679 38.0018 14.5568C38.2489 14.4318 38.5558 14.3693 38.9222 14.3693C39.3995 14.3693 39.8398 14.4943 40.2433 14.7443C40.6467 14.9915 40.9691 15.3651 41.2106 15.8651C41.4521 16.3622 41.5728 16.9858 41.5728 17.7358C41.5728 18.4659 41.4549 19.0824 41.2191 19.5852C40.9862 20.0852 40.668 20.4645 40.2646 20.723C39.864 20.9787 39.4151 21.1065 38.918 21.1065C38.5657 21.1065 38.266 21.0483 38.0188 20.9318C37.7745 20.8153 37.5742 20.669 37.418 20.4929C37.2617 20.3139 37.1424 20.1335 37.06 19.9517H37.0046V23.4545H35.1893ZM36.9663 17.7273C36.9663 18.1165 37.0202 18.456 37.1282 18.7457C37.2362 19.0355 37.3924 19.2614 37.5969 19.4233C37.8015 19.5824 38.0501 19.6619 38.3427 19.6619C38.6381 19.6619 38.8881 19.581 39.0927 19.419C39.2972 19.2543 39.4521 19.027 39.5572 18.7372C39.6651 18.4446 39.7191 18.108 39.7191 17.7273C39.7191 17.3494 39.6665 17.017 39.5614 16.7301C39.4563 16.4432 39.3015 16.2187 39.0969 16.0568C38.8924 15.8949 38.641 15.8139 38.3427 15.8139C38.0472 15.8139 37.7972 15.892 37.5927 16.0483C37.391 16.2045 37.2362 16.4261 37.1282 16.7131C37.0202 17 36.9663 17.3381 36.9663 17.7273ZM45.766 21.1278C45.0927 21.1278 44.5131 20.9915 44.0273 20.7188C43.5444 20.4432 43.1722 20.054 42.9109 19.5511C42.6495 19.0455 42.5188 18.4474 42.5188 17.7571C42.5188 17.0838 42.6495 16.4929 42.9109 15.9844C43.1722 15.4759 43.5401 15.0795 44.0146 14.7955C44.4918 14.5114 45.0515 14.3693 45.6935 14.3693C46.1254 14.3693 46.5273 14.4389 46.8995 14.5781C47.2745 14.7145 47.6012 14.9205 47.8796 15.196C48.1609 15.4716 48.3796 15.8182 48.5359 16.2358C48.6921 16.6506 48.7702 17.1364 48.7702 17.6932V18.1918H43.2433V17.0668H47.0614C47.0614 16.8054 47.0046 16.5739 46.891 16.3722C46.7773 16.1705 46.6197 16.0128 46.418 15.8991C46.2191 15.7827 45.9876 15.7244 45.7234 15.7244C45.4478 15.7244 45.2035 15.7884 44.9904 15.9162C44.7802 16.0412 44.6154 16.2102 44.4961 16.4233C44.3768 16.6335 44.3157 16.8679 44.3129 17.1264V18.196C44.3129 18.5199 44.3725 18.7997 44.4918 19.0355C44.614 19.2713 44.7859 19.4531 45.0075 19.581C45.229 19.7088 45.4918 19.7727 45.7958 19.7727C45.9975 19.7727 46.1822 19.7443 46.3498 19.6875C46.5174 19.6307 46.6609 19.5455 46.7802 19.4318C46.8995 19.3182 46.9904 19.179 47.0529 19.0142L48.7319 19.125C48.6467 19.5284 48.4719 19.8807 48.2077 20.1818C47.9464 20.4801 47.6083 20.7131 47.1935 20.8807C46.7816 21.0455 46.3058 21.1278 45.766 21.1278Z"/>
</mask>
<path d="M26.9755 14.4545H27.9755V13.4545H26.9755V14.4545ZM26.9755 15.8182V16.8182H27.9755V15.8182H26.9755ZM23.0337 15.8182H22.0337V16.8182H23.0337V15.8182ZM23.0337 14.4545V13.4545H22.0337V14.4545H23.0337ZM23.9286 12.8864V11.8864H22.9286V12.8864H23.9286ZM25.744 12.8864H26.744V11.8864H25.744V12.8864ZM25.8207 19.3807L24.9427 19.8596L24.9491 19.8709L25.8207 19.3807ZM26.0337 19.5724L25.6573 20.499L25.6672 20.5029L26.0337 19.5724ZM26.6133 19.6065L26.7777 20.5929L26.7936 20.5903L26.8094 20.5871L26.6133 19.6065ZM26.8093 19.5682L27.7877 19.3614L27.5856 18.4052L26.625 18.5853L26.8093 19.5682ZM27.0948 20.919L27.3931 21.8735L28.2613 21.6022L28.0732 20.7122L27.0948 20.919ZM26.7113 21.017L26.4926 20.0413L26.4846 20.043L26.4767 20.045L26.7113 21.017ZM26.1104 21.0895L26.0743 20.0901L26.0715 20.0902L26.1104 21.0895ZM24.9599 20.9148L24.5816 21.8405L24.5844 21.8416L24.9599 20.9148ZM24.1971 20.2926L25.0369 19.7497L24.1971 20.2926ZM23.9286 19.2273L24.9286 19.2339V19.2273H23.9286ZM25.9755 14.4545V15.8182H27.9755V14.4545H25.9755ZM26.9755 14.8182H23.0337V16.8182H26.9755V14.8182ZM24.0337 15.8182V14.4545H22.0337V15.8182H24.0337ZM23.0337 15.4545H26.9755V13.4545H23.0337V15.4545ZM23.9286 13.8864H25.744V11.8864H23.9286V13.8864ZM24.744 12.8864V18.9886H26.744V12.8864H24.744ZM24.744 18.9886C24.744 19.2373 24.7785 19.5583 24.9428 19.8595L26.6986 18.9018C26.7323 18.9637 26.7423 19.009 26.7445 19.0203C26.7468 19.032 26.744 19.0237 26.744 18.9886H24.744ZM24.9491 19.8709C25.1037 20.1458 25.343 20.3712 25.6574 20.4989L26.4101 18.646C26.4691 18.67 26.5283 18.7058 26.5813 18.7535C26.6337 18.8007 26.6694 18.8497 26.6922 18.8904L24.9491 19.8709ZM25.6672 20.5029C25.8996 20.5944 26.1359 20.6278 26.3576 20.6278V18.6278C26.335 18.6278 26.3554 18.6244 26.4003 18.642L25.6672 20.5029ZM26.3576 20.6278C26.4987 20.6278 26.6389 20.6161 26.7777 20.5929L26.4489 18.6201C26.4172 18.6254 26.387 18.6278 26.3576 18.6278V20.6278ZM26.8094 20.5871C26.8935 20.5703 26.9541 20.5585 26.9936 20.5511L26.625 18.5853C26.5736 18.595 26.5036 18.6087 26.4172 18.626L26.8094 20.5871ZM25.8309 19.775L26.1164 21.1258L28.0732 20.7122L27.7877 19.3614L25.8309 19.775ZM26.7965 19.9646C26.7444 19.9808 26.6476 20.0065 26.4926 20.0413L26.93 21.9928C27.1045 21.9537 27.2634 21.9141 27.3931 21.8735L26.7965 19.9646ZM26.4767 20.045C26.3967 20.0643 26.2671 20.0832 26.0743 20.0901L26.1466 22.0888C26.4254 22.0788 26.6963 22.0494 26.9459 21.9891L26.4767 20.045ZM26.0715 20.0902C25.7438 20.103 25.5068 20.0574 25.3354 19.988L24.5844 21.8416C25.0721 22.0392 25.6021 22.1101 26.1494 22.0887L26.0715 20.0902ZM25.3382 19.9891C25.19 19.9286 25.1015 19.8496 25.0369 19.7497L23.3573 20.8355C23.6563 21.2981 24.0763 21.6339 24.5816 21.8404L25.3382 19.9891ZM25.0369 19.7497C24.9869 19.6724 24.9267 19.5223 24.9286 19.2339L22.9286 19.2206C22.9249 19.7902 23.0436 20.3503 23.3573 20.8355L25.0369 19.7497ZM24.9286 19.2273V12.8864H22.9286V19.2273H24.9286ZM28.631 23.3991L28.8112 22.4154L28.8 22.4135L28.631 23.3991ZM28.1367 23.267L27.1794 22.978L26.9175 23.8454L27.755 24.1913L28.1367 23.267ZM28.5458 21.9119L28.839 20.9559L27.8788 20.6614L27.5885 21.6229L28.5458 21.9119ZM29.1211 22.0185L29.0878 23.0179L29.0883 23.0179L29.1211 22.0185ZM29.5685 21.8991L29.0138 21.0671L29.0052 21.0729L29.5685 21.8991ZM29.8796 21.4645L30.8116 21.8269L30.813 21.8235L29.8796 21.4645ZM29.9862 21.1875L30.9195 21.5465L31.0511 21.2043L30.9304 20.8582L29.9862 21.1875ZM27.6381 14.4545V13.4545H26.2303L26.6939 14.7838L27.6381 14.4545ZM29.5472 14.4545L30.5097 14.1832L30.3043 13.4545H29.5472V14.4545ZM30.9023 19.2614L29.9399 19.5327L30.1453 20.2614H30.9023V19.2614ZM30.9705 19.2614V20.2614H31.7257L31.9323 19.5351L30.9705 19.2614ZM32.3384 14.4545V13.4545H31.5833L31.3766 14.1808L32.3384 14.4545ZM34.2603 14.4545L35.2039 14.7855L35.6708 13.4545H34.2603V14.4545ZM31.7163 21.7074L30.7726 21.3764L30.7715 21.3798L31.7163 21.7074ZM31.2177 22.6278L30.4384 22.001L30.4311 22.0104L31.2177 22.6278ZM30.4293 23.2372L30.0217 22.3241L30.0149 22.3271L30.4293 23.2372ZM29.2788 22.4545C29.1019 22.4545 28.9467 22.4403 28.8111 22.4155L28.4509 24.3828C28.7187 24.4318 28.9954 24.4545 29.2788 24.4545V22.4545ZM28.8 22.4135C28.6459 22.3871 28.5586 22.3593 28.5185 22.3428L27.755 24.1913C27.9762 24.2827 28.2184 24.343 28.4621 24.3848L28.8 22.4135ZM29.094 23.5561L29.5031 22.2009L27.5885 21.6229L27.1794 22.978L29.094 23.5561ZM28.2526 22.868C28.5258 22.9518 28.807 23.0086 29.0878 23.0179L29.1544 21.019C29.0943 21.017 28.992 21.0028 28.839 20.9559L28.2526 22.868ZM29.0883 23.0179C29.4415 23.0295 29.8067 22.9471 30.1319 22.7254L29.0052 21.0729C29.0379 21.0506 29.073 21.0353 29.1053 21.0267C29.1362 21.0184 29.1545 21.019 29.1539 21.019L29.0883 23.0179ZM30.1232 22.7312C30.4812 22.4926 30.6882 22.1442 30.8116 21.8269L28.9476 21.102C28.9314 21.1437 28.9225 21.1536 28.929 21.1446C28.9364 21.1342 28.9625 21.1013 29.0138 21.0671L30.1232 22.7312ZM30.813 21.8235L30.9195 21.5465L29.0528 20.8285L28.9463 21.1055L30.813 21.8235ZM30.9304 20.8582L28.5824 14.1253L26.6939 14.7838L29.0419 21.5168L30.9304 20.8582ZM27.6381 15.4545H29.5472V13.4545H27.6381V15.4545ZM28.5847 14.7259L29.9399 19.5327L31.8648 18.99L30.5097 14.1832L28.5847 14.7259ZM30.9023 20.2614H30.9705V18.2614H30.9023V20.2614ZM31.9323 19.5351L33.3002 14.7283L31.3766 14.1808L30.0087 18.9877L31.9323 19.5351ZM32.3384 15.4545H34.2603V13.4545H32.3384V15.4545ZM33.3167 14.1236L30.7726 21.3764L32.6599 22.0384L35.2039 14.7855L33.3167 14.1236ZM30.7715 21.3798C30.6827 21.6356 30.5692 21.8386 30.4385 22.0011L31.9969 23.2546C32.2867 22.8944 32.5055 22.4837 32.6611 22.035L30.7715 21.3798ZM30.4311 22.0104C30.3279 22.1418 30.1971 22.2457 30.0217 22.3241L30.837 24.1504C31.2979 23.9446 31.6927 23.6423 32.0043 23.2453L30.4311 22.0104ZM30.0149 22.3271C29.8582 22.3985 29.6237 22.4545 29.2788 22.4545V24.4545C29.8315 24.4545 30.3641 24.3657 30.8437 24.1473L30.0149 22.3271ZM35.1893 23.4545H34.1893V24.4545H35.1893V23.4545ZM35.1893 14.4545V13.4545H34.1893V14.4545H35.1893ZM36.979 14.4545H37.979V13.4545H36.979V14.4545ZM36.979 15.554H35.979V16.554H36.979V15.554ZM37.06 15.554V16.554H37.7057L37.9714 15.9656L37.06 15.554ZM37.4052 15.017L36.636 14.378L36.635 14.3792L37.4052 15.017ZM38.0018 14.5568L38.449 15.4513L38.4531 15.4492L38.0018 14.5568ZM40.2433 14.7443L39.7165 15.5943L39.7208 15.597L40.2433 14.7443ZM41.2106 15.8651L40.3101 16.2999L40.3111 16.302L41.2106 15.8651ZM41.2191 19.5852L40.3137 19.1607L40.3127 19.1629L41.2191 19.5852ZM40.2646 20.723L40.8026 21.5659L40.8041 21.565L40.2646 20.723ZM38.0188 20.9318L37.5885 21.8345L37.5925 21.8364L38.0188 20.9318ZM37.418 20.4929L36.6646 21.1506L36.6699 21.1565L37.418 20.4929ZM37.06 19.9517L37.9709 19.539L37.7048 18.9517H37.06V19.9517ZM37.0046 19.9517V18.9517H36.0046V19.9517H37.0046ZM37.0046 23.4545V24.4545H38.0046V23.4545H37.0046ZM37.5969 19.4233L36.9762 20.2074L36.983 20.2126L37.5969 19.4233ZM39.0927 19.419L39.7134 20.2031L39.72 20.1978L39.0927 19.419ZM39.5572 18.7372L38.619 18.3911L38.6171 18.3962L39.5572 18.7372ZM39.5614 16.7301L40.5004 16.3861V16.3861L39.5614 16.7301ZM39.0969 16.0568L39.7176 15.2728V15.2728L39.0969 16.0568ZM37.5927 16.0483L36.9856 15.2536L36.9803 15.2577L37.5927 16.0483ZM37.1282 16.7131L36.1922 16.3609V16.3609L37.1282 16.7131ZM36.1893 23.4545V14.4545H34.1893V23.4545H36.1893ZM35.1893 15.4545H36.979V13.4545H35.1893V15.4545ZM35.979 14.4545V15.554H37.979V14.4545H35.979ZM36.979 16.554H37.06V14.554H36.979V16.554ZM37.9714 15.9656C38.0071 15.8864 38.0697 15.7825 38.1754 15.6549L36.635 14.3792C36.4396 14.6152 36.272 14.8693 36.1486 15.1424L37.9714 15.9656ZM38.1744 15.6561C38.2279 15.5916 38.3115 15.52 38.449 15.4512L37.5546 13.6624C37.2034 13.838 36.8893 14.0731 36.636 14.378L38.1744 15.6561ZM38.4531 15.4492C38.5226 15.414 38.6639 15.3693 38.9222 15.3693V13.3693C38.4476 13.3693 37.9753 13.4496 37.5505 13.6645L38.4531 15.4492ZM38.9222 15.3693C39.2145 15.3693 39.4722 15.443 39.7165 15.5943L40.77 13.8943C40.2075 13.5457 39.5845 13.3693 38.9222 13.3693V15.3693ZM39.7208 15.597C39.9341 15.7277 40.1373 15.9421 40.3101 16.2999L42.1111 15.4302C41.801 14.7881 41.3592 14.2553 40.7657 13.8916L39.7208 15.597ZM40.3111 16.302C40.4672 16.6234 40.5728 17.0859 40.5728 17.7358H42.5728C42.5728 16.8857 42.4369 16.1011 42.1101 15.4282L40.3111 16.302ZM40.5728 17.7358C40.5728 18.3633 40.4708 18.8256 40.3137 19.1607L42.1245 20.0098C42.439 19.3392 42.5728 18.5685 42.5728 17.7358H40.5728ZM40.3127 19.1629C40.1474 19.5177 39.9458 19.7396 39.725 19.8811L40.8041 21.565C41.3901 21.1894 41.8249 20.6528 42.1256 20.0075L40.3127 19.1629ZM39.7265 19.8801C39.4943 20.0283 39.2337 20.1065 38.918 20.1065V22.1065C39.5965 22.1065 40.2337 21.9291 40.8026 21.5659L39.7265 19.8801ZM38.918 20.1065C38.672 20.1065 38.5262 20.0655 38.4451 20.0272L37.5925 21.8364C38.0057 22.0311 38.4594 22.1065 38.918 22.1065V20.1065ZM38.4492 20.0292C38.3078 19.9617 38.2212 19.8914 38.166 19.8293L36.6699 21.1565C36.9273 21.4467 37.2412 21.6689 37.5885 21.8345L38.4492 20.0292ZM38.1713 19.8352C38.0674 19.7162 38.0062 19.6169 37.9709 19.539L36.1492 20.3644C36.2786 20.6502 36.456 20.9116 36.6646 21.1506L38.1713 19.8352ZM37.06 18.9517H37.0046V20.9517H37.06V18.9517ZM36.0046 19.9517V23.4545H38.0046V19.9517H36.0046ZM37.0046 22.4545H35.1893V24.4545H37.0046V22.4545ZM35.9663 17.7273C35.9663 18.2061 36.0323 18.6687 36.1911 19.0948L38.0653 18.3966C38.0081 18.2432 37.9663 18.0268 37.9663 17.7273H35.9663ZM36.1911 19.0948C36.3509 19.5238 36.6039 19.9126 36.9762 20.2073L38.2176 18.6392C38.1809 18.6102 38.1214 18.5473 38.0653 18.3966L36.1911 19.0948ZM36.983 20.2126C37.3855 20.5257 37.8579 20.6619 38.3427 20.6619V18.6619C38.2422 18.6619 38.2174 18.639 38.2109 18.6339L36.983 20.2126ZM38.3427 20.6619C38.832 20.6619 39.309 20.5232 39.7134 20.2031L38.472 18.635C38.4673 18.6387 38.4443 18.6619 38.3427 18.6619V20.6619ZM39.72 20.1978C40.0899 19.8998 40.3408 19.5096 40.4972 19.0782L38.6171 18.3962C38.5634 18.5444 38.5045 18.6087 38.4654 18.6403L39.72 20.1978ZM40.4954 19.0833C40.6521 18.6585 40.7191 18.2009 40.7191 17.7273H38.7191C38.7191 18.015 38.6782 18.2307 38.619 18.3911L40.4954 19.0833ZM40.7191 17.7273C40.7191 17.2588 40.6542 16.8058 40.5004 16.3861L38.6225 17.0741C38.6789 17.2282 38.7191 17.44 38.7191 17.7273H40.7191ZM40.5004 16.3861C40.3429 15.9561 40.0901 15.5676 39.7176 15.2728L38.4762 16.8409C38.5129 16.8699 38.5698 16.9303 38.6225 17.0741L40.5004 16.3861ZM39.7176 15.2728C39.3115 14.9513 38.8324 14.8139 38.3427 14.8139V16.8139C38.4496 16.8139 38.4733 16.8385 38.4762 16.8409L39.7176 15.2728ZM38.3427 14.8139C37.8617 14.8139 37.3897 14.945 36.9856 15.2536L38.1997 16.843C38.2048 16.8391 38.2327 16.8139 38.3427 16.8139V14.8139ZM36.9803 15.2577C36.6051 15.5484 36.3522 15.9359 36.1922 16.3609L38.0641 17.0652C38.1201 16.9164 38.1768 16.8607 38.2051 16.8388L36.9803 15.2577ZM36.1922 16.3609C36.0322 16.7862 35.9663 17.2488 35.9663 17.7273H37.9663C37.9663 17.4273 38.0082 17.2138 38.0641 17.0652L36.1922 16.3609ZM44.0273 20.7188L43.5317 21.5873L43.5378 21.5907L44.0273 20.7188ZM42.9109 19.5511L42.0225 20.0103L42.0236 20.0123L42.9109 19.5511ZM42.9109 15.9844L42.0215 15.5273L42.9109 15.9844ZM44.0146 14.7955L43.5031 13.9362L43.5008 13.9375L44.0146 14.7955ZM46.8995 14.5781L46.5491 15.5148L46.5578 15.5179L46.8995 14.5781ZM47.8796 15.196L47.1761 15.9068L47.1798 15.9103L47.8796 15.196ZM48.5359 16.2358L47.5993 16.5862L47.6001 16.5883L48.5359 16.2358ZM48.7702 18.1918V19.1918H49.7702V18.1918H48.7702ZM43.2433 18.1918H42.2433V19.1918H43.2433V18.1918ZM43.2433 17.0668V16.0668H42.2433V17.0668H43.2433ZM47.0614 17.0668V18.0668H48.0614V17.0668H47.0614ZM46.891 16.3722L46.0197 16.863V16.863L46.891 16.3722ZM46.418 15.8991L45.9126 16.762L45.9198 16.7663L45.9271 16.7704L46.418 15.8991ZM44.9904 15.9162L45.5015 16.7757L45.5049 16.7737L44.9904 15.9162ZM44.4961 16.4233L45.3658 16.9169L45.3686 16.9119L44.4961 16.4233ZM44.3129 17.1264L43.3129 17.1154V17.1264H44.3129ZM44.4918 19.0355L43.5995 19.487L43.6039 19.4955L44.4918 19.0355ZM46.3498 19.6875L46.0287 18.7404L46.3498 19.6875ZM46.7802 19.4318L46.0905 18.7077V18.7077L46.7802 19.4318ZM47.0529 19.0142L47.1188 18.0164L46.3804 17.9676L46.1179 18.6595L47.0529 19.0142ZM48.7319 19.125L49.7103 19.3317L49.9487 18.2031L48.7977 18.1272L48.7319 19.125ZM48.2077 20.1818L47.456 19.5223L47.4556 19.5228L48.2077 20.1818ZM47.1935 20.8807L47.5649 21.8092L47.5682 21.8078L47.1935 20.8807ZM45.766 20.1278C45.2285 20.1278 44.8249 20.0197 44.5169 19.8468L43.5378 21.5907C44.2014 21.9633 44.9569 22.1278 45.766 22.1278V20.1278ZM44.5229 19.8502C44.2104 19.6718 43.9726 19.4256 43.7982 19.0899L42.0236 20.0123C42.3718 20.6823 42.8784 21.2145 43.5318 21.5873L44.5229 19.8502ZM43.7992 19.092C43.6252 18.7554 43.5188 18.3213 43.5188 17.7571H41.5188C41.5188 18.5736 41.6738 19.3356 42.0225 20.0103L43.7992 19.092ZM43.5188 17.7571C43.5188 17.2146 43.6235 16.7855 43.8003 16.4415L42.0215 15.5273C41.6756 16.2003 41.5188 16.953 41.5188 17.7571H43.5188ZM43.8003 16.4415C43.9793 16.0931 44.2197 15.8382 44.5283 15.6534L43.5008 13.9375C42.8606 14.3209 42.3651 14.8586 42.0215 15.5273L43.8003 16.4415ZM44.526 15.6547C44.8258 15.4763 45.203 15.3693 45.6935 15.3693V13.3693C44.8999 13.3693 44.1579 13.5464 43.5031 13.9362L44.526 15.6547ZM45.6935 15.3693C46.0161 15.3693 46.2984 15.421 46.5492 15.5147L47.2498 13.6415C46.7563 13.4569 46.2346 13.3693 45.6935 13.3693V15.3693ZM46.5578 15.5179C46.7997 15.6059 47.0023 15.7347 47.1761 15.9067L48.5831 14.4853C48.2001 14.1062 47.7493 13.8231 47.2412 13.6383L46.5578 15.5179ZM47.1798 15.9103C47.3434 16.0706 47.4875 16.2876 47.5993 16.5862L49.4725 15.8854C49.2717 15.3488 48.9784 14.8726 48.5795 14.4817L47.1798 15.9103ZM47.6001 16.5883C47.7045 16.8657 47.7702 17.2272 47.7702 17.6932H49.7702C49.7702 17.0456 49.6797 16.4355 49.4717 15.8833L47.6001 16.5883ZM47.7702 17.6932V18.1918H49.7702V17.6932H47.7702ZM48.7702 17.1918H43.2433V19.1918H48.7702V17.1918ZM44.2433 18.1918V17.0668H42.2433V18.1918H44.2433ZM43.2433 18.0668H47.0614V16.0668H43.2433V18.0668ZM48.0614 17.0668C48.0614 16.656 47.9707 16.2513 47.7622 15.8813L46.0197 16.863C46.0385 16.8964 46.0614 16.9548 46.0614 17.0668H48.0614ZM47.7622 15.8813C47.5589 15.5204 47.2697 15.2312 46.9088 15.0279L45.9271 16.7704C45.9697 16.7944 45.9958 16.8205 46.0197 16.863L47.7622 15.8813ZM46.9234 15.0363C46.5499 14.8175 46.1388 14.7244 45.7234 14.7244V16.7244C45.8363 16.7244 45.8883 16.7478 45.9126 16.762L46.9234 15.0363ZM45.7234 14.7244C45.2869 14.7244 44.8609 14.8277 44.4759 15.0587L45.5049 16.7737C45.546 16.749 45.6087 16.7244 45.7234 16.7244V14.7244ZM44.4793 15.0567C44.1184 15.2713 43.8289 15.5681 43.6236 15.9347L45.3686 16.9119C45.402 16.8523 45.442 16.8111 45.5015 16.7757L44.4793 15.0567ZM43.6264 15.9297C43.4177 16.2974 43.3175 16.6997 43.3129 17.1154L45.3128 17.1374C45.3139 17.036 45.3358 16.9697 45.3658 16.9169L43.6264 15.9297ZM43.3129 17.1264V18.196H45.3129V17.1264H43.3129ZM43.3129 18.196C43.3129 18.6419 43.3952 19.0832 43.5996 19.487L45.3841 18.584C45.3498 18.5162 45.3129 18.3978 45.3129 18.196H43.3129ZM43.6039 19.4955C43.8105 19.8942 44.1141 20.22 44.5077 20.4472L45.5072 18.7148C45.4577 18.6862 45.4175 18.6484 45.3797 18.5755L43.6039 19.4955ZM44.5077 20.4472C44.9076 20.6779 45.3496 20.7727 45.7958 20.7727V18.7727C45.6341 18.7727 45.5505 18.7398 45.5072 18.7148L44.5077 20.4472ZM45.7958 20.7727C46.0917 20.7727 46.3865 20.731 46.6708 20.6346L46.0287 18.7404C45.9779 18.7577 45.9034 18.7727 45.7958 18.7727V20.7727ZM46.6708 20.6346C46.9657 20.5346 47.2377 20.3771 47.4698 20.156L46.0905 18.7077C46.0841 18.7138 46.0691 18.7267 46.0287 18.7404L46.6708 20.6346ZM47.4698 20.156C47.705 19.932 47.8761 19.6637 47.9879 19.3689L46.1179 18.6595C46.1047 18.6943 46.094 18.7044 46.0905 18.7077L47.4698 20.156ZM46.9871 20.012L48.666 20.1228L48.7977 18.1272L47.1188 18.0164L46.9871 20.012ZM47.7535 18.9183C47.7026 19.1589 47.6037 19.354 47.456 19.5223L48.9594 20.8413C49.3402 20.4073 49.5907 19.8979 49.7103 19.3317L47.7535 18.9183ZM47.4556 19.5228C47.3099 19.6891 47.1073 19.837 46.8189 19.9535L47.5682 21.8078C48.1093 21.5892 48.5829 21.2711 48.9599 20.8408L47.4556 19.5228ZM46.8221 19.9522C46.5509 20.0607 46.2053 20.1278 45.766 20.1278V22.1278C46.4062 22.1278 47.0123 22.0302 47.5649 21.8092L46.8221 19.9522Z" fill="black" mask="url(#path-2-outside-1_5_13)"/>
</g>
</svg>
