<svg width="32" height="32" viewBox="0 0 32 32" fill="none" xmlns="http://www.w3.org/2000/svg">
<rect x="0.5" y="0.5" width="31" height="31" fill="white"/>
<rect x="0.5" y="0.5" width="31" height="31" stroke="#ECD9D9" stroke-linejoin="round"/>
<path d="M9 21V4" stroke="black" stroke-width="2"/>
<path d="M23 21V4" stroke="black" stroke-width="2"/>
<path d="M7 8H26" stroke="black" stroke-width="2"/>
<path d="M7 19H26" stroke="black" stroke-width="2"/>
<path d="M8.125 28.0994C7.53314 28.0994 7.02652 27.9822 6.60511 27.7479C6.18371 27.5111 5.86056 27.1821 5.63565 26.7607C5.41075 26.3369 5.2983 25.8456 5.2983 25.2869C5.2983 24.7282 5.41075 24.2382 5.63565 23.8168C5.86056 23.393 6.18371 23.0639 6.60511 22.8295C7.02652 22.5928 7.53314 22.4744 8.125 22.4744C8.66004 22.4744 9.12287 22.5715 9.51349 22.7656C9.90649 22.9574 10.2107 23.2296 10.4261 23.5824C10.6416 23.9328 10.7505 24.3447 10.7528 24.8182H8.93466C8.90862 24.5317 8.82576 24.3139 8.68608 24.1648C8.54877 24.0133 8.37121 23.9375 8.15341 23.9375C7.98295 23.9375 7.83381 23.9872 7.70597 24.0866C7.57813 24.1837 7.47869 24.3317 7.40767 24.5305C7.33665 24.727 7.30114 24.9744 7.30114 25.2727C7.30114 25.571 7.33665 25.8196 7.40767 26.0185C7.47869 26.215 7.57813 26.3629 7.70597 26.4624C7.83381 26.5594 7.98295 26.608 8.15341 26.608C8.29782 26.608 8.42566 26.5748 8.53693 26.5085C8.6482 26.4399 8.73816 26.3404 8.80682 26.2102C8.87784 26.0777 8.92045 25.9167 8.93466 25.7273H10.7528C10.7457 26.2079 10.6357 26.6269 10.4226 26.9844C10.2095 27.3395 9.90767 27.6141 9.51705 27.8082C9.12879 28.0024 8.66477 28.0994 8.125 28.0994ZM11.5616 28V22.5455H13.465V23.5824H13.5218C13.6213 23.1989 13.7787 22.9183 13.9941 22.7408C14.2119 22.5632 14.4664 22.4744 14.7576 22.4744C14.8429 22.4744 14.9269 22.4815 15.0098 22.4957C15.095 22.5076 15.1767 22.5253 15.2548 22.549V24.2216C15.1577 24.1884 15.0382 24.1636 14.8961 24.147C14.7541 24.1304 14.6322 24.1222 14.5304 24.1222C14.3386 24.1222 14.1658 24.166 14.0119 24.2536C13.8604 24.3388 13.7408 24.4595 13.6532 24.6158C13.5656 24.7696 13.5218 24.9508 13.5218 25.1591V28H11.5616ZM18.2129 28.0994C17.621 28.0994 17.1144 27.9822 16.693 27.7479C16.2716 27.5111 15.9484 27.1821 15.7235 26.7607C15.4986 26.3369 15.3862 25.8456 15.3862 25.2869C15.3862 24.7282 15.4986 24.2382 15.7235 23.8168C15.9484 23.393 16.2716 23.0639 16.693 22.8295C17.1144 22.5928 17.621 22.4744 18.2129 22.4744C18.8047 22.4744 19.3114 22.5928 19.7328 22.8295C20.1542 23.0639 20.4773 23.393 20.7022 23.8168C20.9271 24.2382 21.0396 24.7282 21.0396 25.2869C21.0396 25.8456 20.9271 26.3369 20.7022 26.7607C20.4773 27.1821 20.1542 27.5111 19.7328 27.7479C19.3114 27.9822 18.8047 28.0994 18.2129 28.0994ZM18.2271 26.6506C18.3928 26.6506 18.536 26.5949 18.6568 26.4837C18.7775 26.3724 18.871 26.2138 18.9373 26.0078C19.0036 25.8018 19.0368 25.5568 19.0368 25.2727C19.0368 24.9863 19.0036 24.7412 18.9373 24.5376C18.871 24.3317 18.7775 24.1731 18.6568 24.0618C18.536 23.9505 18.3928 23.8949 18.2271 23.8949C18.0519 23.8949 17.9016 23.9505 17.7761 24.0618C17.6506 24.1731 17.5547 24.3317 17.4885 24.5376C17.4222 24.7412 17.389 24.9863 17.389 25.2727C17.389 25.5568 17.4222 25.8018 17.4885 26.0078C17.5547 26.2138 17.6506 26.3724 17.7761 26.4837C17.9016 26.5949 18.0519 26.6506 18.2271 26.6506ZM21.835 30.0455V22.5455H23.7811V23.4972H23.8237C23.8947 23.3125 23.9989 23.1432 24.1362 22.9893C24.2735 22.8331 24.444 22.7088 24.6475 22.6165C24.8511 22.5218 25.0879 22.4744 25.3578 22.4744C25.7176 22.4744 26.0597 22.5703 26.3841 22.7621C26.7108 22.9538 26.9759 23.2557 27.1795 23.6676C27.3855 24.0795 27.4885 24.6146 27.4885 25.2727C27.4885 25.9025 27.3902 26.4245 27.1937 26.8388C26.9996 27.2531 26.7392 27.562 26.4125 27.7656C26.0881 27.9692 25.7318 28.071 25.3436 28.071C25.0879 28.071 24.8594 28.0296 24.6582 27.9467C24.4593 27.8615 24.2889 27.7467 24.1468 27.6023C24.0072 27.4555 23.8994 27.2898 23.8237 27.1051H23.7953V30.0455H21.835ZM23.7527 25.2727C23.7527 25.5379 23.787 25.7675 23.8556 25.9616C23.9267 26.1534 24.0261 26.3026 24.1539 26.4091C24.2842 26.5133 24.4392 26.5653 24.6191 26.5653C24.7991 26.5653 24.9518 26.5144 25.0772 26.4126C25.2051 26.3085 25.3021 26.1605 25.3684 25.9688C25.4371 25.7746 25.4714 25.5426 25.4714 25.2727C25.4714 25.0028 25.4371 24.772 25.3684 24.5803C25.3021 24.3861 25.2051 24.2382 25.0772 24.1364C24.9518 24.0322 24.7991 23.9801 24.6191 23.9801C24.4392 23.9801 24.2842 24.0322 24.1539 24.1364C24.0261 24.2382 23.9267 24.3861 23.8556 24.5803C23.787 24.772 23.7527 25.0028 23.7527 25.2727Z" fill="black"/>
</svg>
