<svg width="30" height="30" viewBox="0 0 30 30" fill="none" xmlns="http://www.w3.org/2000/svg">
<rect width="30" height="30" fill="white"/>
<path d="M6.77273 20H3.36364L7.20455 8.36364H11.5227L15.3636 20H11.9545L9.40909 11.5682H9.31818L6.77273 20ZM6.13636 15.4091H12.5455V17.7727H6.13636V15.4091ZM18.9616 20.1364C18.4048 20.1364 17.9124 20.0455 17.4844 19.8636C17.0601 19.678 16.7268 19.3977 16.4844 19.0227C16.242 18.6477 16.1207 18.1705 16.1207 17.5909C16.1207 17.1136 16.2022 16.7064 16.3651 16.3693C16.5279 16.0284 16.7552 15.75 17.0469 15.5341C17.3385 15.3182 17.6776 15.1534 18.0639 15.0398C18.4541 14.9261 18.8745 14.8523 19.3253 14.8182C19.8139 14.7803 20.206 14.7348 20.5014 14.6818C20.8007 14.625 21.0166 14.5473 21.1491 14.4489C21.2817 14.3466 21.348 14.2121 21.348 14.0455V14.0227C21.348 13.7955 21.2609 13.6212 21.0866 13.5C20.9124 13.3788 20.6889 13.3182 20.4162 13.3182C20.117 13.3182 19.8726 13.3845 19.6832 13.517C19.4976 13.6458 19.3859 13.8447 19.348 14.1136H16.4616C16.4995 13.5833 16.6681 13.0947 16.9673 12.6477C17.2704 12.197 17.7116 11.8371 18.2912 11.5682C18.8707 11.2955 19.5942 11.1591 20.4616 11.1591C21.0866 11.1591 21.6473 11.233 22.1435 11.3807C22.6397 11.5246 23.062 11.7273 23.4105 11.9886C23.759 12.2462 24.0241 12.5492 24.206 12.8977C24.3916 13.2424 24.4844 13.6174 24.4844 14.0227V20H21.5526V18.7727H21.4844C21.3101 19.0985 21.098 19.3617 20.848 19.5625C20.6018 19.7633 20.3196 19.9091 20.0014 20C19.687 20.0909 19.3404 20.1364 18.9616 20.1364ZM19.9844 18.1591C20.223 18.1591 20.4465 18.1098 20.6548 18.0114C20.867 17.9129 21.0393 17.7708 21.1719 17.5852C21.3045 17.3996 21.3707 17.1742 21.3707 16.9091V16.1818C21.2874 16.2159 21.1984 16.2481 21.1037 16.2784C21.0128 16.3087 20.9143 16.3371 20.8082 16.3636C20.706 16.3902 20.5961 16.4148 20.4787 16.4375C20.3651 16.4602 20.2457 16.4811 20.1207 16.5C19.8783 16.5379 19.6795 16.6004 19.5241 16.6875C19.3726 16.7708 19.259 16.875 19.1832 17C19.1113 17.1212 19.0753 17.2576 19.0753 17.4091C19.0753 17.6515 19.1605 17.8371 19.331 17.9659C19.5014 18.0947 19.7192 18.1591 19.9844 18.1591Z" fill="black"/>
</svg>
