<svg width="32" height="32" viewBox="0 0 32 32" fill="none" xmlns="http://www.w3.org/2000/svg">
<rect x="0.5" y="0.5" width="31" height="31" fill="white"/>
<rect x="0.5" y="0.5" width="31" height="31" stroke="#ECD9D9" stroke-linejoin="round"/>
<path d="M9.29143 15.3252C8.90171 15.7165 8.90301 16.3497 9.29434 16.7394L15.6714 23.0903C16.0627 23.48 16.6959 23.4787 17.0856 23.0874C17.4753 22.696 17.474 22.0629 17.0827 21.6732L11.4142 16.028L17.0594 10.3595C17.4491 9.96814 17.4478 9.33498 17.0565 8.94526C16.6652 8.55554 16.032 8.55684 15.6423 8.94817L9.29143 15.3252ZM24.9979 15L9.99793 15.0309L10.002 17.0309L25.0021 17L24.9979 15Z" fill="black"/>
</svg>
