<svg width="40" height="40" viewBox="0 0 40 40" fill="none" xmlns="http://www.w3.org/2000/svg">
<g filter="url(#filter0_d_6_27)">
<rect x="4.5" y="0.5" width="31" height="31" fill="white"/>
<rect x="4.5" y="0.5" width="31" height="31" stroke="#ECD9D9" stroke-miterlimit="2.9238" stroke-linecap="round"/>
<g style="mix-blend-mode:darken">
<path d="M9 24H30.5" stroke="black" stroke-width="3" stroke-linejoin="round"/>
</g>
<g style="mix-blend-mode:darken">
<path d="M13.2869 11.7273V19H11.5504V11.7273H13.2869ZM14.3922 19V13.5455H16.1287V19H14.3922ZM15.2623 12.9098C15.0184 12.9098 14.8089 12.8293 14.6337 12.6683C14.4585 12.505 14.3709 12.3085 14.3709 12.0788C14.3709 11.8516 14.4585 11.6574 14.6337 11.4964C14.8089 11.3331 15.0184 11.2514 15.2623 11.2514C15.5085 11.2514 15.718 11.3331 15.8908 11.4964C16.066 11.6574 16.1536 11.8516 16.1536 12.0788C16.1536 12.3085 16.066 12.505 15.8908 12.6683C15.718 12.8293 15.5085 12.9098 15.2623 12.9098ZM18.9705 15.8892V19H17.234V13.5455H18.8853V14.5469H18.9457C19.0664 14.2131 19.2724 13.9515 19.5636 13.7621C19.8548 13.5703 20.2016 13.4744 20.604 13.4744C20.9876 13.4744 21.3202 13.5608 21.6019 13.7337C21.886 13.9041 22.1062 14.1432 22.2624 14.451C22.421 14.7564 22.4992 15.1139 22.4968 15.5234V19H20.7603V15.8643C20.7627 15.5613 20.6857 15.3246 20.5295 15.1541C20.3756 14.9837 20.1613 14.8984 19.8867 14.8984C19.7044 14.8984 19.5434 14.9387 19.4038 15.0192C19.2665 15.0973 19.1599 15.2098 19.0842 15.3565C19.0108 15.5033 18.9729 15.6809 18.9705 15.8892ZM26.1216 19.103C25.5511 19.103 25.0587 18.9905 24.6444 18.7656C24.2324 18.5384 23.9152 18.2152 23.6926 17.7962C23.4725 17.3748 23.3624 16.8741 23.3624 16.294C23.3624 15.7306 23.4737 15.2382 23.6962 14.8168C23.9187 14.393 24.2324 14.0639 24.6373 13.8295C25.0421 13.5928 25.5191 13.4744 26.0684 13.4744C26.4566 13.4744 26.8117 13.5348 27.1337 13.6555C27.4557 13.7763 27.7338 13.955 27.9682 14.1918C28.2026 14.4285 28.3849 14.7209 28.5151 15.0689C28.6453 15.4145 28.7104 15.8111 28.7104 16.2585V16.6918H23.9696V15.6832H27.0946C27.0923 15.4986 27.0485 15.334 26.9632 15.1896C26.878 15.0452 26.7608 14.9328 26.6117 14.8523C26.4649 14.7694 26.2956 14.728 26.1039 14.728C25.9097 14.728 25.7357 14.7718 25.5819 14.8594C25.428 14.9446 25.306 15.0618 25.2161 15.2109C25.1261 15.3577 25.0788 15.5246 25.074 15.7116V16.7379C25.074 16.9605 25.1178 17.1558 25.2054 17.3239C25.293 17.4896 25.4173 17.6186 25.5783 17.7109C25.7393 17.8033 25.931 17.8494 26.1536 17.8494C26.3075 17.8494 26.4471 17.8281 26.5726 17.7855C26.6981 17.7429 26.8058 17.6802 26.8958 17.5973C26.9857 17.5144 27.0532 17.4126 27.0982 17.2919L28.6926 17.3381C28.6264 17.6955 28.4808 18.0069 28.2559 18.272C28.0333 18.5348 27.7409 18.7396 27.3787 18.8864C27.0165 19.0308 26.5975 19.103 26.1216 19.103Z" fill="black"/>
</g>
</g>
<defs>
<filter id="filter0_d_6_27" x="0" y="0" width="40" height="40" filterUnits="userSpaceOnUse" color-interpolation-filters="sRGB">
<feFlood flood-opacity="0" result="BackgroundImageFix"/>
<feColorMatrix in="SourceAlpha" type="matrix" values="0 0 0 0 0 0 0 0 0 0 0 0 0 0 0 0 0 0 127 0" result="hardAlpha"/>
<feOffset dy="4"/>
<feGaussianBlur stdDeviation="2"/>
<feComposite in2="hardAlpha" operator="out"/>
<feColorMatrix type="matrix" values="0 0 0 0 0 0 0 0 0 0 0 0 0 0 0 0 0 0 0.25 0"/>
<feBlend mode="normal" in2="BackgroundImageFix" result="effect1_dropShadow_6_27"/>
<feBlend mode="normal" in="SourceGraphic" in2="effect1_dropShadow_6_27" result="shape"/>
</filter>
</defs>
</svg>
