<svg width="32" height="32" viewBox="0 0 32 32" fill="none" xmlns="http://www.w3.org/2000/svg">
<rect x="0.5" y="0.5" width="31" height="31" fill="white"/>
<rect x="0.5" y="0.5" width="31" height="31" stroke="#ECD9D9" stroke-linejoin="round"/>
<g style="mix-blend-mode:darken">
<path d="M9 24H22" stroke="black" stroke-width="3" stroke-linejoin="round"/>
</g>
<g style="mix-blend-mode:darken">
<mask id="path-3-outside-1_10_71" maskUnits="userSpaceOnUse" x="10" y="10" width="11" height="10" fill="black">
<rect fill="white" x="10" y="10" width="11" height="10"/>
<path d="M12.206 11.7273H13.9283L15.5866 14.8594H15.6577L17.3161 11.7273H19.0384L16.3857 16.429V19H14.8587V16.429L12.206 11.7273Z"/>
</mask>
<path d="M12.206 11.7273V10.7273H10.4936L11.335 12.2187L12.206 11.7273ZM13.9283 11.7273L14.812 11.2593L14.5303 10.7273H13.9283V11.7273ZM15.5866 14.8594L14.7029 15.3273L14.9846 15.8594H15.5866V14.8594ZM15.6577 14.8594V15.8594H16.2597L16.5414 15.3273L15.6577 14.8594ZM17.3161 11.7273V10.7273H16.714L16.4323 11.2593L17.3161 11.7273ZM19.0384 11.7273L19.9093 12.2187L20.7507 10.7273H19.0384V11.7273ZM16.3857 16.429L15.5147 15.9376L15.3857 16.1663V16.429H16.3857ZM16.3857 19V20H17.3857V19H16.3857ZM14.8587 19H13.8587V20H14.8587V19ZM14.8587 16.429H15.8587V16.1663L15.7296 15.9376L14.8587 16.429ZM12.206 12.7273H13.9283V10.7273H12.206V12.7273ZM13.0445 12.1952L14.7029 15.3273L16.4704 14.3914L14.812 11.2593L13.0445 12.1952ZM15.5866 15.8594H15.6577V13.8594H15.5866V15.8594ZM16.5414 15.3273L18.1998 12.1952L16.4323 11.2593L14.7739 14.3914L16.5414 15.3273ZM17.3161 12.7273H19.0384V10.7273H17.3161V12.7273ZM18.1674 11.2359L15.5147 15.9376L17.2566 16.9204L19.9093 12.2187L18.1674 11.2359ZM15.3857 16.429V19H17.3857V16.429H15.3857ZM16.3857 18H14.8587V20H16.3857V18ZM15.8587 19V16.429H13.8587V19H15.8587ZM15.7296 15.9376L13.0769 11.2359L11.335 12.2187L13.9877 16.9204L15.7296 15.9376Z" fill="black" mask="url(#path-3-outside-1_10_71)"/>
</g>
</svg>
