<svg width="72" height="32" viewBox="0 0 72 32" fill="none" xmlns="http://www.w3.org/2000/svg">
<rect x="0.5" y="0.5" width="71" height="31" fill="white"/>
<rect x="0.5" y="0.5" width="71" height="31" stroke="#ECD9D9" stroke-linejoin="round"/>
<g style="mix-blend-mode:darken">
<mask id="path-2-outside-1_5_20" maskUnits="userSpaceOnUse" x="15" y="10" width="42" height="13" fill="black">
<rect fill="white" x="15" y="10" width="42" height="13"/>
<path d="M20.2638 14.4545V15.8182H16.2241V14.4545H20.2638ZM17.1488 21V13.9815C17.1488 13.5071 17.2411 13.1136 17.4258 12.8011C17.6133 12.4886 17.869 12.2543 18.1928 12.098C18.5167 11.9418 18.8846 11.8636 19.2965 11.8636C19.5749 11.8636 19.8292 11.8849 20.0593 11.9276C20.2923 11.9702 20.4656 12.0085 20.5792 12.0426L20.2553 13.4062C20.1843 13.3835 20.0962 13.3622 19.9911 13.3423C19.8888 13.3224 19.7837 13.3125 19.6758 13.3125C19.4087 13.3125 19.2227 13.375 19.1175 13.5C19.0124 13.6222 18.9599 13.794 18.9599 14.0156V21H17.1488ZM25.2166 16.696V18.1364H21.2365V16.696H25.2166ZM29.7209 21.1278C29.0504 21.1278 28.4737 20.9858 27.9908 20.7017C27.5107 20.4148 27.1413 20.017 26.8828 19.5085C26.6271 19 26.4993 18.4148 26.4993 17.7528C26.4993 17.0824 26.6286 16.4943 26.8871 15.9886C27.1484 15.4801 27.5192 15.0838 27.9993 14.7997C28.4794 14.5128 29.0504 14.3693 29.7124 14.3693C30.2834 14.3693 30.7834 14.473 31.2124 14.6804C31.6413 14.8878 31.9808 15.179 32.2308 15.554C32.4808 15.929 32.6186 16.3693 32.6442 16.875H30.9311C30.8828 16.5483 30.755 16.2855 30.5476 16.0866C30.343 15.8849 30.0746 15.7841 29.7422 15.7841C29.4609 15.7841 29.2152 15.8608 29.005 16.0142C28.7976 16.1648 28.6357 16.3849 28.5192 16.6747C28.4027 16.9645 28.3445 17.3153 28.3445 17.7273C28.3445 18.1449 28.4013 18.5 28.5149 18.7926C28.6314 19.0852 28.7947 19.3082 29.005 19.4616C29.2152 19.6151 29.4609 19.6918 29.7422 19.6918C29.9496 19.6918 30.1357 19.6491 30.3004 19.5639C30.468 19.4787 30.6058 19.3551 30.7138 19.1932C30.8246 19.0284 30.897 18.831 30.9311 18.6009H32.6442C32.6158 19.1009 32.4794 19.5412 32.2351 19.9219C31.9936 20.2997 31.6598 20.5952 31.2337 20.8082C30.8075 21.0213 30.3033 21.1278 29.7209 21.1278ZM36.7638 21.1278C36.1019 21.1278 35.5295 20.9872 35.0465 20.706C34.5664 20.4219 34.1957 20.027 33.9343 19.5213C33.6729 19.0128 33.5423 18.4233 33.5423 17.7528C33.5423 17.0767 33.6729 16.4858 33.9343 15.9801C34.1957 15.4716 34.5664 15.0767 35.0465 14.7955C35.5295 14.5114 36.1019 14.3693 36.7638 14.3693C37.4258 14.3693 37.9968 14.5114 38.4769 14.7955C38.9599 15.0767 39.332 15.4716 39.5934 15.9801C39.8548 16.4858 39.9854 17.0767 39.9854 17.7528C39.9854 18.4233 39.8548 19.0128 39.5934 19.5213C39.332 20.027 38.9599 20.4219 38.4769 20.706C37.9968 20.9872 37.4258 21.1278 36.7638 21.1278ZM36.7724 19.7216C37.0735 19.7216 37.3249 19.6364 37.5266 19.4659C37.7283 19.2926 37.8803 19.0568 37.9826 18.7585C38.0877 18.4602 38.1403 18.1207 38.1403 17.7401C38.1403 17.3594 38.0877 17.0199 37.9826 16.7216C37.8803 16.4233 37.7283 16.1875 37.5266 16.0142C37.3249 15.8409 37.0735 15.7543 36.7724 15.7543C36.4684 15.7543 36.2127 15.8409 36.0053 16.0142C35.8008 16.1875 35.646 16.4233 35.5408 16.7216C35.4386 17.0199 35.3874 17.3594 35.3874 17.7401C35.3874 18.1207 35.4386 18.4602 35.5408 18.7585C35.646 19.0568 35.8008 19.2926 36.0053 19.4659C36.2127 19.6364 36.4684 19.7216 36.7724 19.7216ZM42.9812 12.2727V21H41.1658V12.2727H42.9812ZM47.3928 21.1278C46.7308 21.1278 46.1584 20.9872 45.6754 20.706C45.1953 20.4219 44.8246 20.027 44.5632 19.5213C44.3018 19.0128 44.1712 18.4233 44.1712 17.7528C44.1712 17.0767 44.3018 16.4858 44.5632 15.9801C44.8246 15.4716 45.1953 15.0767 45.6754 14.7955C46.1584 14.5114 46.7308 14.3693 47.3928 14.3693C48.0547 14.3693 48.6257 14.5114 49.1058 14.7955C49.5888 15.0767 49.9609 15.4716 50.2223 15.9801C50.4837 16.4858 50.6143 17.0767 50.6143 17.7528C50.6143 18.4233 50.4837 19.0128 50.2223 19.5213C49.9609 20.027 49.5888 20.4219 49.1058 20.706C48.6257 20.9872 48.0547 21.1278 47.3928 21.1278ZM47.4013 19.7216C47.7024 19.7216 47.9538 19.6364 48.1555 19.4659C48.3572 19.2926 48.5092 19.0568 48.6115 18.7585C48.7166 18.4602 48.7692 18.1207 48.7692 17.7401C48.7692 17.3594 48.7166 17.0199 48.6115 16.7216C48.5092 16.4233 48.3572 16.1875 48.1555 16.0142C47.9538 15.8409 47.7024 15.7543 47.4013 15.7543C47.0973 15.7543 46.8416 15.8409 46.6342 16.0142C46.4297 16.1875 46.2749 16.4233 46.1697 16.7216C46.0675 17.0199 46.0163 17.3594 46.0163 17.7401C46.0163 18.1207 46.0675 18.4602 46.1697 18.7585C46.2749 19.0568 46.4297 19.2926 46.6342 19.4659C46.8416 19.6364 47.0973 19.7216 47.4013 19.7216ZM51.7947 21V14.4545H53.5547V15.5966H53.6229C53.7422 15.1903 53.9425 14.8835 54.2237 14.6761C54.505 14.4659 54.8288 14.3608 55.1953 14.3608C55.2862 14.3608 55.3842 14.3665 55.4893 14.3778C55.5945 14.3892 55.6868 14.4048 55.7663 14.4247V16.0355C55.6811 16.0099 55.5632 15.9872 55.4126 15.9673C55.2621 15.9474 55.1243 15.9375 54.9993 15.9375C54.7322 15.9375 54.4936 15.9957 54.2834 16.1122C54.076 16.2259 53.9112 16.3849 53.7891 16.5895C53.6697 16.794 53.6101 17.0298 53.6101 17.2969V21H51.7947Z"/>
</mask>
<path d="M20.2638 14.4545H21.2638V13.4545H20.2638V14.4545ZM20.2638 15.8182V16.8182H21.2638V15.8182H20.2638ZM16.2241 15.8182H15.2241V16.8182H16.2241V15.8182ZM16.2241 14.4545V13.4545H15.2241V14.4545H16.2241ZM17.1488 21H16.1488V22H17.1488V21ZM17.4258 12.8011L16.5683 12.2866L16.5649 12.2924L17.4258 12.8011ZM18.1928 12.098L17.7583 11.1974L18.1928 12.098ZM20.0593 11.9276L19.8772 12.9108L19.8794 12.9112L20.0593 11.9276ZM20.5792 12.0426L21.5521 12.2737L21.7701 11.3559L20.8665 11.0848L20.5792 12.0426ZM20.2553 13.4062L19.9505 14.3587L20.9788 14.6877L21.2283 13.6373L20.2553 13.4062ZM19.9911 13.3423L19.8003 14.324L19.8052 14.3249L19.9911 13.3423ZM19.1175 13.5L19.8756 14.1523L19.8829 14.1436L19.1175 13.5ZM18.9599 21V22H19.9599V21H18.9599ZM19.2638 14.4545V15.8182H21.2638V14.4545H19.2638ZM20.2638 14.8182H16.2241V16.8182H20.2638V14.8182ZM17.2241 15.8182V14.4545H15.2241V15.8182H17.2241ZM16.2241 15.4545H20.2638V13.4545H16.2241V15.4545ZM18.1488 21V13.9815H16.1488V21H18.1488ZM18.1488 13.9815C18.1488 13.6325 18.217 13.4279 18.2867 13.3099L16.5649 12.2924C16.2653 12.7994 16.1488 13.3817 16.1488 13.9815H18.1488ZM18.2833 13.3156C18.3719 13.1679 18.4816 13.069 18.6274 12.9987L17.7583 11.1974C17.2563 11.4395 16.8547 11.8093 16.5683 12.2866L18.2833 13.3156ZM18.6274 12.9987C18.7972 12.9167 19.0131 12.8636 19.2965 12.8636V10.8636C18.756 10.8636 18.2361 10.9668 17.7583 11.1974L18.6274 12.9987ZM19.2965 12.8636C19.525 12.8636 19.7172 12.8812 19.8772 12.9108L20.2414 10.9443C19.9412 10.8887 19.6249 10.8636 19.2965 10.8636V12.8636ZM19.8794 12.9112C20.1042 12.9524 20.2331 12.9828 20.2918 13.0004L20.8665 11.0848C20.698 11.0342 20.4803 10.988 20.2392 10.9439L19.8794 12.9112ZM19.6063 11.8115L19.2824 13.1752L21.2283 13.6373L21.5521 12.2737L19.6063 11.8115ZM20.5601 12.4538C20.4374 12.4146 20.3067 12.3843 20.177 12.3598L19.8052 14.3249C19.8858 14.3401 19.9312 14.3525 19.9505 14.3587L20.5601 12.4538ZM20.182 12.3607C20.0146 12.3282 19.8455 12.3125 19.6758 12.3125V14.3125C19.722 14.3125 19.7631 14.3167 19.8003 14.3239L20.182 12.3607ZM19.6758 12.3125C19.2973 12.3125 18.7402 12.395 18.3522 12.8564L19.8829 14.1436C19.7954 14.2477 19.7001 14.292 19.6543 14.3073C19.6152 14.3205 19.6142 14.3125 19.6758 14.3125V12.3125ZM18.3595 12.8478C18.0483 13.2094 17.9599 13.6444 17.9599 14.0156H19.9599C19.9599 13.9818 19.9641 13.9851 19.9556 14.0129C19.9461 14.0441 19.9232 14.0969 19.8756 14.1522L18.3595 12.8478ZM17.9599 14.0156V21H19.9599V14.0156H17.9599ZM18.9599 20H17.1488V22H18.9599V20ZM25.2166 16.696H26.2166V15.696H25.2166V16.696ZM25.2166 18.1364V19.1364H26.2166V18.1364H25.2166ZM21.2365 18.1364H20.2365V19.1364H21.2365V18.1364ZM21.2365 16.696V15.696H20.2365V16.696H21.2365ZM24.2166 16.696V18.1364H26.2166V16.696H24.2166ZM25.2166 17.1364H21.2365V19.1364H25.2166V17.1364ZM22.2365 18.1364V16.696H20.2365V18.1364H22.2365ZM21.2365 17.696H25.2166V15.696H21.2365V17.696ZM27.9908 20.7017L27.4778 21.5601L27.4837 21.5636L27.9908 20.7017ZM26.8828 19.5085L25.9894 19.9577L25.9914 19.9617L26.8828 19.5085ZM26.8871 15.9886L25.9977 15.5315L25.9967 15.5334L26.8871 15.9886ZM27.9993 14.7997L28.5085 15.6603L28.5123 15.6581L27.9993 14.7997ZM31.2124 14.6804L31.6476 13.7801L31.6476 13.7801L31.2124 14.6804ZM32.6442 16.875V17.875H33.696L33.6429 16.8245L32.6442 16.875ZM30.9311 16.875L29.9419 17.0212L30.0681 17.875H30.9311V16.875ZM30.5476 16.0866L29.8454 16.7988L29.8555 16.8084L30.5476 16.0866ZM29.005 16.0142L29.5925 16.8234L29.5944 16.822L29.005 16.0142ZM28.5149 18.7926L27.5827 19.1546L27.5858 19.1624L28.5149 18.7926ZM29.005 19.4616L29.5944 18.6539V18.6539L29.005 19.4616ZM30.3004 19.5639L29.8472 18.6725L29.841 18.6757L30.3004 19.5639ZM30.7138 19.1932L29.8839 18.6352L29.8817 18.6385L30.7138 19.1932ZM30.9311 18.6009V17.6009H30.0683L29.9419 18.4543L30.9311 18.6009ZM32.6442 18.6009L33.6426 18.6576L33.7026 17.6009H32.6442V18.6009ZM32.2351 19.9219L31.3935 19.3818L31.3925 19.3834L32.2351 19.9219ZM31.2337 20.8082L30.7865 19.9138L31.2337 20.8082ZM29.7209 20.1278C29.1935 20.1278 28.7993 20.0172 28.4978 19.8398L27.4837 21.5636C28.1481 21.9544 28.9073 22.1278 29.7209 22.1278V20.1278ZM28.5038 19.8433C28.1888 19.6551 27.9491 19.3994 27.7742 19.0553L25.9914 19.9617C26.3335 20.6347 26.8325 21.1744 27.4778 21.5601L28.5038 19.8433ZM27.7762 19.0593C27.6012 18.7112 27.4993 18.2842 27.4993 17.7528H25.4993C25.4993 18.5454 25.653 19.2888 25.9894 19.9577L27.7762 19.0593ZM27.4993 17.7528C27.4993 17.2122 27.6029 16.7853 27.7775 16.4438L25.9967 15.5334C25.6542 16.2034 25.4993 16.9526 25.4993 17.7528H27.4993ZM27.7765 16.4458C27.9539 16.1005 28.1948 15.846 28.5085 15.6603L27.49 13.9391C26.8435 14.3217 26.3429 14.8598 25.9977 15.5315L27.7765 16.4458ZM28.5123 15.6581C28.811 15.4796 29.1977 15.3693 29.7124 15.3693V13.3693C28.9032 13.3693 28.1478 13.546 27.4863 13.9413L28.5123 15.6581ZM29.7124 15.3693C30.1622 15.3693 30.5082 15.4507 30.7771 15.5807L31.6476 13.7801C31.0586 13.4953 30.4046 13.3693 29.7124 13.3693V15.3693ZM30.7771 15.5807C31.0549 15.715 31.2535 15.8908 31.3988 16.1087L33.0629 14.9993C32.7081 14.4671 32.2278 14.0606 31.6476 13.7801L30.7771 15.5807ZM31.3988 16.1087C31.5369 16.3158 31.6278 16.5771 31.6455 16.9255L33.6429 16.8245C33.6094 16.1616 33.4248 15.5421 33.0629 14.9993L31.3988 16.1087ZM32.6442 15.875H30.9311V17.875H32.6442V15.875ZM31.9204 16.7288C31.8447 16.2169 31.6306 15.7397 31.2397 15.3649L29.8555 16.8084C29.8793 16.8313 29.9209 16.8797 29.9419 17.0212L31.9204 16.7288ZM31.2497 15.3746C30.8286 14.9593 30.2928 14.7841 29.7422 14.7841V16.7841C29.8071 16.7841 29.8357 16.7938 29.8412 16.7959C29.8442 16.797 29.8444 16.7974 29.8434 16.7967C29.8423 16.796 29.8429 16.7962 29.8454 16.7987L31.2497 15.3746ZM29.7422 14.7841C29.2671 14.7841 28.8109 14.9179 28.4155 15.2064L29.5944 16.822C29.6195 16.8037 29.6548 16.7841 29.7422 16.7841V14.7841ZM28.4175 15.205C28.0276 15.488 27.7626 15.8758 27.5913 16.3018L29.447 17.0477C29.5087 16.8941 29.5676 16.8415 29.5925 16.8234L28.4175 15.205ZM27.5913 16.3018C27.4146 16.7413 27.3445 17.2262 27.3445 17.7273H29.3445C29.3445 17.4045 29.3908 17.1877 29.447 17.0477L27.5913 16.3018ZM27.3445 17.7273C27.3445 18.2301 27.4122 18.7154 27.5827 19.1546L29.4471 18.4306C29.3904 18.2846 29.3445 18.0596 29.3445 17.7273H27.3445ZM27.5858 19.1624C27.7572 19.5931 28.0238 19.9836 28.4155 20.2694L29.5944 18.6539C29.5657 18.6329 29.5055 18.5773 29.444 18.4228L27.5858 19.1624ZM28.4155 20.2694C28.8109 20.558 29.2671 20.6918 29.7422 20.6918V18.6918C29.6548 18.6918 29.6195 18.6721 29.5944 18.6539L28.4155 20.2694ZM29.7422 20.6918C30.0903 20.6918 30.437 20.6191 30.7598 20.4521L29.841 18.6757C29.8343 18.6792 29.8088 18.6918 29.7422 18.6918V20.6918ZM30.7537 20.4553C31.0799 20.2894 31.3461 20.0475 31.5458 19.7479L29.8817 18.6385C29.8656 18.6627 29.8562 18.6679 29.8472 18.6725L30.7537 20.4553ZM31.5436 19.7512C31.7506 19.4434 31.8681 19.0997 31.9203 18.7474L29.9419 18.4543C29.9259 18.5622 29.8985 18.6135 29.8839 18.6352L31.5436 19.7512ZM30.9311 19.6009H32.6442V17.6009H30.9311V19.6009ZM31.6458 18.5441C31.6261 18.891 31.5351 19.1611 31.3935 19.3818L33.0767 20.462C33.4237 19.9213 33.6055 19.3107 33.6426 18.6576L31.6458 18.5441ZM31.3925 19.3834C31.2544 19.5994 31.0616 19.7763 30.7865 19.9138L31.6809 21.7027C32.258 21.4141 32.7328 21 33.0777 20.4604L31.3925 19.3834ZM30.7865 19.9138C30.5267 20.0437 30.182 20.1278 29.7209 20.1278V22.1278C30.4245 22.1278 31.0884 21.9989 31.6809 21.7027L30.7865 19.9138ZM35.0465 20.706L34.5373 21.5666L34.5433 21.5701L35.0465 20.706ZM33.9343 19.5213L33.0449 19.9784L33.0459 19.9805L33.9343 19.5213ZM33.9343 15.9801L34.8227 16.4393L34.8237 16.4372L33.9343 15.9801ZM35.0465 14.7955L35.552 15.6583L35.5535 15.6574L35.0465 14.7955ZM38.4769 14.7955L37.9677 15.6561L37.9737 15.6596L38.4769 14.7955ZM39.5934 15.9801L38.704 16.4372L38.705 16.4393L39.5934 15.9801ZM39.5934 19.5213L40.4818 19.9805L40.4828 19.9784L39.5934 19.5213ZM38.4769 20.706L38.9824 21.5688L38.9839 21.5679L38.4769 20.706ZM37.5266 19.4659L38.1721 20.2297L38.1783 20.2244L37.5266 19.4659ZM37.9826 18.7585L37.0394 18.4262L37.0367 18.4342L37.9826 18.7585ZM37.9826 16.7216L37.0366 17.0459L37.0394 17.0539L37.9826 16.7216ZM36.0053 16.0142L35.3641 15.2468L35.3589 15.2512L36.0053 16.0142ZM35.5408 16.7216L34.5976 16.3892L34.5949 16.3973L35.5408 16.7216ZM35.5408 18.7585L34.5949 19.0829L34.5977 19.0909L35.5408 18.7585ZM36.0053 19.4659L35.3589 20.2289L35.3646 20.2337L35.3704 20.2385L36.0053 19.4659ZM36.7639 20.1278C36.2459 20.1278 35.8539 20.0189 35.5498 19.8418L34.5433 21.5701C35.2051 21.9555 35.9579 22.1278 36.7639 22.1278V20.1278ZM35.5558 19.8453C35.2406 19.6589 34.9997 19.4047 34.8227 19.0622L33.0459 19.9805C33.3916 20.6493 33.8922 21.1849 34.5373 21.5666L35.5558 19.8453ZM34.8237 19.0642C34.6466 18.7196 34.5423 18.2917 34.5423 17.7528H32.5423C32.5423 18.5549 32.6993 19.306 33.0449 19.9784L34.8237 19.0642ZM34.5423 17.7528C34.5423 17.2066 34.6472 16.7787 34.8227 16.4393L33.0459 15.521C32.6986 16.1929 32.5423 16.9468 32.5423 17.7528H34.5423ZM34.8237 16.4372C35.0008 16.0928 35.2405 15.8408 35.552 15.6583L34.5411 13.9326C33.8923 14.3126 33.3906 14.8504 33.0449 15.523L34.8237 16.4372ZM35.5535 15.6574C35.857 15.4789 36.2476 15.3693 36.7639 15.3693V13.3693C35.9562 13.3693 35.202 13.5438 34.5395 13.9335L35.5535 15.6574ZM36.7639 15.3693C37.2803 15.3693 37.6683 15.479 37.9677 15.6561L38.9862 13.9348C38.3253 13.5438 37.5713 13.3693 36.7639 13.3693V15.3693ZM37.9737 15.6596C38.2877 15.8425 38.5277 16.0943 38.704 16.4372L40.4828 15.523C40.1363 14.8489 39.632 14.3109 38.9802 13.9313L37.9737 15.6596ZM38.705 16.4393C38.8805 16.7787 38.9854 17.2066 38.9854 17.7528H40.9854C40.9854 16.9468 40.8291 16.1929 40.4818 15.521L38.705 16.4393ZM38.9854 17.7528C38.9854 18.2917 38.8811 18.7196 38.704 19.0642L40.4828 19.9784C40.8284 19.306 40.9854 18.5549 40.9854 17.7528H38.9854ZM38.705 19.0622C38.5288 19.4031 38.2876 19.6572 37.9699 19.844L38.9839 21.5679C39.6322 21.1866 40.1353 20.6509 40.4818 19.9805L38.705 19.0622ZM37.9715 19.8431C37.6714 20.0189 37.282 20.1278 36.7639 20.1278V22.1278C37.5696 22.1278 38.3222 21.9556 38.9824 21.5688L37.9715 19.8431ZM36.7724 20.7216C37.2746 20.7216 37.7647 20.5739 38.1721 20.2297L36.8812 18.7021C36.8765 18.706 36.8734 18.708 36.8657 18.7106C36.8563 18.7138 36.8282 18.7216 36.7724 18.7216V20.7216ZM38.1783 20.2244C38.5382 19.9152 38.7794 19.518 38.9285 19.0828L37.0367 18.4342C36.9813 18.5956 36.9185 18.67 36.875 18.7074L38.1783 20.2244ZM38.9258 19.0909C39.0753 18.6666 39.1403 18.2116 39.1403 17.7401H37.1403C37.1403 18.0299 37.1002 18.2539 37.0394 18.4262L38.9258 19.0909ZM39.1403 17.7401C39.1403 17.2685 39.0753 16.8135 38.9258 16.3892L37.0394 17.0539C37.1002 17.2262 37.1403 17.4502 37.1403 17.7401H39.1403ZM38.9285 16.3973C38.7794 15.9621 38.5382 15.5649 38.1783 15.2557L36.875 16.7727C36.9185 16.8101 36.9813 16.8845 37.0367 17.0459L38.9285 16.3973ZM38.1783 15.2557C37.7712 14.9059 37.2789 14.7543 36.7724 14.7543V16.7543C36.8265 16.7543 36.853 16.7619 36.861 16.7647C36.8672 16.7668 36.8699 16.7684 36.875 16.7727L38.1783 15.2557ZM36.7724 14.7543C36.2651 14.7543 35.7739 14.9044 35.3641 15.2468L36.6465 16.7816C36.6516 16.7774 36.6717 16.7543 36.7724 16.7543V14.7543ZM35.3589 15.2512C34.9964 15.5583 34.7511 15.9539 34.5977 16.3892L36.484 17.0539C36.5408 16.8927 36.6051 16.8167 36.6517 16.7772L35.3589 15.2512ZM34.5949 16.3973C34.4503 16.819 34.3874 17.2712 34.3874 17.7401H36.3874C36.3874 17.4476 36.4268 17.2208 36.4868 17.0459L34.5949 16.3973ZM34.3874 17.7401C34.3874 18.2089 34.4503 18.6611 34.5949 19.0828L36.4868 18.4342C36.4268 18.2594 36.3874 18.0325 36.3874 17.7401H34.3874ZM34.5977 19.0909C34.7511 19.5262 34.9964 19.9218 35.3589 20.2289L36.6517 18.7029C36.6051 18.6634 36.5408 18.5874 36.484 18.4262L34.5977 19.0909ZM35.3704 20.2385C35.7802 20.5753 36.2692 20.7216 36.7724 20.7216V18.7216C36.6675 18.7216 36.6452 18.6974 36.6403 18.6934L35.3704 20.2385ZM42.9812 12.2727H43.9812V11.2727H42.9812V12.2727ZM42.9812 21V22H43.9812V21H42.9812ZM41.1658 21H40.1658V22H41.1658V21ZM41.1658 12.2727V11.2727H40.1658V12.2727H41.1658ZM41.9812 12.2727V21H43.9812V12.2727H41.9812ZM42.9812 20H41.1658V22H42.9812V20ZM42.1658 21V12.2727H40.1658V21H42.1658ZM41.1658 13.2727H42.9812V11.2727H41.1658V13.2727ZM45.6754 20.706L45.1662 21.5666L45.1722 21.5701L45.6754 20.706ZM44.5632 19.5213L43.6738 19.9784L43.6749 19.9805L44.5632 19.5213ZM44.5632 15.9801L45.4516 16.4393L45.4526 16.4372L44.5632 15.9801ZM45.6754 14.7955L46.1809 15.6583L46.1824 15.6574L45.6754 14.7955ZM49.1058 14.7955L48.5966 15.6561L48.6026 15.6596L49.1058 14.7955ZM50.2223 15.9801L49.3329 16.4372L49.3339 16.4393L50.2223 15.9801ZM50.2223 19.5213L51.1107 19.9805L51.1117 19.9784L50.2223 19.5213ZM49.1058 20.706L49.6113 21.5688L49.6128 21.5679L49.1058 20.706ZM48.1555 19.4659L48.801 20.2297L48.8072 20.2244L48.1555 19.4659ZM48.6115 18.7585L47.6683 18.4262L47.6656 18.4342L48.6115 18.7585ZM48.6115 16.7216L47.6655 17.0459L47.6684 17.0539L48.6115 16.7216ZM46.6342 16.0142L45.993 15.2468L45.9878 15.2512L46.6342 16.0142ZM46.1697 16.7216L45.2266 16.3892L45.2238 16.3973L46.1697 16.7216ZM46.1697 18.7585L45.2238 19.0829L45.2266 19.0909L46.1697 18.7585ZM46.6342 19.4659L45.9878 20.2289L45.9935 20.2337L45.9993 20.2385L46.6342 19.4659ZM47.3928 20.1278C46.8748 20.1278 46.4828 20.0189 46.1787 19.8418L45.1722 21.5701C45.834 21.9555 46.5868 22.1278 47.3928 22.1278V20.1278ZM46.1847 19.8453C45.8695 19.6589 45.6286 19.4047 45.4516 19.0622L43.6749 19.9805C44.0205 20.6493 44.5211 21.1849 45.1662 21.5666L46.1847 19.8453ZM45.4526 19.0642C45.2755 18.7196 45.1712 18.2917 45.1712 17.7528H43.1712C43.1712 18.5549 43.3282 19.306 43.6738 19.9784L45.4526 19.0642ZM45.1712 17.7528C45.1712 17.2066 45.2761 16.7787 45.4516 16.4393L43.6749 15.521C43.3275 16.1929 43.1712 16.9468 43.1712 17.7528H45.1712ZM45.4526 16.4372C45.6297 16.0928 45.8694 15.8408 46.1809 15.6583L45.17 13.9326C44.5212 14.3126 44.0195 14.8504 43.6738 15.523L45.4526 16.4372ZM46.1824 15.6574C46.4859 15.4789 46.8765 15.3693 47.3928 15.3693V13.3693C46.5851 13.3693 45.8309 13.5438 45.1684 13.9335L46.1824 15.6574ZM47.3928 15.3693C47.9092 15.3693 48.2972 15.479 48.5966 15.6561L49.6151 13.9348C48.9542 13.5438 48.2002 13.3693 47.3928 13.3693V15.3693ZM48.6026 15.6596C48.9166 15.8425 49.1567 16.0943 49.3329 16.4372L51.1117 15.523C50.7652 14.8489 50.2609 14.3109 49.6091 13.9313L48.6026 15.6596ZM49.3339 16.4393C49.5094 16.7787 49.6143 17.2066 49.6143 17.7528H51.6143C51.6143 16.9468 51.458 16.1929 51.1107 15.521L49.3339 16.4393ZM49.6143 17.7528C49.6143 18.2917 49.51 18.7196 49.3329 19.0642L51.1117 19.9784C51.4573 19.306 51.6143 18.5549 51.6143 17.7528H49.6143ZM49.3339 19.0622C49.1577 19.4031 48.9165 19.6572 48.5988 19.844L49.6128 21.5679C50.2611 21.1866 50.7642 20.6509 51.1107 19.9805L49.3339 19.0622ZM48.6004 19.8431C48.3004 20.0189 47.9109 20.1278 47.3928 20.1278V22.1278C48.1985 22.1278 48.9511 21.9556 49.6113 21.5688L48.6004 19.8431ZM47.4013 20.7216C47.9035 20.7216 48.3937 20.5739 48.801 20.2297L47.5101 18.7021C47.5054 18.706 47.5023 18.708 47.4947 18.7106C47.4852 18.7138 47.4571 18.7216 47.4013 18.7216V20.7216ZM48.8072 20.2244C49.1671 19.9152 49.4083 19.518 49.5575 19.0828L47.6656 18.4342C47.6102 18.5956 47.5474 18.67 47.5039 18.7074L48.8072 20.2244ZM49.5547 19.0909C49.7042 18.6666 49.7692 18.2116 49.7692 17.7401H47.7692C47.7692 18.0299 47.7291 18.2539 47.6684 18.4262L49.5547 19.0909ZM49.7692 17.7401C49.7692 17.2685 49.7042 16.8135 49.5547 16.3892L47.6684 17.0539C47.7291 17.2262 47.7692 17.4502 47.7692 17.7401H49.7692ZM49.5575 16.3973C49.4083 15.9621 49.1671 15.5649 48.8072 15.2557L47.5039 16.7727C47.5474 16.8101 47.6102 16.8845 47.6656 17.0459L49.5575 16.3973ZM48.8072 15.2557C48.4001 14.9059 47.9078 14.7543 47.4013 14.7543V16.7543C47.4555 16.7543 47.4819 16.7619 47.4899 16.7647C47.4961 16.7668 47.4989 16.7684 47.5039 16.7727L48.8072 15.2557ZM47.4013 14.7543C46.894 14.7543 46.4028 14.9044 45.993 15.2468L47.2755 16.7816C47.2805 16.7774 47.3006 16.7543 47.4013 16.7543V14.7543ZM45.9878 15.2512C45.6253 15.5583 45.38 15.9539 45.2266 16.3892L47.1129 17.0539C47.1697 16.8927 47.234 16.8167 47.2807 16.7772L45.9878 15.2512ZM45.2238 16.3973C45.0792 16.819 45.0163 17.2712 45.0163 17.7401H47.0163C47.0163 17.4476 47.0557 17.2208 47.1157 17.0459L45.2238 16.3973ZM45.0163 17.7401C45.0163 18.2089 45.0792 18.6611 45.2238 19.0828L47.1157 18.4342C47.0557 18.2594 47.0163 18.0325 47.0163 17.7401H45.0163ZM45.2266 19.0909C45.38 19.5262 45.6253 19.9218 45.9878 20.2289L47.2807 18.7029C47.234 18.6634 47.1697 18.5874 47.1129 18.4262L45.2266 19.0909ZM45.9993 20.2385C46.4091 20.5753 46.8982 20.7216 47.4013 20.7216V18.7216C47.2965 18.7216 47.2741 18.6974 47.2692 18.6934L45.9993 20.2385ZM51.7947 21H50.7947V22H51.7947V21ZM51.7947 14.4545V13.4545H50.7947V14.4545H51.7947ZM53.5547 14.4545H54.5547V13.4545H53.5547V14.4545ZM53.5547 15.5966H52.5547V16.5966H53.5547V15.5966ZM53.6229 15.5966V16.5966H54.3714L54.5823 15.8784L53.6229 15.5966ZM54.2237 14.6761L54.8172 15.481L54.8224 15.4771L54.2237 14.6761ZM55.4893 14.3778L55.5968 13.3836L55.5968 13.3836L55.4893 14.3778ZM55.7663 14.4247H56.7663V13.6439L56.0089 13.4546L55.7663 14.4247ZM55.7663 16.0355L55.479 16.9933L56.7663 17.3795V16.0355H55.7663ZM54.2834 16.1122L54.7639 16.9892L54.768 16.9869L54.2834 16.1122ZM53.7891 16.5895L52.9305 16.0767L52.9253 16.0856L53.7891 16.5895ZM53.6101 21V22H54.6101V21H53.6101ZM52.7947 21V14.4545H50.7947V21H52.7947ZM51.7947 15.4545H53.5547V13.4545H51.7947V15.4545ZM52.5547 14.4545V15.5966H54.5547V14.4545H52.5547ZM53.5547 16.5966H53.6229V14.5966H53.5547V16.5966ZM54.5823 15.8784C54.6535 15.6362 54.7466 15.5331 54.8172 15.481L53.6302 13.8713C53.1384 14.234 52.8309 14.7445 52.6634 15.3148L54.5823 15.8784ZM54.8224 15.4771C54.9229 15.402 55.0346 15.3608 55.1953 15.3608V13.3608C54.6231 13.3608 54.087 13.5298 53.625 13.8752L54.8224 15.4771ZM55.1953 15.3608C55.2451 15.3608 55.3069 15.3639 55.3819 15.372L55.5968 13.3836C55.4616 13.369 55.3273 13.3608 55.1953 13.3608V15.3608ZM55.3819 15.372C55.4537 15.3798 55.4992 15.3887 55.5238 15.3949L56.0089 13.4546C55.8744 13.4209 55.7352 13.3986 55.5968 13.3836L55.3819 15.372ZM54.7663 14.4247V16.0355H56.7663V14.4247H54.7663ZM56.0537 15.0777C55.894 15.0298 55.7157 14.9987 55.5436 14.9759L55.2817 16.9587C55.3423 16.9667 55.3894 16.9744 55.4247 16.9812C55.4421 16.9846 55.4554 16.9875 55.465 16.9897C55.4747 16.9921 55.479 16.9934 55.479 16.9933L56.0537 15.0777ZM55.5436 14.9759C55.3585 14.9515 55.1762 14.9375 54.9993 14.9375V16.9375C55.0724 16.9375 55.1657 16.9434 55.2817 16.9587L55.5436 14.9759ZM54.9993 14.9375C54.5819 14.9375 54.1732 15.03 53.7987 15.2375L54.768 16.9869C54.814 16.9615 54.8826 16.9375 54.9993 16.9375V14.9375ZM53.8028 15.2352C53.438 15.4351 53.1433 15.7205 52.9305 16.0767L54.6476 17.1022C54.6792 17.0494 54.7139 17.0166 54.7639 16.9892L53.8028 15.2352ZM52.9253 16.0856C52.7058 16.4619 52.6101 16.8759 52.6101 17.2969H54.6101C54.6101 17.1838 54.6337 17.1262 54.6528 17.0934L52.9253 16.0856ZM52.6101 17.2969V21H54.6101V17.2969H52.6101ZM53.6101 20H51.7947V22H53.6101V20Z" fill="black" mask="url(#path-2-outside-1_5_20)"/>
</g>
</svg>
