<svg width="72" height="32" viewBox="0 0 72 32" fill="none" xmlns="http://www.w3.org/2000/svg">
<rect x="0.5" y="0.5" width="71" height="31" fill="white"/>
<rect x="0.5" y="0.5" width="71" height="31" stroke="#ECD9D9" stroke-linejoin="round"/>
<g style="mix-blend-mode:darken">
<mask id="path-2-outside-1_5_11" maskUnits="userSpaceOnUse" x="18" y="10" width="35" height="13" fill="black">
<rect fill="white" x="18" y="10" width="35" height="13"/>
<path d="M21.3164 21L19.5352 14.4545H21.3718L22.386 18.8523H22.4457L23.5025 14.4545H25.305L26.3789 18.8267H26.4343L27.4315 14.4545H29.2638L27.4869 21H25.565L24.44 16.8835H24.359L23.234 21H21.3164ZM30.2322 21V14.4545H32.0476V21H30.2322ZM31.1442 13.6108C30.8743 13.6108 30.6428 13.5213 30.4496 13.3423C30.2592 13.1605 30.1641 12.9432 30.1641 12.6903C30.1641 12.4403 30.2592 12.2259 30.4496 12.0469C30.6428 11.8651 30.8743 11.7741 31.1442 11.7741C31.4141 11.7741 31.6442 11.8651 31.8345 12.0469C32.0277 12.2259 32.1243 12.4403 32.1243 12.6903C32.1243 12.9432 32.0277 13.1605 31.8345 13.3423C31.6442 13.5213 31.4141 13.6108 31.1442 13.6108ZM35.9137 21.1065C35.4165 21.1065 34.9663 20.9787 34.5629 20.723C34.1623 20.4645 33.8441 20.0852 33.6083 19.5852C33.3754 19.0824 33.2589 18.4659 33.2589 17.7358C33.2589 16.9858 33.3796 16.3622 33.6211 15.8651C33.8626 15.3651 34.1836 14.9915 34.5842 14.7443C34.9876 14.4943 35.4293 14.3693 35.9094 14.3693C36.2759 14.3693 36.5813 14.4318 36.8256 14.5568C37.0728 14.679 37.2717 14.8324 37.4222 15.017C37.5756 15.1989 37.6921 15.3778 37.7717 15.554H37.8271V12.2727H39.6381V21H37.8484V19.9517H37.7717C37.6864 20.1335 37.5657 20.3139 37.4094 20.4929C37.256 20.669 37.0558 20.8153 36.8086 20.9318C36.5643 21.0483 36.266 21.1065 35.9137 21.1065ZM36.489 19.6619C36.7816 19.6619 37.0288 19.5824 37.2305 19.4233C37.435 19.2614 37.5913 19.0355 37.6992 18.7457C37.81 18.456 37.8654 18.1165 37.8654 17.7273C37.8654 17.3381 37.8114 17 37.7035 16.7131C37.5955 16.4261 37.4393 16.2045 37.2347 16.0483C37.0302 15.892 36.7816 15.8139 36.489 15.8139C36.1907 15.8139 35.9393 15.8949 35.7347 16.0568C35.5302 16.2187 35.3754 16.4432 35.2702 16.7301C35.1651 17.017 35.1126 17.3494 35.1126 17.7273C35.1126 18.108 35.1651 18.4446 35.2702 18.7372C35.3782 19.027 35.533 19.2543 35.7347 19.419C35.9393 19.581 36.1907 19.6619 36.489 19.6619ZM44.6122 14.4545V15.8182H40.6705V14.4545H44.6122ZM41.5653 12.8864H43.3807V18.9886C43.3807 19.1562 43.4063 19.2869 43.4574 19.3807C43.5085 19.4716 43.5795 19.5355 43.6705 19.5724C43.7642 19.6094 43.8722 19.6278 43.9943 19.6278C44.0795 19.6278 44.1648 19.6207 44.25 19.6065C44.3352 19.5895 44.4006 19.5767 44.446 19.5682L44.7315 20.919C44.6406 20.9474 44.5128 20.9801 44.348 21.017C44.1832 21.0568 43.983 21.081 43.7472 21.0895C43.3097 21.1065 42.9261 21.0483 42.5966 20.9148C42.2699 20.7812 42.0156 20.5739 41.8338 20.2926C41.652 20.0114 41.5625 19.6562 41.5653 19.2273V12.8864ZM47.7507 17.2159V21H45.9354V12.2727H47.6996V15.6094H47.7763C47.924 15.223 48.1626 14.9205 48.4922 14.7017C48.8217 14.4801 49.2351 14.3693 49.7322 14.3693C50.1868 14.3693 50.5831 14.4688 50.9212 14.6676C51.2621 14.8636 51.5263 15.1463 51.7138 15.5156C51.9041 15.8821 51.9979 16.321 51.995 16.8324V21H50.1797V17.1562C50.1825 16.7528 50.0803 16.4389 49.8729 16.2145C49.6683 15.9901 49.3814 15.8778 49.0121 15.8778C48.7649 15.8778 48.5462 15.9304 48.3558 16.0355C48.1683 16.1406 48.0206 16.294 47.9126 16.4957C47.8075 16.6946 47.7536 16.9347 47.7507 17.2159Z"/>
</mask>
<path d="M21.3164 21L20.3515 21.2626L20.5522 22H21.3164V21ZM19.5352 14.4545V13.4545H18.2267L18.5702 14.7171L19.5352 14.4545ZM21.3718 14.4545L22.3462 14.2298L22.1674 13.4545H21.3718V14.4545ZM22.386 18.8523L21.4116 19.077L21.5904 19.8523H22.386V18.8523ZM22.4457 18.8523V19.8523H23.2338L23.418 19.0859L22.4457 18.8523ZM23.5025 14.4545V13.4545H22.7143L22.5302 14.2209L23.5025 14.4545ZM25.305 14.4545L26.2762 14.216L26.0891 13.4545H25.305V14.4545ZM26.3789 18.8267L25.4078 19.0652L25.5948 19.8267H26.3789V18.8267ZM26.4343 18.8267V19.8267H27.2319L27.4093 19.0491L26.4343 18.8267ZM27.4315 14.4545V13.4545H26.6339L26.4565 14.2322L27.4315 14.4545ZM29.2638 14.4545L30.2289 14.7165L30.5715 13.4545H29.2638V14.4545ZM27.4869 21V22H28.2516L28.4519 21.262L27.4869 21ZM25.565 21L24.6004 21.2636L24.8016 22H25.565V21ZM24.44 16.8835L25.4046 16.6199L25.2034 15.8835H24.44V16.8835ZM24.359 16.8835V15.8835H23.5956L23.3944 16.6199L24.359 16.8835ZM23.234 21V22H23.9974L24.1986 21.2636L23.234 21ZM22.2813 20.7374L20.5001 14.192L18.5702 14.7171L20.3515 21.2626L22.2813 20.7374ZM19.5352 15.4545H21.3718V13.4545H19.5352V15.4545ZM20.3974 14.6793L21.4116 19.077L23.3604 18.6276L22.3462 14.2298L20.3974 14.6793ZM22.386 19.8523H22.4457V17.8523H22.386V19.8523ZM23.418 19.0859L24.4748 14.6882L22.5302 14.2209L21.4733 18.6186L23.418 19.0859ZM23.5025 15.4545H25.305V13.4545H23.5025V15.4545ZM24.3339 14.6931L25.4078 19.0652L27.35 18.5882L26.2762 14.216L24.3339 14.6931ZM26.3789 19.8267H26.4343V17.8267H26.3789V19.8267ZM27.4093 19.0491L28.4064 14.6769L26.4565 14.2322L25.4593 18.6043L27.4093 19.0491ZM27.4315 15.4545H29.2638V13.4545H27.4315V15.4545ZM28.2988 14.1925L26.5218 20.738L28.4519 21.262L30.2289 14.7165L28.2988 14.1925ZM27.4869 20H25.565V22H27.4869V20ZM26.5296 20.7364L25.4046 16.6199L23.4754 17.1471L24.6004 21.2636L26.5296 20.7364ZM24.44 15.8835H24.359V17.8835H24.44V15.8835ZM23.3944 16.6199L22.2694 20.7364L24.1986 21.2636L25.3236 17.1471L23.3944 16.6199ZM23.234 20H21.3164V22H23.234V20ZM30.2322 21H29.2322V22H30.2322V21ZM30.2322 14.4545V13.4545H29.2322V14.4545H30.2322ZM32.0476 14.4545H33.0476V13.4545H32.0476V14.4545ZM32.0476 21V22H33.0476V21H32.0476ZM30.4496 13.3423L29.7588 14.0654L29.7644 14.0707L29.77 14.0759L30.4496 13.3423ZM30.4496 12.0469L31.1346 12.7754L31.1349 12.7751L30.4496 12.0469ZM31.8345 12.0469L31.1438 12.77L31.1493 12.7753L31.1549 12.7804L31.8345 12.0469ZM31.8345 13.3423L32.5195 14.0708L32.5199 14.0705L31.8345 13.3423ZM31.2322 21V14.4545H29.2322V21H31.2322ZM30.2322 15.4545H32.0476V13.4545H30.2322V15.4545ZM31.0476 14.4545V21H33.0476V14.4545H31.0476ZM32.0476 20H30.2322V22H32.0476V20ZM31.1442 12.6108C31.1321 12.6108 31.126 12.6098 31.1246 12.6096C31.1235 12.6094 31.1252 12.6096 31.1286 12.6109C31.1321 12.6123 31.1348 12.6137 31.136 12.6145C31.1371 12.6152 31.1347 12.6139 31.1292 12.6088L29.77 14.0759C30.153 14.4308 30.6292 14.6108 31.1442 14.6108V12.6108ZM31.1403 12.6192C31.1303 12.6097 31.1405 12.6167 31.1515 12.6418C31.1565 12.6533 31.16 12.6648 31.162 12.6749C31.164 12.6849 31.1641 12.6905 31.1641 12.6903H29.1641C29.1641 13.2287 29.3801 13.7036 29.7588 14.0654L31.1403 12.6192ZM31.1641 12.6903C31.1641 12.6916 31.1639 12.6987 31.1616 12.7102C31.1592 12.7219 31.1552 12.7348 31.1495 12.7476C31.1372 12.7753 31.1255 12.7839 31.1346 12.7754L29.7645 11.3184C29.3834 11.6767 29.1641 12.1508 29.1641 12.6903H31.1641ZM31.1349 12.7751C31.1407 12.7696 31.1432 12.7682 31.142 12.769C31.1407 12.7699 31.1377 12.7715 31.1336 12.7731C31.1295 12.7747 31.1271 12.7752 31.1273 12.7752C31.1278 12.7751 31.133 12.7741 31.1442 12.7741V10.7741C30.6245 10.7741 30.1464 10.9589 29.7642 11.3187L31.1349 12.7751ZM31.1442 12.7741C31.1498 12.7741 31.1539 12.7744 31.1564 12.7746C31.159 12.7748 31.1602 12.7751 31.1602 12.7751C31.1603 12.7751 31.1594 12.7749 31.1578 12.7745C31.1562 12.774 31.1541 12.7733 31.1517 12.7724C31.1467 12.7704 31.1426 12.7681 31.1401 12.7665C31.1378 12.765 31.1391 12.7655 31.1438 12.77L32.5252 11.3238C32.1437 10.9593 31.6641 10.7741 31.1442 10.7741V12.7741ZM31.1549 12.7804C31.165 12.7898 31.1529 12.7812 31.14 12.7526C31.1341 12.7393 31.1297 12.7257 31.1271 12.7131C31.1245 12.7007 31.1243 12.6926 31.1243 12.6903H33.1243C33.1243 12.1456 32.8993 11.6702 32.5141 11.3133L31.1549 12.7804ZM31.1243 12.6903C31.1243 12.6896 31.1244 12.683 31.1266 12.6721C31.1289 12.661 31.1327 12.6488 31.138 12.6368C31.1496 12.6107 31.1601 12.6038 31.1492 12.6141L32.5199 14.0705C32.9027 13.7102 33.1243 13.2338 33.1243 12.6903H31.1243ZM31.1495 12.6138C31.1451 12.618 31.1439 12.6184 31.1461 12.6169C31.1485 12.6154 31.1523 12.6134 31.1567 12.6117C31.1612 12.61 31.1636 12.6095 31.163 12.6097C31.1621 12.6098 31.1562 12.6108 31.1442 12.6108V14.6108C31.6593 14.6108 32.1371 14.4305 32.5195 14.0708L31.1495 12.6138ZM34.5629 20.723L34.0206 21.5632L34.0275 21.5677L34.5629 20.723ZM33.6083 19.5852L32.7009 20.0056L32.7038 20.0118L33.6083 19.5852ZM33.6211 15.8651L34.5206 16.302L34.5216 16.2999L33.6211 15.8651ZM34.5842 14.7443L35.1093 15.5954L35.1109 15.5943L34.5842 14.7443ZM36.8256 14.5568L36.3701 15.4472L36.3826 15.4533L36.8256 14.5568ZM37.4222 15.017L36.6472 15.649L36.6525 15.6555L36.6579 15.6619L37.4222 15.017ZM37.7717 15.554L36.8603 15.9656L37.126 16.554H37.7717V15.554ZM37.8271 15.554V16.554H38.8271V15.554H37.8271ZM37.8271 12.2727V11.2727H36.8271V12.2727H37.8271ZM39.6381 12.2727H40.6381V11.2727H39.6381V12.2727ZM39.6381 21V22H40.6381V21H39.6381ZM37.8484 21H36.8484V22H37.8484V21ZM37.8484 19.9517H38.8484V18.9517H37.8484V19.9517ZM37.7717 19.9517V18.9517H37.136L36.8662 19.5273L37.7717 19.9517ZM37.4094 20.4929L36.6561 19.8352L36.6554 19.8361L37.4094 20.4929ZM36.8086 20.9318L36.3823 20.0272L36.3783 20.0292L36.8086 20.9318ZM37.2305 19.4233L37.8498 20.2085L37.8512 20.2073L37.2305 19.4233ZM37.6992 18.7457L36.7651 18.3886L36.7621 18.3966L37.6992 18.7457ZM37.7035 16.7131L38.6394 16.3609V16.3609L37.7035 16.7131ZM35.7347 16.0568L35.114 15.2728L35.114 15.2728L35.7347 16.0568ZM35.2702 18.7372L34.3291 19.0753L34.3332 19.0863L35.2702 18.7372ZM35.7347 19.419L35.1021 20.1935L35.108 20.1983L35.114 20.2031L35.7347 19.419ZM35.9137 20.1065C35.5979 20.1065 35.3347 20.0283 35.0982 19.8784L34.0275 21.5677C34.5978 21.9291 35.2351 22.1065 35.9137 22.1065V20.1065ZM35.1051 19.8828C34.8853 19.7409 34.6818 19.5171 34.5128 19.1587L32.7038 20.0118C33.0064 20.6533 33.4393 21.1881 34.0206 21.5632L35.1051 19.8828ZM34.5157 19.1649C34.3599 18.8286 34.2589 18.3647 34.2589 17.7358H32.2589C32.2589 18.5671 32.3908 19.3362 32.701 20.0056L34.5157 19.1649ZM34.2589 17.7358C34.2589 17.0859 34.3645 16.6234 34.5206 16.302L32.7216 15.4282C32.3947 16.1011 32.2589 16.8857 32.2589 17.7358H34.2589ZM34.5216 16.2999C34.6953 15.9403 34.8982 15.7256 35.1093 15.5954L34.0591 13.8933C33.469 14.2574 33.0299 14.7898 32.7206 15.4302L34.5216 16.2999ZM35.1109 15.5943C35.3542 15.4436 35.6132 15.3693 35.9094 15.3693V13.3693C35.2455 13.3693 34.6209 13.5451 34.0574 13.8943L35.1109 15.5943ZM35.9094 15.3693C36.1684 15.3693 36.306 15.4143 36.3702 15.4471L37.2811 13.6666C36.8566 13.4494 36.3835 13.3693 35.9094 13.3693V15.3693ZM36.3826 15.4533C36.5215 15.522 36.6002 15.5914 36.6472 15.649L38.1973 14.3851C37.9431 14.0734 37.6241 13.836 37.2687 13.6603L36.3826 15.4533ZM36.6579 15.6619C36.7649 15.7887 36.8263 15.8904 36.8603 15.9656L38.683 15.1424C38.5579 14.8653 38.3863 14.609 38.1865 14.3722L36.6579 15.6619ZM37.7717 16.554H37.8271V14.554H37.7717V16.554ZM38.8271 15.554V12.2727H36.8271V15.554H38.8271ZM37.8271 13.2727H39.6381V11.2727H37.8271V13.2727ZM38.6381 12.2727V21H40.6381V12.2727H38.6381ZM39.6381 20H37.8484V22H39.6381V20ZM38.8484 21V19.9517H36.8484V21H38.8484ZM37.8484 18.9517H37.7717V20.9517H37.8484V18.9517ZM36.8662 19.5273C36.827 19.6109 36.7619 19.7141 36.6561 19.8352L38.1628 21.1506C38.3695 20.9138 38.5458 20.6562 38.6771 20.3761L36.8662 19.5273ZM36.6554 19.8361C36.607 19.8916 36.5252 19.9599 36.3823 20.0272L37.2349 21.8364C37.5863 21.6708 37.9051 21.4464 38.1635 21.1497L36.6554 19.8361ZM36.3783 20.0292C36.3025 20.0653 36.1602 20.1065 35.9137 20.1065V22.1065C36.3717 22.1065 36.826 22.0313 37.2389 21.8345L36.3783 20.0292ZM36.489 20.6619C36.9735 20.6619 37.4475 20.5258 37.8498 20.2085L36.6112 18.6381C36.6101 18.639 36.5898 18.6619 36.489 18.6619V20.6619ZM37.8512 20.2073C38.2235 19.9126 38.4765 19.5238 38.6363 19.0948L36.7621 18.3966C36.706 18.5473 36.6465 18.6102 36.6098 18.6392L37.8512 20.2073ZM38.6333 19.1029C38.7972 18.6742 38.8654 18.2087 38.8654 17.7273H36.8654C36.8654 18.0243 36.8228 18.2378 36.7652 18.3886L38.6333 19.1029ZM38.8654 17.7273C38.8654 17.2488 38.7994 16.7862 38.6394 16.3609L36.7675 17.0652C36.8234 17.2138 36.8654 17.4273 36.8654 17.7273H38.8654ZM38.6394 16.3609C38.4782 15.9324 38.2216 15.5438 37.8418 15.2536L36.6277 16.843C36.6569 16.8653 36.7128 16.9198 36.7675 17.0652L38.6394 16.3609ZM37.8418 15.2536C37.4394 14.9463 36.9695 14.8139 36.489 14.8139V16.8139C36.5937 16.8139 36.6209 16.8378 36.6277 16.843L37.8418 15.2536ZM36.489 14.8139C35.9993 14.8139 35.5201 14.9513 35.114 15.2728L36.3554 16.8409C36.3584 16.8385 36.3821 16.8139 36.489 16.8139V14.8139ZM35.114 15.2728C34.7416 15.5676 34.4888 15.9561 34.3313 16.3861L36.2092 17.0741C36.2619 16.9303 36.3188 16.8699 36.3554 16.8409L35.114 15.2728ZM34.3313 16.3861C34.1775 16.8058 34.1126 17.2588 34.1126 17.7273H36.1126C36.1126 17.44 36.1527 17.2282 36.2092 17.0741L34.3313 16.3861ZM34.1126 17.7273C34.1126 18.1982 34.1774 18.653 34.3291 19.0753L36.2114 18.3991C36.1528 18.2362 36.1126 18.0177 36.1126 17.7273H34.1126ZM34.3332 19.0863C34.4914 19.5111 34.7392 19.897 35.1021 20.1935L36.3674 18.6446C36.3268 18.6115 36.265 18.5429 36.2073 18.3881L34.3332 19.0863ZM35.114 20.2031C35.5201 20.5246 35.9993 20.6619 36.489 20.6619V18.6619C36.3821 18.6619 36.3584 18.6374 36.3554 18.635L35.114 20.2031ZM44.6122 14.4545H45.6122V13.4545H44.6122V14.4545ZM44.6122 15.8182V16.8182H45.6122V15.8182H44.6122ZM40.6705 15.8182H39.6705V16.8182H40.6705V15.8182ZM40.6705 14.4545V13.4545H39.6705V14.4545H40.6705ZM41.5653 12.8864V11.8864H40.5653V12.8864H41.5653ZM43.3807 12.8864H44.3807V11.8864H43.3807V12.8864ZM43.4574 19.3807L42.5794 19.8596L42.5858 19.8709L43.4574 19.3807ZM43.6705 19.5724L43.2941 20.499L43.3039 20.5029L43.6705 19.5724ZM44.25 19.6065L44.4144 20.5929L44.4303 20.5903L44.4461 20.5871L44.25 19.6065ZM44.446 19.5682L45.4244 19.3614L45.2223 18.4052L44.2617 18.5853L44.446 19.5682ZM44.7315 20.919L45.0298 21.8735L45.898 21.6022L45.7099 20.7122L44.7315 20.919ZM44.348 21.017L44.1293 20.0413L44.1213 20.043L44.1134 20.045L44.348 21.017ZM43.7472 21.0895L43.711 20.0901L43.7082 20.0902L43.7472 21.0895ZM42.5966 20.9148L42.2183 21.8405L42.2211 21.8416L42.5966 20.9148ZM41.8338 20.2926L42.6736 19.7497L41.8338 20.2926ZM41.5653 19.2273L42.5653 19.2339V19.2273H41.5653ZM43.6122 14.4545V15.8182H45.6122V14.4545H43.6122ZM44.6122 14.8182H40.6705V16.8182H44.6122V14.8182ZM41.6705 15.8182V14.4545H39.6705V15.8182H41.6705ZM40.6705 15.4545H44.6122V13.4545H40.6705V15.4545ZM41.5653 13.8864H43.3807V11.8864H41.5653V13.8864ZM42.3807 12.8864V18.9886H44.3807V12.8864H42.3807ZM42.3807 18.9886C42.3807 19.2373 42.4152 19.5583 42.5795 19.8595L44.3353 18.9018C44.369 18.9637 44.379 19.009 44.3813 19.0203C44.3835 19.032 44.3807 19.0237 44.3807 18.9886H42.3807ZM42.5858 19.8709C42.7404 20.1458 42.9797 20.3712 43.2941 20.4989L44.0468 18.646C44.1058 18.67 44.165 18.7058 44.218 18.7535C44.2704 18.8007 44.3061 18.8497 44.329 18.8904L42.5858 19.8709ZM43.3039 20.5029C43.5363 20.5944 43.7726 20.6278 43.9943 20.6278V18.6278C43.9717 18.6278 43.9921 18.6244 44.037 18.642L43.3039 20.5029ZM43.9943 20.6278C44.1354 20.6278 44.2756 20.6161 44.4144 20.5929L44.0856 18.6201C44.054 18.6254 44.0237 18.6278 43.9943 18.6278V20.6278ZM44.4461 20.5871C44.5302 20.5703 44.5908 20.5585 44.6303 20.5511L44.2617 18.5853C44.2103 18.595 44.1403 18.6087 44.0539 18.626L44.4461 20.5871ZM43.4676 19.775L43.7531 21.1258L45.7099 20.7122L45.4244 19.3614L43.4676 19.775ZM44.4333 19.9646C44.3812 19.9808 44.2843 20.0065 44.1293 20.0413L44.5667 21.9928C44.7413 21.9537 44.9001 21.9141 45.0298 21.8735L44.4333 19.9646ZM44.1134 20.045C44.0334 20.0643 43.9038 20.0832 43.711 20.0901L43.7833 22.0888C44.0621 22.0788 44.3331 22.0494 44.5827 21.9891L44.1134 20.045ZM43.7082 20.0902C43.3805 20.103 43.1435 20.0574 42.9721 19.988L42.2211 21.8416C42.7088 22.0392 43.2388 22.1101 43.7861 22.0887L43.7082 20.0902ZM42.9749 19.9891C42.8268 19.9286 42.7382 19.8496 42.6736 19.7497L40.994 20.8355C41.2931 21.2981 41.713 21.6339 42.2183 21.8404L42.9749 19.9891ZM42.6736 19.7497C42.6236 19.6724 42.5634 19.5223 42.5653 19.2339L40.5654 19.2206C40.5616 19.7902 40.6803 20.3503 40.994 20.8355L42.6736 19.7497ZM42.5653 19.2273V12.8864H40.5653V19.2273H42.5653ZM47.7507 17.2159L46.7507 17.2058V17.2159H47.7507ZM47.7507 21V22H48.7507V21H47.7507ZM45.9354 21H44.9354V22H45.9354V21ZM45.9354 12.2727V11.2727H44.9354V12.2727H45.9354ZM47.6996 12.2727H48.6996V11.2727H47.6996V12.2727ZM47.6996 15.6094H46.6996V16.6094H47.6996V15.6094ZM47.7763 15.6094V16.6094H48.4645L48.7103 15.9665L47.7763 15.6094ZM48.4922 14.7017L49.0452 15.5349L49.0502 15.5315L48.4922 14.7017ZM50.9212 14.6676L50.4141 15.5296L50.4227 15.5345L50.9212 14.6676ZM51.7138 15.5156L50.8221 15.9683L50.8263 15.9765L51.7138 15.5156ZM51.995 16.8324L50.995 16.8268V16.8324H51.995ZM51.995 21V22H52.995V21H51.995ZM50.1797 21H49.1797V22H50.1797V21ZM50.1797 17.1562L49.1797 17.1492V17.1562H50.1797ZM49.8729 16.2145L49.1338 16.8881L49.1384 16.8932L49.8729 16.2145ZM48.3558 16.0355L47.8724 15.1601L47.8668 15.1632L48.3558 16.0355ZM47.9126 16.4957L47.031 16.0239L47.0285 16.0284L47.9126 16.4957ZM46.7507 17.2159V21H48.7507V17.2159H46.7507ZM47.7507 20H45.9354V22H47.7507V20ZM46.9354 21V12.2727H44.9354V21H46.9354ZM45.9354 13.2727H47.6996V11.2727H45.9354V13.2727ZM46.6996 12.2727V15.6094H48.6996V12.2727H46.6996ZM47.6996 16.6094H47.7763V14.6094H47.6996V16.6094ZM48.7103 15.9665C48.7873 15.7651 48.8974 15.633 49.0452 15.5349L47.9391 13.8686C47.4279 14.2079 47.0607 14.6809 46.8422 15.2522L48.7103 15.9665ZM49.0502 15.5315C49.1775 15.4459 49.3837 15.3693 49.7322 15.3693V13.3693C49.0865 13.3693 48.4659 13.5143 47.9342 13.8719L49.0502 15.5315ZM49.7322 15.3693C50.0372 15.3693 50.2527 15.4346 50.4141 15.5295L51.4282 13.8057C50.9134 13.5029 50.3364 13.3693 49.7322 13.3693V15.3693ZM50.4227 15.5345C50.5859 15.6283 50.7177 15.7626 50.8221 15.9683L52.6054 15.0629C52.3349 14.53 51.9383 14.0989 51.4196 13.8007L50.4227 15.5345ZM50.8263 15.9765C50.9261 16.1686 50.9972 16.4397 50.995 16.8268L52.995 16.8379C52.9985 16.2023 52.8821 15.5956 52.6012 15.0547L50.8263 15.9765ZM50.995 16.8324V21H52.995V16.8324H50.995ZM51.995 20H50.1797V22H51.995V20ZM51.1797 21V17.1562H49.1797V21H51.1797ZM51.1797 17.1633C51.1837 16.5894 51.0364 16.0002 50.6073 15.5358L49.1384 16.8932C49.1387 16.8935 49.1398 16.8946 49.1419 16.8982C49.144 16.902 49.1488 16.9111 49.1543 16.928C49.1657 16.9629 49.1805 17.0321 49.1797 17.1492L51.1797 17.1633ZM50.612 15.5409C50.1777 15.0644 49.5969 14.8778 49.0121 14.8778V16.8778C49.0963 16.8778 49.1332 16.8906 49.14 16.8933C49.1434 16.8946 49.1423 16.8945 49.1389 16.8922C49.1355 16.8899 49.1336 16.8879 49.1338 16.8881L50.612 15.5409ZM49.0121 14.8778C48.6193 14.8778 48.23 14.9626 47.8724 15.1601L48.8392 16.9109C48.8623 16.8981 48.9106 16.8778 49.0121 16.8778V14.8778ZM47.8668 15.1632C47.5021 15.3677 47.2229 15.6653 47.031 16.0239L48.7943 16.9676C48.8183 16.9228 48.8346 16.9135 48.8448 16.9078L47.8668 15.1632ZM47.0285 16.0284C46.8326 16.3992 46.7548 16.8042 46.7508 17.2058L48.7507 17.226C48.7523 17.0651 48.7825 16.99 48.7967 16.963L47.0285 16.0284Z" fill="black" mask="url(#path-2-outside-1_5_11)"/>
</g>
</svg>
