<svg width="72" height="32" viewBox="0 0 72 32" fill="none" xmlns="http://www.w3.org/2000/svg">
<rect x="0.5" y="0.5" width="71" height="31" fill="white"/>
<rect x="0.5" y="0.5" width="71" height="31" stroke="#ECD9D9" stroke-linejoin="round"/>
<g style="mix-blend-mode:darken">
<mask id="path-2-outside-1_10_76" maskUnits="userSpaceOnUse" x="2" y="10" width="68" height="15" fill="black">
<rect fill="white" x="2" y="10" width="68" height="15"/>
<path d="M7.65447 14.4545V15.8182H3.6147V14.4545H7.65447ZM4.53942 21V13.9815C4.53942 13.5071 4.63175 13.1136 4.81641 12.8011C5.00391 12.4886 5.25959 12.2543 5.58345 12.098C5.90732 11.9418 6.27521 11.8636 6.68715 11.8636C6.96555 11.8636 7.21982 11.8849 7.44993 11.9276C7.68288 11.9702 7.85618 12.0085 7.96982 12.0426L7.64595 13.4062C7.57493 13.3835 7.48686 13.3622 7.38175 13.3423C7.27947 13.3224 7.17436 13.3125 7.06641 13.3125C6.79936 13.3125 6.61328 13.375 6.50817 13.5C6.40305 13.6222 6.3505 13.794 6.3505 14.0156V21H4.53942ZM11.4865 21.1278C10.8246 21.1278 10.2521 20.9872 9.76918 20.706C9.28906 20.4219 8.91832 20.027 8.65696 19.5213C8.3956 19.0128 8.26491 18.4233 8.26491 17.7528C8.26491 17.0767 8.3956 16.4858 8.65696 15.9801C8.91832 15.4716 9.28906 15.0767 9.76918 14.7955C10.2521 14.5114 10.8246 14.3693 11.4865 14.3693C12.1484 14.3693 12.7195 14.5114 13.1996 14.7955C13.6825 15.0767 14.0547 15.4716 14.3161 15.9801C14.5774 16.4858 14.7081 17.0767 14.7081 17.7528C14.7081 18.4233 14.5774 19.0128 14.3161 19.5213C14.0547 20.027 13.6825 20.4219 13.1996 20.706C12.7195 20.9872 12.1484 21.1278 11.4865 21.1278ZM11.495 19.7216C11.7962 19.7216 12.0476 19.6364 12.2493 19.4659C12.451 19.2926 12.603 19.0568 12.7053 18.7585C12.8104 18.4602 12.8629 18.1207 12.8629 17.7401C12.8629 17.3594 12.8104 17.0199 12.7053 16.7216C12.603 16.4233 12.451 16.1875 12.2493 16.0142C12.0476 15.8409 11.7962 15.7543 11.495 15.7543C11.1911 15.7543 10.9354 15.8409 10.728 16.0142C10.5234 16.1875 10.3686 16.4233 10.2635 16.7216C10.1612 17.0199 10.1101 17.3594 10.1101 17.7401C10.1101 18.1207 10.1612 18.4602 10.2635 18.7585C10.3686 19.0568 10.5234 19.2926 10.728 19.4659C10.9354 19.6364 11.1911 19.7216 11.495 19.7216ZM17.7038 17.2159V21H15.8885V14.4545H17.6186V15.6094H17.6953C17.8402 15.2287 18.0831 14.9276 18.424 14.706C18.7649 14.4815 19.1783 14.3693 19.6641 14.3693C20.1186 14.3693 20.5149 14.4688 20.853 14.6676C21.1911 14.8665 21.4538 15.1506 21.6413 15.5199C21.8288 15.8864 21.9226 16.3239 21.9226 16.8324V21H20.1072V17.1562C20.1101 16.7557 20.0078 16.4432 19.8004 16.2188C19.593 15.9915 19.3075 15.8778 18.9439 15.8778C18.6996 15.8778 18.4837 15.9304 18.2962 16.0355C18.1115 16.1406 17.9666 16.294 17.8615 16.4957C17.7592 16.6946 17.7067 16.9347 17.7038 17.2159ZM26.8349 14.4545V15.8182H22.8931V14.4545H26.8349ZM23.788 12.8864H25.6033V18.9886C25.6033 19.1562 25.6289 19.2869 25.68 19.3807C25.7312 19.4716 25.8022 19.5355 25.8931 19.5724C25.9869 19.6094 26.0948 19.6278 26.217 19.6278C26.3022 19.6278 26.3874 19.6207 26.4727 19.6065C26.5579 19.5895 26.6232 19.5767 26.6687 19.5682L26.9542 20.919C26.8633 20.9474 26.7354 20.9801 26.5707 21.017C26.4059 21.0568 26.2056 21.081 25.9698 21.0895C25.5323 21.1065 25.1488 21.0483 24.8192 20.9148C24.4925 20.7812 24.2383 20.5739 24.0565 20.2926C23.8746 20.0114 23.7852 19.6562 23.788 19.2273V12.8864ZM31.8963 16.696V18.1364H27.9162V16.696H31.8963ZM36.9631 14.4545V15.8182H32.9233V14.4545H36.9631ZM33.848 21V13.9815C33.848 13.5071 33.9403 13.1136 34.125 12.8011C34.3125 12.4886 34.5682 12.2543 34.892 12.098C35.2159 11.9418 35.5838 11.8636 35.9957 11.8636C36.2741 11.8636 36.5284 11.8849 36.7585 11.9276C36.9915 11.9702 37.1648 12.0085 37.2784 12.0426L36.9545 13.4062C36.8835 13.3835 36.7955 13.3622 36.6903 13.3423C36.5881 13.3224 36.483 13.3125 36.375 13.3125C36.108 13.3125 35.9219 13.375 35.8168 13.5C35.7116 13.6222 35.6591 13.794 35.6591 14.0156V21H33.848ZM39.7042 21.1236C39.2866 21.1236 38.9144 21.0511 38.5877 20.9062C38.261 20.7585 38.0025 20.5412 37.8121 20.2543C37.6246 19.9645 37.5309 19.6037 37.5309 19.1719C37.5309 18.8082 37.5977 18.5028 37.7312 18.2557C37.8647 18.0085 38.0465 17.8097 38.2766 17.6591C38.5067 17.5085 38.7681 17.3949 39.0607 17.3182C39.3562 17.2415 39.6658 17.1875 39.9897 17.1562C40.3704 17.1165 40.6772 17.0795 40.9102 17.0455C41.1431 17.0085 41.3121 16.9545 41.4173 16.8835C41.5224 16.8125 41.5749 16.7074 41.5749 16.5682V16.5426C41.5749 16.2727 41.4897 16.0639 41.3192 15.9162C41.1516 15.7685 40.913 15.6946 40.6033 15.6946C40.2766 15.6946 40.0167 15.767 39.8235 15.9119C39.6303 16.054 39.5025 16.233 39.44 16.4489L37.761 16.3125C37.8462 15.9148 38.0138 15.571 38.2638 15.2812C38.5138 14.9886 38.8363 14.7642 39.2312 14.608C39.6289 14.4489 40.0891 14.3693 40.6119 14.3693C40.9755 14.3693 41.3235 14.4119 41.6559 14.4972C41.9911 14.5824 42.288 14.7145 42.5465 14.8935C42.8079 15.0724 43.0138 15.3026 43.1644 15.5838C43.315 15.8622 43.3903 16.196 43.3903 16.5852V21H41.6687V20.0923H41.6175C41.5124 20.2969 41.3718 20.4773 41.1957 20.6335C41.0195 20.7869 40.8079 20.9077 40.5607 20.9957C40.3136 21.081 40.0281 21.1236 39.7042 21.1236ZM40.2241 19.8707C40.4911 19.8707 40.7269 19.8182 40.9315 19.7131C41.136 19.6051 41.2965 19.4602 41.413 19.2784C41.5295 19.0966 41.5877 18.8906 41.5877 18.6605V17.9659C41.5309 18.0028 41.4528 18.0369 41.3533 18.0682C41.2567 18.0966 41.1474 18.1236 41.0252 18.1491C40.9031 18.1719 40.7809 18.1932 40.6587 18.2131C40.5366 18.2301 40.4258 18.2457 40.3263 18.2599C40.1133 18.2912 39.9272 18.3409 39.7681 18.4091C39.609 18.4773 39.4854 18.5696 39.3974 18.6861C39.3093 18.7997 39.2653 18.9418 39.2653 19.1122C39.2653 19.3594 39.3548 19.5483 39.5337 19.679C39.7156 19.8068 39.9457 19.8707 40.2241 19.8707ZM44.7987 21V14.4545H46.5288V15.6094H46.6055C46.7418 15.2259 46.9691 14.9233 47.2873 14.7017C47.6055 14.4801 47.9862 14.3693 48.4293 14.3693C48.8782 14.3693 49.2603 14.4815 49.5756 14.706C49.891 14.9276 50.1012 15.2287 50.2063 15.6094H50.2745C50.408 15.2344 50.6495 14.9347 50.9989 14.7102C51.3512 14.483 51.7674 14.3693 52.2475 14.3693C52.8583 14.3693 53.354 14.5639 53.7347 14.9531C54.1183 15.3395 54.31 15.8878 54.31 16.598V21H52.4989V16.956C52.4989 16.5923 52.4023 16.3196 52.2092 16.1378C52.016 15.956 51.7745 15.8651 51.4847 15.8651C51.1552 15.8651 50.8981 15.9702 50.7134 16.1804C50.5288 16.3878 50.4364 16.6619 50.4364 17.0028V21H48.6765V16.9176C48.6765 16.5966 48.5842 16.3409 48.3995 16.1506C48.2177 15.9602 47.9776 15.8651 47.6793 15.8651C47.4776 15.8651 47.2958 15.9162 47.1339 16.0185C46.9748 16.1179 46.8484 16.2585 46.7546 16.4403C46.6609 16.6193 46.614 16.8295 46.614 17.071V21H44.7987ZM55.744 21V14.4545H57.5593V21H55.744ZM56.6559 13.6108C56.386 13.6108 56.1545 13.5213 55.9613 13.3423C55.771 13.1605 55.6758 12.9432 55.6758 12.6903C55.6758 12.4403 55.771 12.2259 55.9613 12.0469C56.1545 11.8651 56.386 11.7741 56.6559 11.7741C56.9258 11.7741 57.1559 11.8651 57.3462 12.0469C57.5394 12.2259 57.636 12.4403 57.636 12.6903C57.636 12.9432 57.5394 13.1605 57.3462 13.3423C57.1559 13.5213 56.9258 13.6108 56.6559 13.6108ZM60.8288 12.2727V21H59.0135V12.2727H60.8288ZM63.4038 23.4545C63.1737 23.4545 62.9577 23.4361 62.756 23.3991C62.5572 23.3651 62.3924 23.321 62.2617 23.267L62.6708 21.9119C62.8839 21.9773 63.0756 22.0128 63.2461 22.0185C63.4194 22.0241 63.5685 21.9844 63.6935 21.8991C63.8214 21.8139 63.9251 21.669 64.0046 21.4645L64.1112 21.1875L61.7631 14.4545H63.6722L65.0273 19.2614H65.0955L66.4634 14.4545H68.3853L65.8413 21.7074C65.7191 22.0597 65.5529 22.3665 65.3427 22.6278C65.1353 22.892 64.8725 23.0952 64.5543 23.2372C64.2362 23.3821 63.8526 23.4545 63.4038 23.4545Z"/>
</mask>
<path d="M7.65447 14.4545H8.65447V13.4545H7.65447V14.4545ZM7.65447 15.8182V16.8182H8.65447V15.8182H7.65447ZM3.6147 15.8182H2.6147V16.8182H3.6147V15.8182ZM3.6147 14.4545V13.4545H2.6147V14.4545H3.6147ZM4.53942 21H3.53942V22H4.53942V21ZM4.81641 12.8011L3.95889 12.2866L3.95548 12.2924L4.81641 12.8011ZM5.58345 12.098L5.14892 11.1974L5.14892 11.1974L5.58345 12.098ZM7.44993 11.9276L7.26784 12.9108L7.26999 12.9112L7.44993 11.9276ZM7.96982 12.0426L8.94275 12.2737L9.16074 11.3559L8.25716 11.0848L7.96982 12.0426ZM7.64595 13.4062L7.34117 14.3587L8.36942 14.6877L8.61889 13.6373L7.64595 13.4062ZM7.38175 13.3423L7.19088 14.324L7.19585 14.3249L7.38175 13.3423ZM6.50817 13.5L7.26623 14.1523L7.27353 14.1436L6.50817 13.5ZM6.3505 21V22H7.3505V21H6.3505ZM6.65447 14.4545V15.8182H8.65447V14.4545H6.65447ZM7.65447 14.8182H3.6147V16.8182H7.65447V14.8182ZM4.6147 15.8182V14.4545H2.6147V15.8182H4.6147ZM3.6147 15.4545H7.65447V13.4545H3.6147V15.4545ZM5.53942 21V13.9815H3.53942V21H5.53942ZM5.53942 13.9815C5.53942 13.6325 5.60759 13.4279 5.67733 13.3099L3.95548 12.2924C3.65591 12.7994 3.53942 13.3817 3.53942 13.9815H5.53942ZM5.6739 13.3156C5.76251 13.1679 5.87224 13.069 6.01798 12.9987L5.14892 11.1974C4.64694 11.4395 4.2453 11.8093 3.95891 12.2866L5.6739 13.3156ZM6.01798 12.9987C6.18786 12.9167 6.40375 12.8636 6.68715 12.8636V10.8636C6.14667 10.8636 5.62677 10.9668 5.14892 11.1974L6.01798 12.9987ZM6.68715 12.8636C6.91558 12.8636 7.1078 12.8812 7.26784 12.9108L7.63202 10.9443C7.33183 10.8887 7.01553 10.8636 6.68715 10.8636V12.8636ZM7.26999 12.9112C7.49486 12.9524 7.62374 12.9828 7.68247 13.0004L8.25716 11.0848C8.08862 11.0342 7.8709 10.988 7.62987 10.9439L7.26999 12.9112ZM6.99688 11.8115L6.67302 13.1752L8.61889 13.6373L8.94275 12.2737L6.99688 11.8115ZM7.95073 12.4538C7.82803 12.4146 7.69728 12.3843 7.56764 12.3598L7.19585 14.3249C7.27644 14.3401 7.32183 14.3525 7.34117 14.3587L7.95073 12.4538ZM7.57261 12.3607C7.40523 12.3282 7.23611 12.3125 7.06641 12.3125V14.3125C7.11261 14.3125 7.15372 14.3167 7.19088 14.3239L7.57261 12.3607ZM7.06641 12.3125C6.68788 12.3125 6.13082 12.395 5.74281 12.8564L7.27353 14.1436C7.18598 14.2477 7.09069 14.292 7.04496 14.3073C7.00587 14.3205 7.00485 14.3125 7.06641 14.3125V12.3125ZM5.75016 12.8478C5.43895 13.2094 5.3505 13.6444 5.3505 14.0156H7.3505C7.3505 13.9818 7.35473 13.9851 7.34621 14.0129C7.33669 14.0441 7.31379 14.0969 7.26618 14.1522L5.75016 12.8478ZM5.3505 14.0156V21H7.3505V14.0156H5.3505ZM6.3505 20H4.53942V22H6.3505V20ZM9.76918 20.706L9.25992 21.5666L9.26594 21.5701L9.76918 20.706ZM8.65696 19.5213L7.76755 19.9784L7.7686 19.9805L8.65696 19.5213ZM8.65696 15.9801L9.54532 16.4393L9.54636 16.4372L8.65696 15.9801ZM9.76918 14.7955L10.2746 15.6583L10.2762 15.6574L9.76918 14.7955ZM13.1996 14.7955L12.6903 15.6561L12.6963 15.6596L13.1996 14.7955ZM14.3161 15.9801L13.4266 16.4372L13.4277 16.4393L14.3161 15.9801ZM14.3161 19.5213L15.2044 19.9805L15.2055 19.9784L14.3161 19.5213ZM13.1996 20.706L13.705 21.5688L13.7066 21.5679L13.1996 20.706ZM12.2493 19.4659L12.8948 20.2297L12.901 20.2244L12.2493 19.4659ZM12.7053 18.7585L11.7621 18.4262L11.7593 18.4342L12.7053 18.7585ZM12.7053 16.7216L11.7593 17.0459L11.7621 17.0539L12.7053 16.7216ZM10.728 16.0142L10.0868 15.2468L10.0816 15.2512L10.728 16.0142ZM10.2635 16.7216L9.3203 16.3892L9.31755 16.3973L10.2635 16.7216ZM10.2635 18.7585L9.31751 19.0829L9.32034 19.0909L10.2635 18.7585ZM10.728 19.4659L10.0816 20.2289L10.0873 20.2337L10.093 20.2384L10.728 19.4659ZM11.4865 20.1278C10.9686 20.1278 10.5765 20.0189 10.2724 19.8418L9.26594 21.5701C9.92772 21.9555 10.6806 22.1278 11.4865 22.1278V20.1278ZM10.2784 19.8453C9.96329 19.6589 9.72235 19.4047 9.54532 19.0622L7.7686 19.9805C8.1143 20.6493 8.61483 21.1849 9.25993 21.5666L10.2784 19.8453ZM9.54636 19.0642C9.36926 18.7196 9.26491 18.2917 9.26491 17.7528H7.26491C7.26491 18.5549 7.42194 19.306 7.76756 19.9784L9.54636 19.0642ZM9.26491 17.7528C9.26491 17.2066 9.3699 16.7787 9.54532 16.4393L7.7686 15.521C7.4213 16.1929 7.26491 16.9468 7.26491 17.7528H9.26491ZM9.54636 16.4372C9.72341 16.0928 9.96315 15.8408 10.2746 15.6583L9.26372 13.9326C8.61498 14.3126 8.11324 14.8504 7.76756 15.523L9.54636 16.4372ZM10.2762 15.6574C10.5796 15.4789 10.9703 15.3693 11.4865 15.3693V13.3693C10.6789 13.3693 9.92463 13.5438 9.26216 13.9335L10.2762 15.6574ZM11.4865 15.3693C12.0029 15.3693 12.391 15.479 12.6903 15.6561L13.7088 13.9348C13.0479 13.5438 12.294 13.3693 11.4865 13.3693V15.3693ZM12.6963 15.6596C13.0104 15.8425 13.2504 16.0943 13.4266 16.4372L15.2055 15.523C14.859 14.8489 14.3547 14.3109 13.7028 13.9313L12.6963 15.6596ZM13.4277 16.4393C13.6031 16.7787 13.7081 17.2066 13.7081 17.7528H15.7081C15.7081 16.9468 15.5517 16.1929 15.2044 15.521L13.4277 16.4393ZM13.7081 17.7528C13.7081 18.2917 13.6038 18.7196 13.4266 19.0642L15.2055 19.9784C15.5511 19.306 15.7081 18.5549 15.7081 17.7528H13.7081ZM13.4277 19.0622C13.2515 19.4031 13.0102 19.6572 12.6926 19.844L13.7066 21.5679C14.3548 21.1866 14.8579 20.6509 15.2044 19.9805L13.4277 19.0622ZM12.6941 19.8431C12.3941 20.0189 12.0046 20.1278 11.4865 20.1278V22.1278C12.2923 22.1278 13.0448 21.9556 13.705 21.5688L12.6941 19.8431ZM11.495 20.7216C11.9973 20.7216 12.4874 20.5739 12.8947 20.2297L11.6038 18.7021C11.5992 18.706 11.5961 18.708 11.5884 18.7106C11.579 18.7138 11.5509 18.7216 11.495 18.7216V20.7216ZM12.901 20.2244C13.2608 19.9152 13.502 19.518 13.6512 19.0828L11.7593 18.4342C11.704 18.5956 11.6412 18.67 11.5976 18.7074L12.901 20.2244ZM13.6484 19.0909C13.7979 18.6666 13.8629 18.2116 13.8629 17.7401H11.8629C11.8629 18.0299 11.8228 18.2539 11.7621 18.4262L13.6484 19.0909ZM13.8629 17.7401C13.8629 17.2685 13.7979 16.8135 13.6484 16.3892L11.7621 17.0539C11.8228 17.2262 11.8629 17.4502 11.8629 17.7401H13.8629ZM13.6512 16.3973C13.502 15.9621 13.2608 15.5649 12.901 15.2557L11.5976 16.7727C11.6412 16.8101 11.704 16.8845 11.7593 17.0459L13.6512 16.3973ZM12.901 15.2557C12.4938 14.9059 12.0015 14.7543 11.495 14.7543V16.7543C11.5492 16.7543 11.5756 16.7619 11.5836 16.7647C11.5899 16.7668 11.5926 16.7684 11.5976 16.7727L12.901 15.2557ZM11.495 14.7543C10.9877 14.7543 10.4965 14.9044 10.0868 15.2468L11.3692 16.7816C11.3742 16.7774 11.3944 16.7543 11.495 16.7543V14.7543ZM10.0816 15.2512C9.71909 15.5583 9.47374 15.9539 9.32034 16.3892L11.2067 17.0539C11.2635 16.8927 11.3278 16.8167 11.3744 16.7772L10.0816 15.2512ZM9.31755 16.3973C9.17295 16.819 9.11009 17.2712 9.11009 17.7401H11.1101C11.1101 17.4476 11.1495 17.2208 11.2094 17.0459L9.31755 16.3973ZM9.11009 17.7401C9.11009 18.2089 9.17295 18.6611 9.31755 19.0828L11.2094 18.4342C11.1495 18.2594 11.1101 18.0325 11.1101 17.7401H9.11009ZM9.32034 19.0909C9.47374 19.5262 9.71909 19.9218 10.0816 20.2289L11.3744 18.7029C11.3278 18.6634 11.2635 18.5874 11.2067 18.4262L9.32034 19.0909ZM10.093 20.2384C10.5029 20.5753 10.9919 20.7216 11.495 20.7216V18.7216C11.3902 18.7216 11.3678 18.6974 11.3629 18.6934L10.093 20.2384ZM17.7038 17.2159L16.7038 17.2058V17.2159H17.7038ZM17.7038 21V22H18.7038V21H17.7038ZM15.8885 21H14.8885V22H15.8885V21ZM15.8885 14.4545V13.4545H14.8885V14.4545H15.8885ZM17.6186 14.4545H18.6186V13.4545H17.6186V14.4545ZM17.6186 15.6094H16.6186V16.6094H17.6186V15.6094ZM17.6953 15.6094V16.6094H18.3847L18.6299 15.9651L17.6953 15.6094ZM18.424 14.706L18.969 15.5444L18.9739 15.5412L18.424 14.706ZM21.6413 15.5199L20.7497 15.9726L20.7511 15.9754L21.6413 15.5199ZM21.9226 21V22H22.9226V21H21.9226ZM20.1072 21H19.1072V22H20.1072V21ZM20.1072 17.1562L19.1072 17.1492V17.1562H20.1072ZM19.8004 16.2188L19.0617 16.8928L19.066 16.8974L19.8004 16.2188ZM18.2962 16.0355L17.8071 15.1632L17.8015 15.1664L18.2962 16.0355ZM17.8615 16.4957L16.9747 16.0336L16.9722 16.0384L17.8615 16.4957ZM16.7038 17.2159V21H18.7038V17.2159H16.7038ZM17.7038 20H15.8885V22H17.7038V20ZM16.8885 21V14.4545H14.8885V21H16.8885ZM15.8885 15.4545H17.6186V13.4545H15.8885V15.4545ZM16.6186 14.4545V15.6094H18.6186V14.4545H16.6186ZM17.6186 16.6094H17.6953V14.6094H17.6186V16.6094ZM18.6299 15.9651C18.6995 15.7822 18.8062 15.6502 18.969 15.5444L17.879 13.8675C17.36 14.2049 16.9809 14.6752 16.7607 15.2537L18.6299 15.9651ZM18.9739 15.5412C19.1226 15.4433 19.3359 15.3693 19.6641 15.3693V13.3693C19.0206 13.3693 18.4072 13.5198 17.8741 13.8707L18.9739 15.5412ZM19.6641 15.3693C19.969 15.3693 20.1846 15.4346 20.346 15.5295L21.36 13.8057C20.8453 13.5029 20.2682 13.3693 19.6641 13.3693V15.3693ZM20.346 15.5295C20.5099 15.626 20.6436 15.7636 20.7497 15.9726L22.533 15.0672C22.2641 14.5375 21.8722 14.1069 21.36 13.8057L20.346 15.5295ZM20.7511 15.9754C20.8514 16.1715 20.9226 16.4456 20.9226 16.8324H22.9226C22.9226 16.2021 22.8062 15.6012 22.5316 15.0644L20.7511 15.9754ZM20.9226 16.8324V21H22.9226V16.8324H20.9226ZM21.9226 20H20.1072V22H21.9226V20ZM21.1072 21V17.1562H19.1072V21H21.1072ZM21.1072 17.1633C21.1113 16.59 20.9629 16.0033 20.5349 15.5401L19.066 16.8974C19.0667 16.8981 19.0679 16.8995 19.07 16.9032C19.0722 16.907 19.0769 16.916 19.0823 16.9325C19.0934 16.9665 19.1081 17.0342 19.1073 17.1492L21.1072 17.1633ZM20.5391 15.5447C20.1076 15.0719 19.5328 14.8778 18.9439 14.8778V16.8778C19.0218 16.8778 19.0553 16.8899 19.061 16.8922C19.064 16.8934 19.0635 16.8935 19.0614 16.8921C19.0593 16.8906 19.0594 16.8902 19.0617 16.8928L20.5391 15.5447ZM18.9439 14.8778C18.5521 14.8778 18.1635 14.9635 17.8072 15.1632L18.7852 16.9078C18.8039 16.8973 18.8471 16.8778 18.9439 16.8778V14.8778ZM17.8015 15.1664C17.4378 15.3735 17.1621 15.6739 16.9747 16.0336L18.7483 16.9579C18.7711 16.9141 18.7852 16.9078 18.7909 16.9046L17.8015 15.1664ZM16.9722 16.0384C16.7828 16.4067 16.7079 16.808 16.7039 17.2058L18.7038 17.226C18.7054 17.0613 18.7357 16.9825 18.7508 16.9531L16.9722 16.0384ZM26.8349 14.4545H27.8349V13.4545H26.8349V14.4545ZM26.8349 15.8182V16.8182H27.8349V15.8182H26.8349ZM22.8931 15.8182H21.8931V16.8182H22.8931V15.8182ZM22.8931 14.4545V13.4545H21.8931V14.4545H22.8931ZM23.788 12.8864V11.8864H22.788V12.8864H23.788ZM25.6033 12.8864H26.6033V11.8864H25.6033V12.8864ZM25.68 19.3807L24.8021 19.8596L24.8085 19.8709L25.68 19.3807ZM25.8931 19.5724L25.5167 20.499L25.5266 20.5029L25.8931 19.5724ZM26.4727 19.6065L26.6371 20.5929L26.653 20.5903L26.6688 20.5871L26.4727 19.6065ZM26.6687 19.5682L27.6471 19.3614L27.445 18.4052L26.4844 18.5853L26.6687 19.5682ZM26.9542 20.919L27.2525 21.8735L28.1207 21.6022L27.9326 20.7122L26.9542 20.919ZM26.5707 21.017L26.352 20.0413L26.344 20.043L26.336 20.045L26.5707 21.017ZM25.9698 21.0895L25.9337 20.0901L25.9309 20.0902L25.9698 21.0895ZM24.8192 20.9148L24.4409 21.8405L24.4437 21.8416L24.8192 20.9148ZM24.0565 20.2926L24.8963 19.7497L24.8963 19.7497L24.0565 20.2926ZM23.788 19.2273L24.788 19.2339V19.2273H23.788ZM25.8349 14.4545V15.8182H27.8349V14.4545H25.8349ZM26.8349 14.8182H22.8931V16.8182H26.8349V14.8182ZM23.8931 15.8182V14.4545H21.8931V15.8182H23.8931ZM22.8931 15.4545H26.8349V13.4545H22.8931V15.4545ZM23.788 13.8864H25.6033V11.8864H23.788V13.8864ZM24.6033 12.8864V18.9886H26.6033V12.8864H24.6033ZM24.6033 18.9886C24.6033 19.2373 24.6378 19.5583 24.8021 19.8595L26.5579 18.9018C26.5917 18.9637 26.6017 19.009 26.6039 19.0203C26.6062 19.032 26.6033 19.0237 26.6033 18.9886H24.6033ZM24.8085 19.8709C24.9631 20.1458 25.2024 20.3712 25.5167 20.4989L26.2695 18.646C26.3285 18.67 26.3876 18.7058 26.4406 18.7535C26.493 18.8007 26.5287 18.8497 26.5516 18.8904L24.8085 19.8709ZM25.5266 20.5029C25.759 20.5944 25.9953 20.6278 26.217 20.6278V18.6278C26.1944 18.6278 26.2148 18.6244 26.2596 18.642L25.5266 20.5029ZM26.217 20.6278C26.358 20.6278 26.4982 20.6161 26.6371 20.5929L26.3083 18.6201C26.2766 18.6254 26.2464 18.6278 26.217 18.6278V20.6278ZM26.6688 20.5871C26.7528 20.5703 26.8135 20.5585 26.853 20.5511L26.4844 18.5853C26.4329 18.595 26.3629 18.6087 26.2765 18.626L26.6688 20.5871ZM25.6903 19.775L25.9758 21.1258L27.9326 20.7122L27.6471 19.3614L25.6903 19.775ZM26.6559 19.9646C26.6038 19.9808 26.507 20.0065 26.352 20.0413L26.7894 21.9928C26.9639 21.9537 27.1227 21.9141 27.2525 21.8735L26.6559 19.9646ZM26.336 20.045C26.2561 20.0643 26.1265 20.0832 25.9337 20.0901L26.0059 22.0888C26.2847 22.0788 26.5557 22.0494 26.8053 21.9891L26.336 20.045ZM25.9309 20.0902C25.6031 20.103 25.3661 20.0574 25.1948 19.988L24.4437 21.8416C24.9315 22.0392 25.4615 22.1101 26.0087 22.0887L25.9309 20.0902ZM25.1976 19.9891C25.0494 19.9286 24.9609 19.8496 24.8963 19.7497L23.2167 20.8355C23.5157 21.2981 23.9357 21.6339 24.4409 21.8404L25.1976 19.9891ZM24.8963 19.7497C24.8463 19.6724 24.7861 19.5223 24.788 19.2339L22.788 19.2207C22.7842 19.7902 22.903 20.3503 23.2167 20.8355L24.8963 19.7497ZM24.788 19.2273V12.8864H22.788V19.2273H24.788ZM31.8963 16.696H32.8963V15.696H31.8963V16.696ZM31.8963 18.1364V19.1364H32.8963V18.1364H31.8963ZM27.9162 18.1364H26.9162V19.1364H27.9162V18.1364ZM27.9162 16.696V15.696H26.9162V16.696H27.9162ZM30.8963 16.696V18.1364H32.8963V16.696H30.8963ZM31.8963 17.1364H27.9162V19.1364H31.8963V17.1364ZM28.9162 18.1364V16.696H26.9162V18.1364H28.9162ZM27.9162 17.696H31.8963V15.696H27.9162V17.696ZM36.9631 14.4545H37.9631V13.4545H36.9631V14.4545ZM36.9631 15.8182V16.8182H37.9631V15.8182H36.9631ZM32.9233 15.8182H31.9233V16.8182H32.9233V15.8182ZM32.9233 14.4545V13.4545H31.9233V14.4545H32.9233ZM33.848 21H32.848V22H33.848V21ZM34.125 12.8011L33.2675 12.2866L33.2641 12.2924L34.125 12.8011ZM34.892 12.098L34.4575 11.1974L34.4575 11.1974L34.892 12.098ZM36.7585 11.9276L36.5764 12.9108L36.5786 12.9112L36.7585 11.9276ZM37.2784 12.0426L38.2513 12.2737L38.4693 11.3559L37.5658 11.0848L37.2784 12.0426ZM36.9545 13.4062L36.6498 14.3587L37.678 14.6877L37.9275 13.6373L36.9545 13.4062ZM36.6903 13.3423L36.4995 14.324L36.5044 14.3249L36.6903 13.3423ZM35.8168 13.5L36.5748 14.1523L36.5821 14.1436L35.8168 13.5ZM35.6591 21V22H36.6591V21H35.6591ZM35.9631 14.4545V15.8182H37.9631V14.4545H35.9631ZM36.9631 14.8182H32.9233V16.8182H36.9631V14.8182ZM33.9233 15.8182V14.4545H31.9233V15.8182H33.9233ZM32.9233 15.4545H36.9631V13.4545H32.9233V15.4545ZM34.848 21V13.9815H32.848V21H34.848ZM34.848 13.9815C34.848 13.6325 34.9162 13.4279 34.9859 13.3099L33.2641 12.2924C32.9645 12.7994 32.848 13.3817 32.848 13.9815H34.848ZM34.9825 13.3156C35.0711 13.1679 35.1808 13.069 35.3266 12.9987L34.4575 11.1974C33.9555 11.4395 33.5539 11.8093 33.2675 12.2866L34.9825 13.3156ZM35.3266 12.9987C35.4965 12.9167 35.7123 12.8636 35.9957 12.8636V10.8636C35.4553 10.8636 34.9354 10.9668 34.4575 11.1974L35.3266 12.9987ZM35.9957 12.8636C36.2242 12.8636 36.4164 12.8812 36.5764 12.9108L36.9406 10.9443C36.6404 10.8887 36.3241 10.8636 35.9957 10.8636V12.8636ZM36.5786 12.9112C36.8035 12.9524 36.9323 12.9828 36.9911 13.0004L37.5658 11.0848C37.3972 11.0342 37.1795 10.988 36.9385 10.9439L36.5786 12.9112ZM36.3055 11.8115L35.9816 13.1752L37.9275 13.6373L38.2513 12.2737L36.3055 11.8115ZM37.2593 12.4538C37.1366 12.4146 37.0059 12.3843 36.8762 12.3598L36.5044 14.3249C36.585 14.3401 36.6304 14.3525 36.6498 14.3587L37.2593 12.4538ZM36.8812 12.3607C36.7138 12.3282 36.5447 12.3125 36.375 12.3125V14.3125C36.4212 14.3125 36.4623 14.3167 36.4995 14.3239L36.8812 12.3607ZM36.375 12.3125C35.9965 12.3125 35.4394 12.395 35.0514 12.8564L36.5821 14.1436C36.4946 14.2477 36.3993 14.292 36.3536 14.3073C36.3145 14.3205 36.3134 14.3125 36.375 14.3125V12.3125ZM35.0588 12.8478C34.7475 13.2094 34.6591 13.6444 34.6591 14.0156H36.6591C36.6591 13.9818 36.6633 13.9851 36.6548 14.0129C36.6453 14.0441 36.6224 14.0969 36.5748 14.1522L35.0588 12.8478ZM34.6591 14.0156V21H36.6591V14.0156H34.6591ZM35.6591 20H33.848V22H35.6591V20ZM38.5877 20.9062L38.1757 21.8175L38.1823 21.8204L38.5877 20.9062ZM37.8121 20.2543L36.9725 20.7975L36.9788 20.8071L37.8121 20.2543ZM37.7312 18.2557L36.8514 17.7804L36.8514 17.7804L37.7312 18.2557ZM38.2766 17.6591L37.7291 16.8223L37.7291 16.8223L38.2766 17.6591ZM39.0607 17.3182L38.8094 16.3503L38.8072 16.3509L39.0607 17.3182ZM39.9897 17.1562L40.0857 18.1517L40.0936 18.1508L39.9897 17.1562ZM40.9102 17.0455L41.055 18.035L41.0667 18.0331L40.9102 17.0455ZM41.4173 16.8835L40.8574 16.0549L40.8574 16.0549L41.4173 16.8835ZM41.3192 15.9162L40.658 16.6664L40.6643 16.6719L41.3192 15.9162ZM39.8235 15.9119L40.4159 16.7176L40.4235 16.7119L39.8235 15.9119ZM39.44 16.4489L39.359 17.4456L40.1734 17.5117L40.4006 16.7269L39.44 16.4489ZM37.761 16.3125L36.7832 16.103L36.5445 17.217L37.6801 17.3092L37.761 16.3125ZM38.2638 15.2812L39.021 15.9345L39.0241 15.9308L38.2638 15.2812ZM39.2312 14.608L39.5991 15.5378L39.6026 15.5364L39.2312 14.608ZM41.6559 14.4972L41.4075 15.4658L41.4095 15.4663L41.6559 14.4972ZM42.5465 14.8935L41.9773 15.7157L41.9815 15.7186L42.5465 14.8935ZM43.1644 15.5838L42.2828 16.0558L42.2848 16.0595L43.1644 15.5838ZM43.3903 21V22H44.3903V21H43.3903ZM41.6687 21H40.6687V22H41.6687V21ZM41.6687 20.0923H42.6687V19.0923H41.6687V20.0923ZM41.6175 20.0923V19.0923H41.0071L40.7281 19.6353L41.6175 20.0923ZM41.1957 20.6335L41.8525 21.3876L41.8593 21.3816L41.1957 20.6335ZM40.5607 20.9957L40.8867 21.9412L40.8964 21.9377L40.5607 20.9957ZM40.9315 19.7131L41.3886 20.6026L41.3982 20.5975L40.9315 19.7131ZM41.413 19.2784L40.571 18.739L40.571 18.739L41.413 19.2784ZM41.5877 17.9659H42.5877V16.1232L41.0427 17.1275L41.5877 17.9659ZM41.3533 18.0682L41.6355 19.0275L41.6444 19.0249L41.6532 19.0222L41.3533 18.0682ZM41.0252 18.1491L41.2081 19.1323L41.2191 19.1302L41.2301 19.1279L41.0252 18.1491ZM40.6587 18.2131L40.7969 19.2035L40.8082 19.2019L40.8194 19.2001L40.6587 18.2131ZM40.3263 18.2599L40.1849 17.27L40.1812 17.2705L40.3263 18.2599ZM39.7681 18.4091L40.162 19.3282L40.162 19.3282L39.7681 18.4091ZM39.3974 18.6861L40.1878 19.2987L40.195 19.2892L39.3974 18.6861ZM39.5337 19.679L38.944 20.4866L38.9513 20.4919L38.9586 20.497L39.5337 19.679ZM39.7042 20.1236C39.4029 20.1236 39.1725 20.0716 38.9931 19.9921L38.1823 21.8204C38.6564 22.0306 39.1702 22.1236 39.7042 22.1236V20.1236ZM38.9997 19.9951C38.8369 19.9215 38.7274 19.825 38.6455 19.7015L36.9788 20.8071C37.2775 21.2574 37.6851 21.5956 38.1757 21.8174L38.9997 19.9951ZM38.6517 19.711C38.5924 19.6194 38.5309 19.4593 38.5309 19.1719H36.5309C36.5309 19.7481 36.6569 20.3096 36.9726 20.7975L38.6517 19.711ZM38.5309 19.1719C38.5309 18.9267 38.5762 18.7954 38.611 18.731L36.8514 17.7804C36.6191 18.2103 36.5309 18.6897 36.5309 19.1719H38.5309ZM38.611 18.731C38.6673 18.6268 38.7362 18.5534 38.8242 18.4959L37.7291 16.8223C37.3568 17.0659 37.0621 17.3903 36.8514 17.7804L38.611 18.731ZM38.8242 18.4959C38.9554 18.41 39.1157 18.3376 39.3143 18.2855L38.8072 16.3509C38.4205 16.4522 38.0581 16.607 37.7291 16.8223L38.8242 18.4959ZM39.312 18.2861C39.5533 18.2235 39.8109 18.1782 40.0857 18.1516L39.8937 16.1609C39.5208 16.1968 39.1591 16.2595 38.8094 16.3503L39.312 18.2861ZM40.0936 18.1508C40.4807 18.1104 40.8027 18.0718 41.055 18.0349L40.7654 16.056C40.5517 16.0873 40.2601 16.1226 39.8858 16.1617L40.0936 18.1508ZM41.0667 18.0331C41.3408 17.9897 41.6868 17.9083 41.9771 17.7121L40.8574 16.0549C40.8847 16.0365 40.9044 16.027 40.9116 16.0237C40.919 16.0203 40.9184 16.0212 40.9075 16.0247C40.8839 16.0322 40.8352 16.0448 40.7536 16.0578L41.0667 18.0331ZM41.9771 17.7121C42.3876 17.4348 42.5749 17.0015 42.5749 16.5682H40.5749C40.5749 16.511 40.5862 16.4139 40.6411 16.3042C40.6978 16.1909 40.7792 16.1078 40.8574 16.0549L41.9771 17.7121ZM42.5749 16.5682V16.5426H40.5749V16.5682H42.5749ZM42.5749 16.5426C42.5749 16.0452 42.407 15.5356 41.9742 15.1605L40.6643 16.6719C40.6494 16.659 40.6334 16.642 40.6185 16.6212C40.6035 16.6004 40.5926 16.5797 40.5852 16.5615C40.5702 16.5248 40.5749 16.5123 40.5749 16.5426H42.5749ZM41.9804 15.166C41.5702 14.8044 41.0625 14.6946 40.6033 14.6946V16.6946C40.6809 16.6946 40.715 16.7041 40.7189 16.7053C40.7201 16.7056 40.7133 16.7037 40.7014 16.6971C40.6891 16.6905 40.6739 16.6804 40.658 16.6664L41.9804 15.166ZM40.6033 14.6946C40.1357 14.6946 39.6417 14.7983 39.2235 15.1119L40.4235 16.7119C40.3917 16.7358 40.4176 16.6946 40.6033 16.6946V14.6946ZM39.2311 15.1063C38.8731 15.3695 38.6074 15.7287 38.4794 16.1708L40.4006 16.7269C40.401 16.7252 40.401 16.7259 40.3999 16.7281C40.3989 16.7303 40.3976 16.7324 40.3965 16.7339C40.3954 16.7354 40.3956 16.7349 40.398 16.7325C40.4005 16.73 40.406 16.7249 40.4159 16.7176L39.2311 15.1063ZM39.5209 15.4521L37.842 15.3158L37.6801 17.3092L39.359 17.4456L39.5209 15.4521ZM38.7388 16.522C38.7912 16.2777 38.8875 16.0892 39.021 15.9345L37.5067 14.628C37.1402 15.0528 36.9013 15.5518 36.7832 16.103L38.7388 16.522ZM39.0241 15.9308C39.1575 15.7747 39.3399 15.6404 39.5991 15.5378L38.8633 13.6781C38.3327 13.888 37.8702 14.2026 37.5036 14.6317L39.0241 15.9308ZM39.6026 15.5364C39.8593 15.4337 40.1891 15.3693 40.6119 15.3693V13.3693C39.9891 13.3693 39.3985 13.464 38.8598 13.6795L39.6026 15.5364ZM40.6119 15.3693C40.8967 15.3693 41.161 15.4026 41.4075 15.4658L41.9043 13.5285C41.486 13.4213 41.0543 13.3693 40.6119 13.3693V15.3693ZM41.4095 15.4663C41.6408 15.5251 41.8261 15.611 41.9773 15.7157L43.1157 14.0713C42.7499 13.818 42.3415 13.6396 41.9023 13.528L41.4095 15.4663ZM41.9815 15.7186C42.1096 15.8062 42.2074 15.9149 42.2828 16.0558L44.046 15.1118C43.8203 14.6902 43.5062 14.3386 43.1115 14.0684L41.9815 15.7186ZM42.2848 16.0595C42.3402 16.1619 42.3903 16.3244 42.3903 16.5852H44.3903C44.3903 16.0676 44.2898 15.5625 44.044 15.1081L42.2848 16.0595ZM42.3903 16.5852V21H44.3903V16.5852H42.3903ZM43.3903 20H41.6687V22H43.3903V20ZM42.6687 21V20.0923H40.6687V21H42.6687ZM41.6687 19.0923H41.6175V21.0923H41.6687V19.0923ZM40.7281 19.6353C40.681 19.727 40.6178 19.8094 40.5321 19.8854L41.8593 21.3816C42.1258 21.1452 42.3439 20.8667 42.507 20.5494L40.7281 19.6353ZM40.5389 19.8794C40.468 19.9412 40.3688 20.0025 40.2251 20.0538L40.8964 21.9377C41.2469 21.8128 41.571 21.6327 41.8524 21.3876L40.5389 19.8794ZM40.2347 20.0504C40.1141 20.092 39.9426 20.1236 39.7042 20.1236V22.1236C40.1136 22.1236 40.5131 22.07 40.8867 21.9411L40.2347 20.0504ZM40.2241 20.8707C40.6244 20.8707 41.0214 20.7912 41.3885 20.6025L40.4744 18.8236C40.4324 18.8452 40.3578 18.8707 40.2241 18.8707V20.8707ZM41.3982 20.5975C41.7443 20.4148 42.0387 20.1555 42.255 19.8178L40.571 18.739C40.5543 18.765 40.5277 18.7954 40.4647 18.8287L41.3982 20.5975ZM42.255 19.8178C42.4815 19.4643 42.5877 19.0687 42.5877 18.6605H40.5877C40.5877 18.7126 40.5774 18.7289 40.571 18.739L42.255 19.8178ZM42.5877 18.6605V17.9659H40.5877V18.6605H42.5877ZM41.0427 17.1275C41.0572 17.1181 41.0684 17.1118 41.0754 17.1082C41.0824 17.1045 41.0863 17.1027 41.0866 17.1026C41.0868 17.1025 41.0843 17.1036 41.0786 17.1057C41.0728 17.1078 41.0646 17.1107 41.0535 17.1142L41.6532 19.0222C41.798 18.9766 41.9705 18.9098 42.1327 18.8044L41.0427 17.1275ZM41.0712 17.1088C41.0053 17.1282 40.9224 17.149 40.8204 17.1704L41.2301 19.1279C41.3724 19.0982 41.5082 19.065 41.6355 19.0275L41.0712 17.1088ZM40.8423 17.166C40.7275 17.1874 40.6128 17.2074 40.4981 17.2261L40.8194 19.2001C40.949 19.179 41.0786 19.1564 41.2081 19.1323L40.8423 17.166ZM40.5205 17.2227C40.3975 17.2398 40.2856 17.2556 40.1849 17.27L40.4678 19.2499C40.5659 19.2359 40.6756 19.2204 40.7969 19.2035L40.5205 17.2227ZM40.1812 17.2705C39.9024 17.3114 39.6294 17.3806 39.3742 17.4899L40.162 19.3282C40.225 19.3012 40.3241 19.271 40.4715 19.2494L40.1812 17.2705ZM39.3742 17.4899C39.0851 17.6139 38.8105 17.8042 38.5997 18.083L40.195 19.2892C40.1792 19.3101 40.1639 19.3236 40.1546 19.3306C40.146 19.337 40.1464 19.3349 40.162 19.3282L39.3742 17.4899ZM38.607 18.0735C38.359 18.3934 38.2653 18.7626 38.2653 19.1122H40.2653C40.2653 19.113 40.2651 19.1362 40.2535 19.1739C40.2412 19.2134 40.2197 19.2575 40.1878 19.2987L38.607 18.0735ZM38.2653 19.1122C38.2653 19.6361 38.4747 20.1439 38.944 20.4866L40.1234 18.8714C40.1603 18.8983 40.2052 18.9458 40.2361 19.0112C40.2653 19.0728 40.2653 19.1145 40.2653 19.1122H38.2653ZM38.9586 20.497C39.3471 20.7702 39.7921 20.8707 40.2241 20.8707V18.8707C40.1608 18.8707 40.1252 18.8634 40.1103 18.8593C40.0971 18.8556 40.0996 18.8544 40.1089 18.8609L38.9586 20.497ZM44.7987 21H43.7987V22H44.7987V21ZM44.7987 14.4545V13.4545H43.7987V14.4545H44.7987ZM46.5288 14.4545H47.5288V13.4545H46.5288V14.4545ZM46.5288 15.6094H45.5288V16.6094H46.5288V15.6094ZM46.6055 15.6094V16.6094H47.3112L47.5477 15.9444L46.6055 15.6094ZM47.2873 14.7017L46.7158 13.8811L46.7158 13.8811L47.2873 14.7017ZM49.5756 14.706L48.9958 15.5207L49.0007 15.5242L49.5756 14.706ZM50.2063 15.6094L49.2424 15.8755L49.445 16.6094H50.2063V15.6094ZM50.2745 15.6094V16.6094H50.9799L51.2166 15.9448L50.2745 15.6094ZM50.9989 14.7102L51.5393 15.5516L51.5411 15.5505L50.9989 14.7102ZM53.7347 14.9531L53.0198 15.6524L53.025 15.6576L53.7347 14.9531ZM54.31 21V22H55.31V21H54.31ZM52.4989 21H51.4989V22H52.4989V21ZM52.2092 16.1378L51.5238 16.866L51.5238 16.866L52.2092 16.1378ZM50.7134 16.1804L51.4603 16.8454L51.4647 16.8403L50.7134 16.1804ZM50.4364 21V22H51.4364V21H50.4364ZM48.6765 21H47.6765V22H48.6765V21ZM48.3995 16.1506L47.6764 16.8413L47.6818 16.8469L48.3995 16.1506ZM47.1339 16.0185L47.6639 16.8665L47.6679 16.864L47.1339 16.0185ZM46.7546 16.4403L47.6405 16.9044L47.6434 16.8986L46.7546 16.4403ZM46.614 21V22H47.614V21H46.614ZM45.7987 21V14.4545H43.7987V21H45.7987ZM44.7987 15.4545H46.5288V13.4545H44.7987V15.4545ZM45.5288 14.4545V15.6094H47.5288V14.4545H45.5288ZM46.5288 16.6094H46.6055V14.6094H46.5288V16.6094ZM47.5477 15.9444C47.6179 15.747 47.7206 15.6185 47.8588 15.5223L46.7158 13.8811C46.2176 14.2281 45.8658 14.7047 45.6633 15.2744L47.5477 15.9444ZM47.8588 15.5223C47.9861 15.4337 48.1603 15.3693 48.4293 15.3693V13.3693C47.812 13.3693 47.2249 13.5266 46.7158 13.8811L47.8588 15.5223ZM48.4293 15.3693C48.7046 15.3693 48.8757 15.4352 48.9958 15.5207L50.1555 13.8912C49.6449 13.5278 49.0518 13.3693 48.4293 13.3693V15.3693ZM49.0007 15.5242C49.1212 15.6089 49.1973 15.7124 49.2424 15.8755L51.1703 15.3432C51.0051 14.745 50.6607 14.2462 50.1506 13.8878L49.0007 15.5242ZM50.2063 16.6094H50.2745V14.6094H50.2063V16.6094ZM51.2166 15.9448C51.2725 15.7878 51.3674 15.662 51.5393 15.5516L50.4585 13.8688C49.9316 14.2073 49.5436 14.681 49.3324 15.2739L51.2166 15.9448ZM51.5411 15.5505C51.7092 15.442 51.9311 15.3693 52.2475 15.3693V13.3693C51.6038 13.3693 50.9932 13.5239 50.4568 13.8699L51.5411 15.5505ZM52.2475 15.3693C52.6252 15.3693 52.851 15.4798 53.0198 15.6524L54.4496 14.2539C53.8571 13.6481 53.0914 13.3693 52.2475 13.3693V15.3693ZM53.025 15.6576C53.171 15.8047 53.31 16.0681 53.31 16.598H55.31C55.31 15.7075 55.0655 14.8743 54.4444 14.2486L53.025 15.6576ZM53.31 16.598V21H55.31V16.598H53.31ZM54.31 20H52.4989V22H54.31V20ZM53.4989 21V16.956H51.4989V21H53.4989ZM53.4989 16.956C53.4989 16.4222 53.3542 15.8422 52.8945 15.4096L51.5238 16.866C51.5108 16.8538 51.5003 16.8406 51.4927 16.8288C51.4853 16.8172 51.4832 16.8106 51.4839 16.8125C51.4859 16.8182 51.4989 16.8599 51.4989 16.956H53.4989ZM52.8945 15.4096C52.498 15.0364 52.0036 14.8651 51.4847 14.8651V16.8651C51.5048 16.8651 51.5176 16.8666 51.5243 16.8678C51.5308 16.8689 51.5325 16.8698 51.5308 16.8691C51.529 16.8684 51.5263 16.8672 51.5237 16.8655C51.5212 16.8639 51.5212 16.8635 51.5238 16.866L52.8945 15.4096ZM51.4847 14.8651C50.9237 14.8651 50.3708 15.0551 49.9621 15.5205L51.4647 16.8403C51.4618 16.8437 51.4557 16.8498 51.4465 16.8563C51.4373 16.8629 51.4288 16.8672 51.4232 16.8695C51.4114 16.8743 51.426 16.8651 51.4847 16.8651V14.8651ZM49.9666 15.5154C49.5839 15.9452 49.4364 16.475 49.4364 17.0028H51.4364C51.4364 16.922 51.4474 16.8785 51.4534 16.8607C51.4563 16.8519 51.4586 16.8479 51.4591 16.8471C51.4595 16.8463 51.4597 16.846 51.4603 16.8454L49.9666 15.5154ZM49.4364 17.0028V21H51.4364V17.0028H49.4364ZM50.4364 20H48.6765V22H50.4364V20ZM49.6765 21V16.9176H47.6765V21H49.6765ZM49.6765 16.9176C49.6765 16.3948 49.5197 15.8691 49.1172 15.4543L47.6818 16.8469C47.6786 16.8436 47.6747 16.8388 47.6712 16.8331C47.6677 16.8275 47.6665 16.8241 47.6667 16.8247C47.6671 16.8259 47.6765 16.8524 47.6765 16.9176H49.6765ZM49.1226 15.4598C48.7262 15.0448 48.2109 14.8651 47.6793 14.8651V16.8651C47.7008 16.8651 47.7132 16.8668 47.7181 16.8676C47.7227 16.8685 47.7209 16.8686 47.7146 16.866C47.708 16.8635 47.6999 16.8594 47.6917 16.8538C47.6836 16.8483 47.6785 16.8435 47.6764 16.8413L49.1226 15.4598ZM47.6793 14.8651C47.2991 14.8651 46.9303 14.9643 46.5999 15.173L47.6679 16.864C47.6686 16.8635 47.6681 16.8639 47.6666 16.8645C47.6651 16.8652 47.6636 16.8657 47.6624 16.8661C47.6613 16.8664 47.6617 16.8662 47.6639 16.8659C47.6663 16.8656 47.6712 16.8651 47.6793 16.8651V14.8651ZM46.6039 15.1705C46.2787 15.3737 46.0343 15.6553 45.8658 15.9821L47.6434 16.8986C47.6543 16.8776 47.6618 16.8688 47.6634 16.8671C47.6644 16.866 47.6646 16.8658 47.6642 16.8662C47.6638 16.8665 47.6636 16.8666 47.6639 16.8665L46.6039 15.1705ZM45.8688 15.9763C45.6867 16.3239 45.614 16.6993 45.614 17.071H47.614C47.614 16.9598 47.635 16.9147 47.6404 16.9043L45.8688 15.9763ZM45.614 17.071V21H47.614V17.071H45.614ZM46.614 20H44.7987V22H46.614V20ZM55.744 21H54.744V22H55.744V21ZM55.744 14.4545V13.4545H54.744V14.4545H55.744ZM57.5593 14.4545H58.5593V13.4545H57.5593V14.4545ZM57.5593 21V22H58.5593V21H57.5593ZM55.9613 13.3423L55.2706 14.0654L55.2761 14.0707L55.2817 14.0759L55.9613 13.3423ZM55.9613 12.0469L56.6463 12.7754L56.6467 12.7751L55.9613 12.0469ZM57.3462 12.0469L56.6555 12.77L56.661 12.7753L56.6666 12.7804L57.3462 12.0469ZM57.3462 13.3423L58.0313 14.0708L58.0316 14.0705L57.3462 13.3423ZM56.744 21V14.4545H54.744V21H56.744ZM55.744 15.4545H57.5593V13.4545H55.744V15.4545ZM56.5593 14.4545V21H58.5593V14.4545H56.5593ZM57.5593 20H55.744V22H57.5593V20ZM56.6559 12.6108C56.6438 12.6108 56.6377 12.6098 56.6364 12.6096C56.6352 12.6094 56.6369 12.6096 56.6403 12.6109C56.6438 12.6123 56.6465 12.6137 56.6477 12.6145C56.6488 12.6152 56.6465 12.6139 56.6409 12.6088L55.2817 14.0759C55.6647 14.4308 56.1409 14.6108 56.6559 14.6108V12.6108ZM56.652 12.6192C56.642 12.6097 56.6522 12.6167 56.6632 12.6418C56.6682 12.6533 56.6717 12.6648 56.6737 12.6749C56.6758 12.6849 56.6758 12.6905 56.6758 12.6903H54.6758C54.6758 13.2287 54.8918 13.7036 55.2706 14.0654L56.652 12.6192ZM56.6758 12.6903C56.6758 12.6916 56.6756 12.6987 56.6733 12.7102C56.6709 12.7219 56.6669 12.7348 56.6612 12.7476C56.6489 12.7753 56.6372 12.7839 56.6463 12.7754L55.2763 11.3184C54.8951 11.6767 54.6758 12.1508 54.6758 12.6903H56.6758ZM56.6467 12.7751C56.6525 12.7696 56.6549 12.7682 56.6537 12.769C56.6524 12.7699 56.6494 12.7715 56.6453 12.7731C56.6412 12.7747 56.6388 12.7752 56.6391 12.7752C56.6395 12.7751 56.6447 12.7741 56.6559 12.7741V10.7741C56.1362 10.7741 55.6582 10.9589 55.2759 11.3187L56.6467 12.7751ZM56.6559 12.7741C56.6615 12.7741 56.6656 12.7744 56.6681 12.7746C56.6707 12.7748 56.6719 12.7751 56.672 12.7751C56.672 12.7751 56.6711 12.7749 56.6695 12.7745C56.6679 12.774 56.6658 12.7733 56.6635 12.7724C56.6584 12.7704 56.6543 12.7681 56.6518 12.7665C56.6495 12.765 56.6508 12.7655 56.6555 12.77L58.037 11.3238C57.6554 10.9593 57.1758 10.7741 56.6559 10.7741V12.7741ZM56.6666 12.7804C56.6767 12.7898 56.6647 12.7812 56.6518 12.7526C56.6458 12.7393 56.6415 12.7257 56.6388 12.7131C56.6363 12.7007 56.636 12.6926 56.636 12.6903H58.636C58.636 12.1456 58.411 11.6702 58.0259 11.3133L56.6666 12.7804ZM56.636 12.6903C56.636 12.6896 56.6361 12.683 56.6384 12.6721C56.6406 12.661 56.6444 12.6488 56.6498 12.6368C56.6614 12.6107 56.6718 12.6038 56.6609 12.6141L58.0316 14.0705C58.4145 13.7102 58.636 13.2338 58.636 12.6903H56.636ZM56.6612 12.6138C56.6568 12.618 56.6556 12.6184 56.6579 12.6169C56.6602 12.6154 56.664 12.6134 56.6684 12.6117C56.6729 12.61 56.6754 12.6095 56.6747 12.6097C56.6738 12.6098 56.668 12.6108 56.6559 12.6108V14.6108C57.1711 14.6108 57.6488 14.4305 58.0313 14.0708L56.6612 12.6138ZM60.8288 12.2727H61.8288V11.2727H60.8288V12.2727ZM60.8288 21V22H61.8288V21H60.8288ZM59.0135 21H58.0135V22H59.0135V21ZM59.0135 12.2727V11.2727H58.0135V12.2727H59.0135ZM59.8288 12.2727V21H61.8288V12.2727H59.8288ZM60.8288 20H59.0135V22H60.8288V20ZM60.0135 21V12.2727H58.0135V21H60.0135ZM59.0135 13.2727H60.8288V11.2727H59.0135V13.2727ZM62.756 23.3991L62.9362 22.4154L62.925 22.4135L62.756 23.3991ZM62.2617 23.267L61.3044 22.978L61.0425 23.8454L61.88 24.1913L62.2617 23.267ZM62.6708 21.9119L62.964 20.9559L62.0038 20.6614L61.7135 21.6229L62.6708 21.9119ZM63.2461 22.0185L63.2128 23.0179L63.2133 23.0179L63.2461 22.0185ZM63.6935 21.8991L63.1388 21.0671L63.1302 21.0729L63.6935 21.8991ZM64.0046 21.4645L64.9366 21.8269L64.938 21.8235L64.0046 21.4645ZM64.1112 21.1875L65.0445 21.5465L65.1761 21.2043L65.0554 20.8582L64.1112 21.1875ZM61.7631 14.4545V13.4545H60.3553L60.8189 14.7838L61.7631 14.4545ZM63.6722 14.4545L64.6347 14.1832L64.4293 13.4545H63.6722V14.4545ZM65.0273 19.2614L64.0649 19.5327L64.2703 20.2614H65.0273V19.2614ZM65.0955 19.2614V20.2614H65.8507L66.0573 19.5351L65.0955 19.2614ZM66.4634 14.4545V13.4545H65.7083L65.5016 14.1808L66.4634 14.4545ZM68.3853 14.4545L69.3289 14.7855L69.7958 13.4545H68.3853V14.4545ZM65.8413 21.7074L64.8976 21.3764L64.8965 21.3798L65.8413 21.7074ZM65.3427 22.6278L64.5634 22.001L64.5561 22.0104L65.3427 22.6278ZM64.5543 23.2372L64.1467 22.3241L64.1399 22.3271L64.5543 23.2372ZM63.4038 22.4545C63.2269 22.4545 63.0717 22.4403 62.9361 22.4155L62.5759 24.3828C62.8437 24.4318 63.1204 24.4545 63.4038 24.4545V22.4545ZM62.925 22.4135C62.7709 22.3871 62.6836 22.3593 62.6435 22.3428L61.88 24.1913C62.1012 24.2827 62.3434 24.343 62.5871 24.3848L62.925 22.4135ZM63.219 23.5561L63.6281 22.2009L61.7135 21.6229L61.3044 22.978L63.219 23.5561ZM62.3776 22.868C62.6508 22.9518 62.932 23.0086 63.2128 23.0179L63.2794 21.019C63.2193 21.017 63.117 21.0028 62.964 20.9559L62.3776 22.868ZM63.2133 23.0179C63.5665 23.0295 63.9317 22.9471 64.2569 22.7254L63.1302 21.0729C63.1629 21.0506 63.198 21.0353 63.2303 21.0267C63.2612 21.0184 63.2795 21.019 63.2789 21.019L63.2133 23.0179ZM64.2482 22.7312C64.6062 22.4926 64.8132 22.1442 64.9366 21.8269L63.0726 21.102C63.0564 21.1437 63.0475 21.1536 63.054 21.1446C63.0614 21.1342 63.0875 21.1013 63.1388 21.0671L64.2482 22.7312ZM64.938 21.8235L65.0445 21.5465L63.1778 20.8285L63.0713 21.1055L64.938 21.8235ZM65.0554 20.8582L62.7074 14.1253L60.8189 14.7838L63.1669 21.5168L65.0554 20.8582ZM61.7631 15.4545H63.6722V13.4545H61.7631V15.4545ZM62.7097 14.7259L64.0649 19.5327L65.9898 18.99L64.6347 14.1832L62.7097 14.7259ZM65.0273 20.2614H65.0955V18.2614H65.0273V20.2614ZM66.0573 19.5351L67.4252 14.7283L65.5016 14.1808L64.1337 18.9877L66.0573 19.5351ZM66.4634 15.4545H68.3853V13.4545H66.4634V15.4545ZM67.4417 14.1236L64.8976 21.3764L66.7849 22.0384L69.3289 14.7855L67.4417 14.1236ZM64.8965 21.3798C64.8077 21.6356 64.6942 21.8386 64.5635 22.0011L66.1219 23.2546C66.4117 22.8944 66.6305 22.4837 66.7861 22.035L64.8965 21.3798ZM64.5561 22.0104C64.4529 22.1418 64.3221 22.2457 64.1467 22.3241L64.962 24.1504C65.4229 23.9446 65.8177 23.6423 66.1293 23.2453L64.5561 22.0104ZM64.1399 22.3271C63.9833 22.3985 63.7487 22.4545 63.4038 22.4545V24.4545C63.9565 24.4545 64.4891 24.3657 64.9687 24.1473L64.1399 22.3271Z" fill="black" mask="url(#path-2-outside-1_10_76)"/>
</g>
</svg>
